<?xml version="1.0" encoding="utf-8"?>
<!-- Generator: Adobe Illustrator 22.0.1, SVG Export Plug-In . SVG Version: 6.00 Build 0)  -->
<svg version="1.1" id="Layer_1" xmlns="http://www.w3.org/2000/svg" xmlns:xlink="http://www.w3.org/1999/xlink" x="0px" y="0px"
	 viewBox="0 0 3840.5 2160.3" style="enable-background:new 0 0 3840.5 2160.3;" xml:space="preserve">
<style type="text/css">
	.st0{fill:#323232;}
	.st1{fill:#FFFFFF;}
</style>
<title>Asset 5</title>
<rect x="0.2" y="0.1" class="st0" width="1680" height="2160"/>
<path class="st1" d="M1318.4,1237.5c1,7,1.4,13.8,1.4,20.8c0,177.4-118.6,266-360,266H584v-7.8h47c49.6,0,75.6-24.8,80.8-79.6
	c-143.4-7.8-241.2-79.6-288.2-203.4c-44.4-10.4-57.4-40.4-91.4-40.4c-19.6,0-33.8,24.8-37.8,73h-7.8l15.6-236h7.8
	c9.2,87.4,43,169.6,109.6,193c-19.6-53.4-28.8-117.4-28.8-189.2c0-14.4,1.2-30,1.2-45.6c-54.8-23.4-101.8-52.2-101.8-114.8
	c0-73,64-117.4,122.6-117.4c17.2,0,34.2,4,49.6,11.8c56-83.4,143.4-133,250.4-138.2c-2.6-53.4-27.4-78.2-82.2-78.2h-47v-7.8h437
	c164.4,0,271.4,90,271.4,227v1.4c41.8,11.8,57.4,39.2,86,39.2c13,0,24.8-7.8,27.4-32.6h7.8l4,157.8h-7.8
	c-11.8-80.8-62.6-138.2-117.4-155.2c-4,101.8-58.6,168.2-169.6,198.2v26c112.2,32.6,184,112.2,195.6,223c48.2-23.4,87.4-75.6,86-150
	h4l11.8,27.4C1407,1165.7,1373.2,1216.7,1318.4,1237.5z M573.6,1133.1c0,7.8-0.8,15.8-2.6,23.4c13-23.4,15.6-43,15.6-62.6
	c0-189.2-264.8-127.8-264.8-260.8c-0.2-8.8,0.6-17.4,2.6-26c-13,14.4-24.8,32.6-24.8,66.6C299.6,1001.3,573.6,959.7,573.6,1133.1z
	 M358.4,1190.5c-14.4-11.8-37.8-67.8-50.8-112.2l-6.6,126.6c5-12,17-19.8,30-19.6C340,1185.3,350.4,1185.3,358.4,1190.5
	L358.4,1190.5z M310,873.5c0.2-8.4,1-16.6,2.6-24.8c17,125.4,249.2,77,263.6,232.2C539.6,963.5,310,971.3,310,873.5z M312.6,1118.7
	c6.6,27.4,20.8,53.4,27.4,60c-5.2-2.6-10.4-2.6-15.6-2.6c-5.4,0.2-10.6,2.4-14.4,6.6L312.6,1118.7z M331,833.1c0,39.2,31.2,60,73,77
	c10-48,28.2-93.8,53.4-135.6c-13.8-6.6-29-10.2-44.4-10.4C367.4,764.1,331,788.9,331,833.1L331,833.1z M445.8,1010.5v23.6
	c0,71.8,10.4,138.2,31.4,194.4c47-7.8,84.8-43,84.8-95.2C561.8,1064.1,507,1035.3,445.8,1010.5L445.8,1010.5z M713.2,1429.3v-336.6
	c-43-5.2-75.6-39.2-75.6-86c0-44.4,27.4-78.2,75.6-101.8v-266c-91.2,6.6-165.6,62.6-212.6,151.4c9.2,4,17,7.8,26,7.8
	c13,0,24.8-7.8,27.4-32.6h7.8l4,157.8H558c-7.8-49.6-31.2-92.6-62.6-122.6c-19.6,40.8-33.2,84.4-40.4,129.2
	c69.2,26,140.8,61.2,140.8,164.4c0,87.4-54.8,133-116,142.2C521.4,1347.1,602.2,1418.7,713.2,1429.3L713.2,1429.3z M556.6,880.1
	l-2.6-84.8c-5.2,9.2-17,11.8-24.8,11.8c-6.6-0.2-13.2-1-19.6-2.6C521.4,813.5,544.8,844.9,556.6,880.1z M547.4,809.7l2.6,39.2
	c-5.2-17-15.6-30-22.2-35.2c2,1,4.2,1.4,6.6,1.2C539.2,814.5,543.8,812.7,547.4,809.7z M775.8,1069.3c-5.2,0-10.4,1.4-15.6,1.4
	c-50.8,1.4-78.2-28.6-78.2-83.4c0-27.4,7.8-50.8,22.2-67.8c-38,20.6-57.6,50.6-57.6,87.2c0,45.6,32.6,78.2,78.2,78.2
	C743,1084.9,760.8,1079.5,775.8,1069.3z M731.4,1075.7h-6.6c-40.4,0-69.2-28.6-69.2-69.2c0-20.8,7.8-39.2,23.4-58.8
	c-4.6,12.6-6.8,25.8-6.6,39.2C672.6,1037.9,691,1065.3,731.4,1075.7L731.4,1075.7z M713.2,921.7c-14.4,15.6-22.2,36.6-22.2,65.2
	c0,26,6.6,48.2,22.2,61.4V921.7z M761.4,630.9c103,10.4,138.2,71.8,174.8,71.8c15.6,0,24.8-15.6,31.2-53.4h7.8v236.2
	c13,7.8,20.8,22.2,20.8,39.2c0,19.6-14.4,34-36.6,34c-22.2,0-36.6-14.4-36.6-34c0-19.6,14.4-34,36.6-34c3.6-0.2,7,0.2,10.4,1.2
	c-6.6-6.6-15.6-9.2-28.6-9.2c-28.8,0-58.8,14.4-79.6,67.8c10.4,15.6,20.8,28.6,28.8,39.2h121.4c12.2-0.2,24.4-1,36.6-2.6
	c4-122.6,91.4-211.4,189.2-219.2c-1.2-125.2-101.8-216.6-238.8-216.6H842.2C788.8,551.3,764,576.1,761.4,630.9L761.4,630.9z
	 M774.4,885.3c-8.2-19.4-12.8-40.2-13-61.2c0-41.8,24.8-64,56-64c32.6,0,54.8,20.8,54.8,50.8c0,28.8-20.8,50.8-56,67.8
	c10.4,19.6,23.4,39.2,36.6,58.6c2.6,2.6,4,6.6,6.6,9.2c13-45.6,45.6-71.8,82.2-71.8c8.6-0.4,17,1.4,24.8,5.2
	c-18.2-146-100.4-228.2-204.8-241.4v249.2C765.2,886.7,769.2,886.7,774.4,885.3L774.4,885.3z M761.4,989.5h64
	c-0.4-2-1.2-3.8-2.6-5.2c-19.6-32.6-35.2-64-45.6-92.6l-15.6,4L761.4,989.5z M1264.8,1249.3h-7.8c-116,0-204.8-100.4-208.6-245.2
	c-22.4-4.2-45-6.4-67.8-6.6h-83.4c36.6,43,57.4,52.2,74.4,52.2c17,0,30-9.2,43-41.8l4,1.4c-18.2,54.8-37.8,79.6-70.4,79.6
	c-37.8,0-77-31.4-109.6-79.6c-20.8,37.8-47,65.2-77,77v343c65.2-10.4,163-60,163-207.4c0-61.4-7.8-104.4-53.4-104.4h-34v-7.8H1068
	v7.8h-34c-39.2,0-57.4,36.6-57.4,97.8c0,61.2,2.6,107,32.6,144.8l-5.2,4c-14.4-20.8-31.2-37.8-50.8-37.8
	c-48.2,0-82.2,97.8-190.4,110.8c4,54.8,24.8,79.6,64,79.6H1012c147.4,0,253-108.2,253-258.2L1264.8,1249.3z M835.8,1004.1
	c-2.2-1.8-3.8-4-5.2-6.6h-69.2v64C788.8,1060.1,807,1048.3,835.8,1004.1z M948,1079.7c17,0,28.8-6.6,40.4-24.8c-5.2,2.8-11,4-17,4
	c-34,0-71.8-35.2-126.6-116c-31.2-47-61.2-96.6-61.2-140.8c0-9.2,1.2-17,5.2-23.4c-11.8,9.2-18.2,24.8-18.2,45.6
	c0,36.6,19.6,86,60,155.2C868.4,1044.5,911.4,1079.7,948,1079.7L948,1079.7z M838.4,974.1c-39.2-67.8-52.2-99.2-60-143.4
	c14.4,47,36.6,83.4,58.8,117.4c53.4,79.6,92.6,114.8,130.4,118.6c-6.2,2.6-12.8,4-19.6,4C914,1070.5,873.6,1035.3,838.4,974.1z
	 M813.6,872.3c19.6-15.6,31.2-30,31.2-57.4c0-27.4-11.8-47-28.6-47c-18.2,0-23.4,23.4-23.4,34C792.6,824.1,800.4,847.5,813.6,872.3
	L813.6,872.3z M854,814.9c0,13-2.6,23.4-7.8,32.6c11.8-10.4,17-22.2,17-36.6c0-15.6-6.6-27.4-18.2-35.2
	C851,787.9,854,801.3,854,814.9L854,814.9z M988.4,924.5c0-15.6-11.8-26-28.8-26c-17,0-28.8,10.4-28.8,26c0,15.6,11.8,26,28.8,26
	C976.6,950.5,988.4,940.1,988.4,924.5z M941.4,924.5c0-9.2,6.6-17,18.2-17c11.6,0,18.2,7.8,18.2,17c0,9.2-6.6,17-18.2,17
	C948,941.5,941.4,933.7,941.4,924.5z M1109.6,994.9c0-84.8,22.2-152.6,58.6-193c-64,35.2-107,108.2-107,193
	c0,104.4,44.4,185.2,113.4,221.8C1133.2,1172.3,1109.6,1094.1,1109.6,994.9L1109.6,994.9z M1074.4,994.9c0-50.8,15.6-97.8,44.4-133
	c-14.4,37.8-22.2,82.2-22.2,133c0,61.4,9.2,116,24.8,159.2C1091.4,1113.5,1074.4,1058.7,1074.4,994.9L1074.4,994.9z M1237.4,775.9
	c-64,11.8-107,83.4-113.4,187.8C1191.8,929.7,1236.2,860.5,1237.4,775.9L1237.4,775.9z M1124,1030.1
	c7.8,125.2,57.4,211.4,135.6,211.4h5.2C1258.4,1147.5,1204.8,1070.5,1124,1030.1z M1308,893.1c50.8,0,79.6,44.4,79.6,101.8
	c0,54.8-28.6,96.6-79.6,96.6c-52.2,0-80.8-41.8-80.8-96.6C1227,937.5,1255.8,893.1,1308,893.1L1308,893.1z M1276.6,1075.7
	c-10.4-15.6-15.6-43-15.6-80.8c0-39.2,5.2-69.2,17-86c-26,14.4-41.8,44.4-41.8,86C1236.2,1034.1,1251.8,1064.1,1276.6,1075.7z
	 M1258.4,937.5c-4,15.6-5.2,35.2-5.2,57.4c0,20.8,1.4,39.2,5.2,53.4c-9.2-14.4-14.4-32.6-14.4-53.4
	C1244,972.7,1249.2,953.1,1258.4,937.5z M1308,900.9c-26,0-37.8,37.8-37.8,94c0,54.8,11.8,88.8,37.8,88.8s37.8-34,37.8-88.8
	C1345.8,938.9,1334,900.9,1308,900.9L1308,900.9z M1338,910.1c11.8,17,17,45.6,17,84.8c0,37.8-5.2,64-15.6,80.8
	c24.8-13,39.2-41.8,39.2-80.8C1378.4,953.1,1364,923.1,1338,910.1L1338,910.1z M1362.6,994.9c0-22.2-1.4-40.4-5.2-54.8
	c9.2,13,13,32.6,13,54.8c0,19.6-4,37.8-11.8,50.8C1361.6,1028.9,1362.8,1011.9,1362.6,994.9L1362.6,994.9z M1374.4,824.1
	c11.8,13,20.8,28.8,28.6,44.4l-1.2-52.4c-6.6,5.4-15,8.2-23.4,8H1374.4z M1396.6,825.5l1.4,20.8c-2-6.4-5.6-12.2-10.4-17
	C1391,829.1,1394.2,827.7,1396.6,825.5L1396.6,825.5z"/>
<g>
	<polygon class="st0" points="2055,766.9 2055,769.9 2135.8,769.9 2135.8,737.2 2132.5,737.2 2132.5,766.9 2076.8,766.9 
		2076.8,673.4 2095.8,673.4 2095.8,670.3 2055,670.3 2055,673.4 2073.7,673.4 2073.7,766.9 	"/>
	<polygon class="st0" points="2149.4,673.4 2168.1,673.4 2168.1,766.9 2149.4,766.9 2149.4,769.9 2189.9,769.9 2189.9,766.9 
		2171.2,766.9 2171.2,673.4 2189.9,673.4 2189.9,670.3 2149.4,670.3 	"/>
	<path class="st0" d="M2255.3,672.6c23,0,38.8,12.7,43.3,36.8h3.2v-39.1h-3.2v30.1h-0.3c-4.8-18.3-19.3-31.1-43-31.1
		c-30.3,0-50.1,20.9-50.1,50.6c0,30.1,20.7,51.1,49.1,51.1c21.3,0,38.4-12.8,45-33l0.9,31.9h2.2v-43.3h12.8v-3.2h-52.6v3.2h36.4v0.3
		c-3.6,24.8-21.3,40.8-44.8,40.8c-26.5,0-45.8-19.6-45.8-47.8C2208.7,691.9,2227,672.6,2255.3,672.6z"/>
	<polygon class="st0" points="2327.6,766.9 2327.6,769.9 2368.1,769.9 2368.1,766.9 2349.5,766.9 2349.5,721.2 2420.2,721.2 
		2420.2,766.9 2401.5,766.9 2401.5,769.9 2442,769.9 2442,766.9 2423.5,766.9 2423.5,673.4 2442,673.4 2442,670.3 2401.5,670.3 
		2401.5,673.4 2420.2,673.4 2420.2,718.1 2349.5,718.1 2349.5,673.4 2368.1,673.4 2368.1,670.3 2327.6,670.3 2327.6,673.4 
		2346.3,673.4 2346.3,766.9 	"/>
	<polygon class="st0" points="2546.7,699.3 2546.7,670.3 2455.6,670.3 2455.6,699.3 2459,699.3 2459,673.4 2499.5,673.4 
		2499.5,766.9 2480.8,766.9 2480.8,769.9 2521.3,769.9 2521.3,766.9 2502.8,766.9 2502.8,673.4 2543.4,673.4 2543.4,699.3 	"/>
	<path class="st0" d="M2651.9,766.9h-27.8l13.6-31.9h52.2l13.6,31.9h-27.8v3h42.6v-3h-11.3l-41.2-96.5h-4l-41.2,96.5h-11.3v3h42.4
		V766.9z M2663.5,674.3h0.5l24.5,57.6H2639L2663.5,674.3z"/>
	<polygon class="st0" points="2732.9,766.9 2732.9,769.9 2773.2,769.9 2773.2,766.9 2754.6,766.9 2754.6,673.9 2755.3,673.9 
		2825.2,769.9 2829.7,769.9 2829.7,673.4 2848.4,673.4 2848.4,670.3 2806.4,670.3 2806.4,673.4 2826.7,673.4 2826.7,765.5 
		2826,765.5 2756.6,670.3 2732.9,670.3 2732.9,673.3 2751.6,673.3 2751.6,766.9 	"/>
	<path class="st0" d="M2860.5,670.3v3h18.7v93.5h-18.7v3h47.9c31.9,0,52.4-20.5,52.4-50.1c0-29.1-20.5-49.5-52.4-49.5H2860.5z
		 M2957.5,719.9c0,27.7-19.1,47-49,47h-26.1v-93.5h26.1C2938.4,673.4,2957.5,692.5,2957.5,719.9z"/>
	<path class="st0" d="M3084.3,670.3h-4l-41.2,96.5h-11.3v3h42.4v-3h-27.8l13.6-31.9h52.2l13.6,31.9h-27.8v3h42.6v-3h-11.3
		L3084.3,670.3z M3057.4,731.9l24.5-57.6h0.5l24.5,57.6H3057.4z"/>
	<polygon class="st0" points="3151.3,766.9 3151.3,769.9 3191.8,769.9 3191.8,766.9 3173.2,766.9 3173.2,673.4 3191.8,673.4 
		3191.8,670.3 3151.3,670.3 3151.3,673.4 3170,673.4 3170,766.9 	"/>
	<path class="st0" d="M3207.8,766.9v3h40.5v-3h-18.7v-45.7h35.1c6.6,0,9.8,2.3,12.2,9.1l13.8,39.6h14.4v-3h-11.8l-13.6-38.4
		c-1.6-4.5-3.8-7.4-8.1-8.6c14.2-2,24.5-11.7,24.5-25.4c0-14.6-11.3-24.1-33.8-24.1h-54.6v3h18.7v93.5H3207.8z M3229.7,673.4h32.6
		c20.1,0,30.6,8.3,30.6,21.3c0,13.4-10.7,23.4-30.7,23.4h-32.4V673.4z"/>
	<polygon class="st0" points="3388.8,673.4 3412.7,673.4 3374.8,720.8 3374.3,720.8 3336.3,673.4 3359.7,673.4 3359.7,670.3 
		3319.5,670.3 3319.5,673.4 3332.2,673.4 3372.7,724 3372.7,766.9 3354,766.9 3354,769.9 3394.5,769.9 3394.5,766.9 3376,766.9 
		3376,724 3416.4,673.4 3429.1,673.4 3429.1,670.3 3388.8,670.3 	"/>
	<path class="st0" d="M2107.8,499.4c23.8,0,40.7,13,45.2,38.4h1.6v-39.1h-1.6v33h-0.1c-4.9-20.8-20.8-34-45-34
		c-30.1,0-49.5,20.9-49.5,50.6c0,30.1,20.7,51.1,49.3,51.1c24.6,0,43-16,47.8-40.1l-1.7-0.4c-4.5,23.4-22.4,38.8-46.1,38.8
		c-27.5,0-47.4-20.3-47.4-49.4C2060.2,519.5,2078.7,499.4,2107.8,499.4z"/>
	<path class="st0" d="M2221.3,599.2c29.8,0,50.3-20.9,50.3-51c0-29.7-20.5-50.5-50.3-50.5c-29.7,0-50.2,20.8-50.2,50.5
		C2171.1,578.3,2191.6,599.2,2221.3,599.2z M2221.3,499.4c28.9,0,48.6,20.1,48.6,48.9c0,29.1-19.7,49.4-48.6,49.4
		c-28.7,0-48.6-20.3-48.6-49.4C2172.7,519.5,2192.6,499.4,2221.3,499.4z"/>
	<polygon class="st0" points="2283.9,500.2 2303.2,500.2 2303.2,596.7 2283.9,596.7 2283.9,598.3 2324,598.3 2324,596.7 
		2304.8,596.7 2304.8,500.4 2305.2,500.4 2378.3,598.3 2380.6,598.3 2380.6,500.3 2399.8,500.3 2399.8,498.7 2357.9,498.7 
		2357.9,500.3 2379.1,500.3 2379.1,596.3 2378.7,596.3 2305.9,498.7 2283.9,498.7 	"/>
	<polygon class="st0" points="2408.1,527 2409.7,527 2409.7,500.3 2452.5,500.3 2452.5,596.7 2433.1,596.7 2433.1,598.3 
		2473.3,598.3 2473.3,596.7 2454.1,596.7 2454.1,500.3 2496.8,500.3 2496.8,527 2498.4,527 2498.4,498.7 2408.1,498.7 	"/>
	<path class="st0" d="M2508.5,500.3h19.3v96.4h-19.3v1.6h40.4v-1.6h-19.3v-47.9h37.3c6.6,0,9.9,2.2,12.3,9.1l14,40.4h13.4v-1.6
		h-12.2l-13.8-39.6c-1.9-5.3-4.1-8.3-10.1-9.1c15.1-1.5,26.5-11.3,26.5-25.4c0-14.3-11.3-23.8-33.8-23.8h-54.8V500.3z M2529.5,500.3
		h33.8c21.3,0,32.2,8.9,32.2,22.2c0,13.8-11.4,24.8-32.3,24.8h-33.6V500.3z"/>
	<path class="st0" d="M2686.3,598.3h42.5v-1.6h-11.5l-42.2-98h-2.1l-42.1,98h-11.7v1.6h42.5v-1.6h-29.1l14.7-34.2h53.5l14.7,34.2
		h-29.1V598.3z M2647.9,561.1l26-60.4h0.3l26,60.4H2647.9z"/>
	<path class="st0" d="M2743.6,571.3h0.1c3,17.9,16.4,28.3,38.9,28.3c20.3,0,31.5-9.3,31.5-25.8c0-15.8-9.9-23.6-35.6-27.8
		c-25.8-4.2-34.6-10.6-34.6-24c0-15,11.3-23.2,29.7-23.2c20.8,0,32.2,10.2,35.2,30.1h1.6v-30.2h-1.6v26.7h-0.1
		c-2.9-17.5-13.9-28.1-35.2-28.1c-19.3,0-31.1,8.7-31.1,24.6c0,14.4,9.5,21.3,35.9,25.7c25,4.1,34.2,11.3,34.2,26.2
		c0,15.5-10.6,24.2-29.9,24.2c-22.5,0-36.1-10.6-38.9-30.1h-1.6v30.2h1.6V571.3z"/>
	<polygon class="st0" points="2826.4,527 2828,527 2828,500.3 2870.7,500.3 2870.7,596.7 2851.4,596.7 2851.4,598.3 2891.5,598.3 
		2891.5,596.7 2872.3,596.7 2872.3,500.3 2915.1,500.3 2915.1,527 2916.7,527 2916.7,498.7 2826.4,498.7 	"/>
	<polygon class="st0" points="2926.7,596.7 2926.7,598.3 2967.1,598.3 2967.1,596.7 2947.8,596.7 2947.8,500.3 2967.1,500.3 
		2967.1,498.7 2926.7,498.7 2926.7,500.3 2946.1,500.3 2946.1,596.7 	"/>
	<polygon class="st0" points="3019.2,596.7 3000,596.7 3000,500.4 3000.4,500.4 3073.5,598.3 3075.7,598.3 3075.7,500.3 
		3094.9,500.3 3094.9,498.7 3053.1,498.7 3053.1,500.3 3074.3,500.3 3074.3,596.3 3073.9,596.3 3001,498.7 2979,498.7 2979,500.2 
		2998.4,500.2 2998.4,596.7 2979,596.7 2979,598.3 3019.2,598.3 	"/>
	<path class="st0" d="M3157,497.6c-30.3,0-50.1,20.9-50.1,50.6c0,30.1,20.7,51.1,49.1,51.1c23.2,0,41.2-15.2,46.3-38.4l0.4,37.3h1.2
		v-44.4h12.6v-1.6h-52.3v1.6h38.1c-3,26.3-21.8,43.7-46.2,43.7c-27.5,0-47.4-20.3-47.4-49.4c0-28.7,18.8-48.9,48.2-48.9
		c23.8,0,40.1,13,44.6,38.4h1.6v-39.1h-1.6v33h-0.1C3196.6,511.1,3181.5,497.6,3157,497.6z"/>
	<polygon class="st0" points="3225.7,596.7 3225.7,598.3 3306.4,598.3 3306.4,565.7 3304.8,565.7 3304.8,596.7 3246.8,596.7 
		3246.8,500.3 3266.1,500.3 3266.1,498.7 3225.7,498.7 3225.7,500.3 3245,500.3 3245,596.7 	"/>
	<polygon class="st0" points="3388.3,500.3 3413.3,500.3 3372.8,550.2 3372.7,550.2 3332.2,500.3 3356.9,500.3 3356.9,498.7 
		3316.5,498.7 3316.5,500.3 3330.1,500.3 3371.9,551.8 3371.9,596.7 3352.6,596.7 3352.6,598.3 3392.7,598.3 3392.7,596.7 
		3373.5,596.7 3373.5,551.8 3415.2,500.3 3428.7,500.3 3428.7,498.7 3388.3,498.7 	"/>
	<polygon class="st0" points="2094.8,426 2075.2,426 2075.2,376.7 2150.2,376.7 2150.2,426 2130.5,426 2130.5,426.6 2170.5,426.6 
		2170.5,426 2150.9,426 2150.9,327.7 2170.5,327.7 2170.5,327.1 2130.5,327.1 2130.5,327.7 2150.2,327.7 2150.2,376.1 2075.2,376.1 
		2075.2,327.7 2094.8,327.7 2094.8,327.1 2054.9,327.1 2054.9,327.7 2074.6,327.7 2074.6,426 2054.9,426 2054.9,426.6 2094.8,426.6 
			"/>
	<path class="st0" d="M2226.3,426h-29.9l15.4-35.5h54.3l15.4,35.5h-29.9v0.7h42.5V426h-11.8l-42.8-98.9h-1.1l-42.8,98.9h-11.8v0.7
		h42.5V426z M2238.8,327.9h0.3l26.7,62H2212L2238.8,327.9z"/>
	<polygon class="st0" points="2347.5,426 2327.7,426 2327.7,327.7 2347.5,327.7 2347.5,327.1 2307.4,327.1 2307.4,327.7 
		2327.1,327.7 2327.1,426 2307.4,426 2307.4,426.6 2347.5,426.6 	"/>
	<path class="st0" d="M2401.1,426h-19.7v-49.3h38.8c6.6,0,9.9,2.3,12.3,9.1l14.2,40.8h12.7V426h-12.2l-14-40.4
		c-2-5.7-4.1-8.7-11-9.3v-0.1c15.4-1.2,27.5-11,27.5-25.6c0-14-11.3-23.6-33.8-23.6h-55v0.7h19.7V426H2361v0.7h40.1V426z
		 M2381.4,327.7h34.6c22.1,0,33.1,9.3,33.1,22.9c0,14-11.7,25.4-33.2,25.4h-34.4V327.7z"/>
	<polygon class="st0" points="2553.2,394.2 2552.6,394.2 2552.6,426 2493.1,426 2493.1,327.7 2512.8,327.7 2512.8,327.1 
		2472.7,327.1 2472.7,327.7 2492.5,327.7 2492.5,426 2472.7,426 2472.7,426.6 2553.2,426.6 	"/>
	<polygon class="st0" points="2605.1,426 2585.4,426 2585.4,327.7 2605.1,327.7 2605.1,327.1 2565,327.1 2565,327.7 2584.7,327.7 
		2584.7,426 2565,426 2565,426.6 2605.1,426.6 	"/>
	<polygon class="st0" points="2658.6,426 2639,426 2639,327.7 2639.3,327.7 2714.1,426.6 2715.2,426.6 2715.2,327.7 2734.8,327.7 
		2734.8,327.1 2692.8,327.1 2692.8,327.7 2714.5,327.7 2714.5,426 2714.4,426 2639.6,327.1 2618.6,327.1 2618.6,327.6 2638.4,327.6 
		2638.4,426 2618.6,426 2618.6,426.6 2658.6,426.6 	"/>
	<polygon class="st0" points="2836.5,401.9 2835.8,401.9 2835.8,426 2765.3,426 2765.3,376.7 2810.1,376.7 2810.1,376.1 
		2765.3,376.1 2765.3,327.7 2834.6,327.7 2834.6,351.8 2835.3,351.8 2835.3,327.1 2745,327.1 2745,327.7 2764.7,327.7 2764.7,426 
		2745,426 2745,426.6 2836.5,426.6 	"/>
	<path class="st0" d="M2900.7,399.1h0.1c3,18.1,16.7,28.9,39.6,28.9c20.3,0,31.4-9.1,31.4-25.6c0-15.6-9.9-23.3-35.5-27.5
		c-26.5-4.4-35.2-10.9-35.2-24.6c0-15.5,11.5-23.8,30.5-23.8c21.3,0,32.8,10.3,35.9,30.9h0.7v-30.2h-0.7v27.3h-0.1
		c-2.9-17.7-14-28.6-35.8-28.6c-19.3,0-31.1,8.6-31.1,24.5c0,14.3,9.4,20.9,35.8,25.3c25.6,4.2,35,11.7,35,26.9
		c0,16-10.9,24.9-30.7,24.9c-23,0-36.9-10.7-39.7-30.9h-0.7v30.2h0.7V399.1z"/>
	<polygon class="st0" points="3077.4,401.9 3076.8,401.9 3076.8,426 3006.3,426 3006.3,376.7 3051.1,376.7 3051.1,376.1 
		3006.3,376.1 3006.3,327.7 3075.6,327.7 3075.6,351.8 3076.2,351.8 3076.2,327.1 2985.9,327.1 2985.9,327.7 3005.7,327.7 
		3005.7,426 2985.9,426 2985.9,426.6 3077.4,426.6 	"/>
	<path class="st0" d="M3131.2,426h-19.7v-49.3h38.8c6.6,0,9.9,2.3,12.3,9.1l14.2,40.8h12.7V426h-12.2l-14-40.4
		c-2-5.7-4.1-8.7-11-9.3v-0.1c15.4-1.2,27.5-11,27.5-25.6c0-14-11.3-23.6-33.8-23.6h-55v0.7h19.7V426h-19.7v0.7h40.1V426z
		 M3111.4,327.7h34.6c22.1,0,33.1,9.3,33.1,22.9c0,14-11.7,25.4-33.2,25.4h-34.4V327.7z"/>
	<polygon class="st0" points="3242.9,426 3223.2,426 3223.2,327.7 3242.9,327.7 3242.9,327.1 3202.8,327.1 3202.8,327.7 
		3222.5,327.7 3222.5,426 3202.8,426 3202.8,426.6 3242.9,426.6 	"/>
	<polygon class="st0" points="3298.4,426 3276.8,426 3276.8,376.7 3319.3,376.7 3319.3,376.1 3276.8,376.1 3276.8,327.7 
		3341.8,327.7 3341.8,351.8 3342.5,351.8 3342.5,327.1 3256.4,327.1 3256.4,327.7 3276.2,327.7 3276.2,426 3256.4,426 3256.4,426.6 
		3298.4,426.6 	"/>
	<path class="st0" d="M3356.5,399.1h0.1c3,18.1,16.7,28.9,39.6,28.9c20.3,0,31.4-9.1,31.4-25.6c0-15.6-9.9-23.3-35.5-27.5
		c-26.5-4.4-35.2-10.9-35.2-24.6c0-15.5,11.5-23.8,30.5-23.8c21.3,0,32.8,10.3,35.9,30.9h0.7v-30.2h-0.7v27.3h-0.1
		c-2.9-17.7-14-28.6-35.8-28.6c-19.3,0-31.1,8.6-31.1,24.5c0,14.3,9.4,20.9,35.8,25.3c25.6,4.2,35,11.7,35,26.9
		c0,16-10.9,24.9-30.7,24.9c-23,0-36.9-10.7-39.7-30.9h-0.7v30.2h0.7V399.1z"/>
	<path class="st0" d="M2107.8,846.7c21.7,0,37.2,12.2,41.6,34.3h6V842h-6v29.4h-0.4c-4.2-18.4-18.4-30.6-41.3-30.6
		c-29.7,0-49.7,20.9-49.7,50.7c0,30.1,20.8,51.2,49.7,51.2c24.8,0,43.3-15.6,48.1-39.3l-6.2-1.3c-4.1,20.9-20.3,34.7-41.8,34.7
		c-25.2,0-43.2-18.5-43.2-45.3C2064.5,865.1,2081.7,846.7,2107.8,846.7z"/>
	<path class="st0" d="M2172.3,891.5c0,30.2,20.8,51.2,50.8,51.2c30.1,0,50.8-21.1,50.8-51.2c0-29.8-20.8-50.7-50.8-50.7
		C2193.1,840.8,2172.3,861.7,2172.3,891.5z M2223.1,846.7c26.4,0,44.5,18.3,44.5,44.8c0,26.7-18.1,45.3-44.5,45.3
		c-26.4,0-44.4-18.5-44.4-45.3C2178.8,865,2196.8,846.7,2223.1,846.7z"/>
	<polygon class="st0" points="2376.9,933.3 2312.9,842 2286.2,842 2286.2,847.4 2303.8,847.4 2303.8,936 2286.2,936 2286.2,941.6 
		2327,941.6 2327,936 2309.5,936 2309.5,848.5 2310.1,848.5 2375.3,941.6 2383.5,941.6 2383.5,847.5 2401,847.5 2401,842 
		2359.1,842 2359.1,847.5 2377.8,847.5 2377.8,933.3 	"/>
	<polygon class="st0" points="2502.9,872.2 2502.9,842 2410.6,842 2410.6,872.2 2416.6,872.2 2416.6,847.5 2453.7,847.5 2453.7,936 
		2436.2,936 2436.2,941.6 2477.2,941.6 2477.2,936 2459.8,936 2459.8,847.5 2496.8,847.5 2496.8,872.2 	"/>
	<polygon class="st0" points="2600.8,936 2537.9,936 2537.9,894 2580.4,894 2580.4,888.6 2537.9,888.6 2537.9,847.5 2599.6,847.5 
		2599.6,869 2605.5,869 2605.5,842 2514.2,842 2514.2,847.5 2531.8,847.5 2531.8,936 2514.2,936 2514.2,941.6 2606.7,941.6 
		2606.7,914.5 2600.8,914.5 	"/>
	<polygon class="st0" points="2621,936 2621,941.6 2662.3,941.6 2662.3,936 2644.3,936 2644.3,847.5 2644.9,847.5 2685.1,941.6 
		2691.7,941.6 2732.3,847.5 2732.8,847.5 2732.8,936 2714.6,936 2714.6,941.6 2756.4,941.6 2756.4,936 2738.7,936 2738.7,847.5 
		2756.4,847.5 2756.4,842 2728.3,842 2728.3,842.1 2728.1,842 2688.7,933.9 2649.4,842 2649.2,842.1 2649.2,842 2621,842 
		2621,847.5 2638.6,847.5 2638.6,936 	"/>
	<path class="st0" d="M2811.8,936h-17.5v-42h30.1c25.4,0,34.4-12.3,34.4-26.2c0-16.2-11.4-25.8-34-25.8h-54.2v5.6h17.6V936h-17.6
		v5.6h41.2V936z M2794.3,847.5h30.2c18.3,0,28.1,7.2,28.1,20.5c0,13.1-9.4,20.5-27.9,20.5h-30.3V847.5z"/>
	<path class="st0" d="M2925.6,840.8c-30.1,0-50.8,20.9-50.8,50.7c0,30.2,20.8,51.2,50.8,51.2s50.8-21.1,50.8-51.2
		C2976.4,861.7,2955.6,840.8,2925.6,840.8z M2925.6,936.8c-26.4,0-44.4-18.5-44.4-45.3c0-26.5,18-44.8,44.4-44.8
		s44.5,18.3,44.5,44.8C2970.1,918.2,2951.9,936.8,2925.6,936.8z"/>
	<path class="st0" d="M2988.6,936v5.6h41.2V936h-17.5v-42h30.9c6.6,0,9.8,2.2,12.2,9.1l13.2,38.4h16.4V936h-11.4l-13.4-36.3
		c-1.3-3.6-3.3-6.2-6.2-7.8c13.5-2.5,22.8-12.1,22.8-25.2c0-15.1-11.4-24.8-34-24.8h-54.2v5.6h17.6V936H2988.6z M3012.3,847.5h30.2
		c18.3,0,28.1,7.3,28.1,19.6c0,12.7-9.8,21.5-28.2,21.5h-30.1V847.5z"/>
	<path class="st0" d="M3108.4,936h-10.6v5.6h42.2V936h-25.6l11.8-28.2h49.9l11.9,28.2h-25.6v5.6h42.6V936h-10.6l-39.5-94h-7.3
		L3108.4,936z M3151.6,849.3l22.4,53.1h-45.3l22.2-53.1H3151.6z"/>
	<path class="st0" d="M3271.4,894c6.6,0,9.8,2.2,12.2,9.1l13.2,38.4h16.4V936h-11.4l-13.4-36.3c-1.3-3.6-3.3-6.2-6.2-7.8
		c13.5-2.5,22.8-12.1,22.8-25.2c0-15.1-11.4-24.8-34-24.8h-54.2v5.6h17.6V936h-17.6v5.6h41.2V936h-17.5v-42H3271.4z M3240.6,847.5
		h30.2c18.3,0,28.1,7.3,28.1,19.6c0,12.7-9.8,21.5-28.2,21.5h-30.1V847.5z"/>
	<polygon class="st0" points="3372.8,896.5 3372.8,936 3355.2,936 3355.2,941.6 3396.4,941.6 3396.4,936 3378.8,936 3378.8,896.5 
		3417.3,847.5 3428.4,847.5 3428.4,842 3388.3,842 3388.3,847.5 3410.4,847.5 3376.5,890.8 3375.9,890.8 3342,847.5 3363.3,847.5 
		3363.3,842 3323,842 3323,847.5 3334.3,847.5 	"/>
	<polygon class="st0" points="2081.1,1024.3 2139.6,1113.2 2153,1113.2 2153,1022.6 2169,1022.6 2169,1013.6 2127.2,1013.6 
		2127.2,1022.6 2143.7,1022.6 2143.7,1099.7 2142.8,1099.7 2086,1013.6 2055.1,1013.6 2055.1,1022.6 2071.1,1022.6 2071.1,1104.2 
		2055.1,1104.2 2055.1,1113.2 2096.4,1113.2 2096.4,1104.2 2080.4,1104.2 2080.4,1024.3 	"/>
	<polygon class="st0" points="2222,1022.6 2222,1013.6 2180,1013.6 2180,1022.6 2196,1022.6 2196,1104.2 2180,1104.2 2180,1113.2 
		2222,1113.2 2222,1104.2 2205.9,1104.2 2205.9,1022.6 	"/>
	<polygon class="st0" points="2238,1104.2 2238,1113.2 2279.3,1113.2 2279.3,1104.2 2263.3,1104.2 2263.3,1024.3 2263.9,1024.3 
		2322.4,1113.2 2335.8,1113.2 2335.8,1022.6 2351.8,1022.6 2351.8,1013.6 2310,1013.6 2310,1022.6 2326.6,1022.6 2326.6,1099.7 
		2325.6,1099.7 2268.8,1013.6 2238,1013.6 2238,1022.6 2254,1022.6 2254,1104.2 	"/>
	<polygon class="st0" points="2456.2,1084.6 2446.2,1084.6 2446.2,1104.2 2388.8,1104.2 2388.8,1067.4 2429.7,1067.4 2429.7,1058.6 
		2388.8,1058.6 2388.8,1022.6 2445.1,1022.6 2445.1,1042.2 2455,1042.2 2455,1013.6 2362.8,1013.6 2362.8,1022.6 2378.8,1022.6 
		2378.8,1104.2 2362.8,1104.2 2362.8,1113.2 2456.2,1113.2 	"/>
	<path class="st0" d="M2518,1104.2v9h48.5c31.1,0,51.9-20.5,51.9-50.1c0-29.1-20.8-49.5-51.9-49.5H2518v9h16v81.6H2518z
		 M2544,1022.6h22.5c24.9,0,41.4,16.6,41.4,40.5c0,24.2-16.6,41-41.4,41H2544V1022.6z"/>
	<polygon class="st0" points="2630.3,1104.2 2630.3,1113.2 2672.3,1113.2 2672.3,1104.2 2656.2,1104.2 2656.2,1022.6 2672.3,1022.6 
		2672.3,1013.6 2630.3,1013.6 2630.3,1022.6 2646.3,1022.6 2646.3,1104.2 	"/>
	<polygon class="st0" points="2775.3,1042.2 2775.3,1013.6 2688.3,1013.6 2688.3,1022.6 2704.3,1022.6 2704.3,1104.2 2688.3,1104.2 
		2688.3,1113.2 2733.4,1113.2 2733.4,1104.2 2714.2,1104.2 2714.2,1067.4 2750.3,1067.4 2750.3,1058.6 2714.2,1058.6 2714.2,1022.6 
		2765.3,1022.6 2765.3,1042.2 	"/>
	<polygon class="st0" points="2874.3,1042.2 2874.3,1013.6 2787.3,1013.6 2787.3,1022.6 2803.3,1022.6 2803.3,1104.2 2787.3,1104.2 
		2787.3,1113.2 2832.5,1113.2 2832.5,1104.2 2813.3,1104.2 2813.3,1067.4 2849.3,1067.4 2849.3,1058.6 2813.3,1058.6 2813.3,1022.6 
		2864.4,1022.6 2864.4,1042.2 	"/>
	<polygon class="st0" points="2978.5,1042.2 2978.5,1013.6 2886.4,1013.6 2886.4,1022.6 2902.4,1022.6 2902.4,1104.2 2886.4,1104.2 
		2886.4,1113.2 2979.7,1113.2 2979.7,1084.6 2969.8,1084.6 2969.8,1104.2 2912.3,1104.2 2912.3,1067.4 2953.2,1067.4 2953.2,1058.6 
		2912.3,1058.6 2912.3,1022.6 2968.6,1022.6 2968.6,1042.2 	"/>
	<path class="st0" d="M3090.5,1104.2h-10.9l-12.7-33.4c-1.1-2.6-2.6-4.8-4.8-6.4c13-2.8,21.1-12.6,21.1-25.3
		c0-15.9-11.4-25.6-34.2-25.6h-53.5v9h16v81.6h-16v9h42v-9h-16v-36.8h25.3c6.6,0,9.5,2.4,11.9,9.1l12.8,36.7h18.9V1104.2z
		 M3048.6,1058.6h-27v-36h27.1c15.4,0,24.5,5.8,24.5,17.2C3073.2,1051.6,3064.6,1058.6,3048.6,1058.6z"/>
	<polygon class="st0" points="3104.3,1104.2 3104.3,1113.2 3197.7,1113.2 3197.7,1084.6 3187.7,1084.6 3187.7,1104.2 3130.3,1104.2 
		3130.3,1067.4 3171.2,1067.4 3171.2,1058.6 3130.3,1058.6 3130.3,1022.6 3186.5,1022.6 3186.5,1042.2 3196.5,1042.2 3196.5,1013.6 
		3104.3,1013.6 3104.3,1022.6 3120.3,1022.6 3120.3,1104.2 	"/>
	<polygon class="st0" points="3254.9,1104.2 3238.8,1104.2 3238.8,1024.3 3239.5,1024.3 3298,1113.2 3311.4,1113.2 3311.4,1022.6 
		3327.4,1022.6 3327.4,1013.6 3285.6,1013.6 3285.6,1022.6 3302.1,1022.6 3302.1,1099.7 3301.2,1099.7 3244.4,1013.6 3213.5,1013.6 
		3213.5,1022.6 3229.6,1022.6 3229.6,1104.2 3213.5,1104.2 3213.5,1113.2 3254.9,1113.2 	"/>
	<polygon class="st0" points="3431.7,1045.5 3431.7,1013.6 3337.7,1013.6 3337.7,1045.5 3347.7,1045.5 3347.7,1022.6 3379.8,1022.6 
		3379.8,1104.2 3363.8,1104.2 3363.8,1113.2 3405.7,1113.2 3405.7,1104.2 3389.8,1104.2 3389.8,1022.6 3421.8,1022.6 3421.8,1045.5 
			"/>
	<path class="st0" d="M2109.3,1183.4c-30.7,0-52,21.1-52,51.2c0,30.6,21.3,51.8,52,51.8c30.9,0,52-21.2,52-51.8
		C2161.3,1204.4,2140.1,1183.4,2109.3,1183.4z M2109.3,1271.5c-21.2,0-35.8-15.1-35.8-36.8c0-21.6,14.6-36.3,35.8-36.3
		c21.3,0,35.9,14.7,35.9,36.3C2145.2,1256.4,2130.6,1271.5,2109.3,1271.5z"/>
	<path class="st0" d="M2222.5,1185h-53.2v13.6h13.9v72.6h-13.9v13.6h43.2v-13.6h-13.9V1241h23.2c29.4,0,35.9-16,35.9-28.5
		C2257.6,1195.2,2245.8,1185,2222.5,1185z M2222.2,1228h-23.7v-29.4h23.4c12.1,0,19.9,4.5,19.9,15
		C2241.8,1223.3,2234.9,1228,2222.2,1228z"/>
	<polygon class="st0" points="2363.9,1219.4 2363.9,1185 2267.4,1185 2267.4,1219.4 2282.3,1219.4 2282.3,1198.6 2308,1198.6 
		2308,1271.2 2294.1,1271.2 2294.1,1284.8 2337.3,1284.8 2337.3,1271.2 2323.4,1271.2 2323.4,1198.6 2348.9,1198.6 2348.9,1219.4 	
		"/>
	<polygon class="st0" points="2416.2,1198.6 2416.2,1185 2373,1185 2373,1198.6 2386.9,1198.6 2386.9,1271.2 2373,1271.2 
		2373,1284.8 2416.2,1284.8 2416.2,1271.2 2402.3,1271.2 2402.3,1198.6 	"/>
	<path class="st0" d="M2508.6,1212.5h-0.7c-2.8-18.5-14.3-29-34.3-29c-28.7,0-49.7,21.1-49.7,51.1c0,30.2,21.1,51.8,50.7,51.8
		c25.6,0,44.4-15.4,49.1-38.8l-15.8-3.2c-3.3,16.4-16.2,27-33.4,27c-20.3,0-34.4-15.1-34.4-36.8c0-21.5,14.2-36.1,34.6-36.1
		c17.2,0,29.9,10.2,33.8,25.8h15.4V1185h-15.4V1212.5z"/>
	<path class="st0" d="M2632.3,1271.2h-8.5l-34.4-86.2h-18.1l-34.4,86.2h-8.5v13.6h42.4v-13.6H2552l6.8-17.3h41.6l6.8,17.3h-18.4
		v13.6h43.6V1271.2z M2563.8,1241l15.2-38.5h1.1l15.2,38.5H2563.8z"/>
	<polygon class="st0" points="2723.6,1250 2708.3,1250 2708.3,1271.2 2669.6,1271.2 2669.6,1198.6 2684.2,1198.6 2684.2,1185 
		2640.3,1185 2640.3,1198.6 2654.3,1198.6 2654.3,1271.2 2640.3,1271.2 2640.3,1284.8 2723.6,1284.8 	"/>
	<polygon class="st0" points="2893.3,1284.8 2921.7,1198.6 2929.9,1198.6 2929.9,1185 2889.8,1185 2889.8,1198.6 2907.3,1198.6 
		2885,1267.1 2884.4,1267.1 2861.5,1198.6 2875.4,1198.6 2875.4,1185 2829.3,1185 2829.3,1198.6 2843.9,1198.6 2820.6,1267.1 
		2820,1267.1 2798,1198.6 2814.5,1198.6 2814.5,1185 2773.2,1185 2773.2,1198.6 2781.2,1198.6 2810.1,1284.8 2829,1284.8 
		2851.5,1217.2 2852.2,1217.2 2874.2,1284.8 	"/>
	<polygon class="st0" points="2937.9,1271.2 2937.9,1284.8 3032.8,1284.8 3032.8,1253.6 3017.4,1253.6 3017.4,1271.2 2967.1,1271.2 
		2967.1,1241 3004.9,1241 3004.9,1228 2967.1,1228 2967.1,1198.6 3016.3,1198.6 3016.3,1216.2 3031.6,1216.2 3031.6,1185 
		2937.9,1185 2937.9,1198.6 2951.8,1198.6 2951.8,1271.2 	"/>
	<polygon class="st0" points="3089.6,1198.6 3089.6,1185 3046.4,1185 3046.4,1198.6 3060.3,1198.6 3060.3,1271.2 3046.4,1271.2 
		3046.4,1284.8 3089.6,1284.8 3089.6,1271.2 3075.7,1271.2 3075.7,1198.6 	"/>
	<path class="st0" d="M3156.7,1248h25.6c-4.9,14.2-17.5,23.4-33.9,23.4c-20.5,0-34.7-15.1-34.7-36.8c0-21.5,14.2-36.1,34.6-36.1
		c17.1,0,29.9,10.1,33.6,25.8h15.4V1185h-15.4v27.4h-0.5c-2.8-18.5-14.4-28.9-34.3-28.9c-28.7,0-49.7,21.1-49.7,51.1
		c0,29.9,20.9,51.6,50.1,51.6c15,0,27.4-5.7,35.8-15.8l5,14.3h9.5V1248h13.8v-13.1h-54.8V1248z"/>
	<polygon class="st0" points="3259.9,1271.2 3246,1271.2 3246,1241 3297.6,1241 3297.6,1271.2 3283.7,1271.2 3283.7,1284.8 
		3326.9,1284.8 3326.9,1271.2 3313,1271.2 3313,1198.6 3326.9,1198.6 3326.9,1185 3283.7,1185 3283.7,1198.6 3297.6,1198.6 
		3297.6,1228 3246,1228 3246,1198.6 3259.9,1198.6 3259.9,1185 3216.7,1185 3216.7,1198.6 3230.6,1198.6 3230.6,1271.2 
		3216.7,1271.2 3216.7,1284.8 3259.9,1284.8 	"/>
	<polygon class="st0" points="3336,1185 3336,1219.4 3351,1219.4 3351,1198.6 3376.7,1198.6 3376.7,1271.2 3362.8,1271.2 
		3362.8,1284.8 3405.9,1284.8 3405.9,1271.2 3392,1271.2 3392,1198.6 3417.6,1198.6 3417.6,1219.4 3432.5,1219.4 3432.5,1185 	"/>
	<path class="st0" d="M2148.5,1428.8c0-14-7.8-21.5-22.4-24.2c12.3-3.3,18.7-10.6,18.7-22.8c0-17.1-12.8-26-34-26h-55.6v18.1h11.9
		v64.4h-11.9v18.1h60C2135.9,1456.5,2148.5,1446.4,2148.5,1428.8z M2088.5,1374h19.3c9.1,0,14.8,3.8,14.8,11.4
		c0,6.6-4,12.2-14.3,12.2h-19.9V1374z M2088.5,1438.3V1414h20.8c12.2,0,17.1,5,17.1,12c0,7.9-6.5,12.3-16.7,12.3H2088.5z"/>
	<path class="st0" d="M2206.1,1414.1c4.9,0,7,1.7,8.7,6.9l10.7,35.5h27v-18.1h-9.1l-9.8-26.4c-0.5-1.5-1.3-2.8-2.4-4.1v-0.4
		c10.9-3.8,17.2-12.2,17.2-24.2c0-17.2-12.7-27.4-37.9-27.4h-54.8v18.1h11.9v64.4h-11.9v18.1h45.2v-18.1h-11.8v-24.2H2206.1z
		 M2189.1,1374h20.9c9.9,0,16.4,3.4,16.4,11.5c0,8.2-5.8,12.3-16.6,12.3h-20.8V1374z"/>
	<path class="st0" d="M2309.5,1457.9c26.3,0,42.5-16.3,42.5-41.3V1374h11.4v-18.1h-43.2v18.1h12.6v42.8c0,13.2-8.2,21.8-22.2,21.8
		c-14,0-22-8.6-22-21.8V1374h12.6v-18.1h-45.4v18.1h11.4v42.6C2267.1,1441.6,2283.3,1457.9,2309.5,1457.9z"/>
	<path class="st0" d="M2468.5,1417.3l-22-3.7c-2.8,14.6-13.9,24.1-28.9,24.1c-17.5,0-29.7-13-29.7-31.8c0-18.4,12.2-31.1,29.8-31.1
		c14.6,0,25.6,8.3,29,21.5h21.5v-40.4h-21.5v28.2h-0.7c-2.4-19.5-13.1-29.8-32-29.8c-27.1,0-48.6,21.3-48.6,51.6
		c0,30.6,21.6,52.3,52.2,52.3C2444.5,1458.2,2464.1,1441.9,2468.5,1417.3z"/>
	<polygon class="st0" points="2575,1421.4 2553.5,1421.4 2553.5,1438.3 2510.1,1438.3 2510.1,1414 2542.1,1414 2542.1,1397.7 
		2510.1,1397.7 2510.1,1374 2552.3,1374 2552.3,1391 2573.8,1391 2573.8,1355.8 2476.7,1355.8 2476.7,1374 2488.6,1374 
		2488.6,1438.3 2476.7,1438.3 2476.7,1456.5 2575,1456.5 	"/>
	<path class="st0" d="M2732.3,1438.3h-7.8l-31.9-82.5h-26.9l-31.9,82.5h-8.1v18.1h44.6v-18.1h-15.8l5-14h36.3l5,14h-15.2v18.1h46.6
		V1438.3z M2665.5,1408l11.3-31.2h1.9l11.3,31.2H2665.5z"/>
	<polygon class="st0" points="2840,1374 2851.8,1374 2851.8,1355.8 2810,1355.8 2810,1374 2821.8,1374 2821.8,1428 2819.6,1428 
		2781.2,1355.8 2738.5,1355.8 2738.5,1374 2750.3,1374 2750.3,1438.3 2738.5,1438.3 2738.5,1456.5 2780.3,1456.5 2780.3,1438.3 
		2768.7,1438.3 2768.7,1381.8 2770.5,1381.8 2810.4,1456.5 2840,1456.5 	"/>
	<path class="st0" d="M2907.9,1355.8H2858v18.1h11.9v64.4H2858v18.1h49.9c31.8,0,53.4-20.8,53.4-50.6
		C2961.3,1376.5,2939.7,1356,2907.9,1355.8z M2907.6,1438.3h-16.2V1374h16.2c18.9,0,31.4,13,31.4,31.9
		C2938.9,1425.1,2926.5,1438.5,2907.6,1438.3z"/>
	<path class="st0" d="M3059.8,1442.3c-12.6,0-22-6.6-24-17.1h-21.5v31.3h21.5V1437h0.8c1.7,13.6,11.8,20.8,28.9,20.8
		c21.2,0,33.1-10.9,33.1-29.9c0-20-12.4-30.3-40.8-33.8c-15.8-2.5-21.8-6.8-21.8-13.8c0-6.6,5.8-10.6,15.2-10.6
		c12.1,0,21.1,6.8,22.8,17.1h21.5v-31H3074v19.6h-0.7c-1.6-13.9-11.1-21.1-27.7-21.1c-20.1,0-31.8,10.6-31.8,27.9
		c0,19.5,13.5,30.6,40.9,33.6c15.8,2,21.7,5.7,21.7,13.9C3076.5,1437.9,3070.5,1442.3,3059.8,1442.3z"/>
	<path class="st0" d="M3162.2,1354.2c-31.5,0-53.4,21.2-53.4,51.6c0,30.9,21.8,52.3,53.4,52.3c31.5,0,53.4-21.5,53.4-52.3
		C3215.5,1375.4,3193.7,1354.2,3162.2,1354.2z M3162.2,1437.5c-18.3,0-30.9-13-30.9-31.6c0-18.4,12.6-31.1,30.9-31.1
		s31,12.7,31,31.1C3193.2,1424.5,3180.4,1437.5,3162.2,1437.5z"/>
	<polygon class="st0" points="3252.7,1381.8 3292.6,1456.5 3322.3,1456.5 3322.3,1374 3334,1374 3334,1355.8 3292.2,1355.8 
		3292.2,1374 3304,1374 3304,1428 3301.9,1428 3263.5,1355.8 3220.7,1355.8 3220.7,1374 3232.5,1374 3232.5,1438.3 3220.7,1438.3 
		3220.7,1456.5 3262.5,1456.5 3262.5,1438.3 3250.9,1438.3 3250.9,1381.8 	"/>
	<path class="st0" d="M3379.6,1369.7c12.1,0,21.1,6.8,22.8,17.1h21.5v-31h-21.5v19.6h-0.7c-1.6-13.9-11.1-21.1-27.7-21.1
		c-20.1,0-31.8,10.6-31.8,27.9c0,19.5,13.5,30.6,40.9,33.6c15.8,2,21.7,5.7,21.7,13.9c0,8.1-6,12.4-16.7,12.4
		c-12.6,0-22-6.6-24-17.1h-21.5v31.3h21.5V1437h0.8c1.7,13.6,11.8,20.8,28.9,20.8c21.2,0,33.1-10.9,33.1-29.9
		c0-20-12.4-30.3-40.8-33.8c-15.8-2.5-21.8-6.8-21.8-13.8C3364.4,1373.7,3370.2,1369.7,3379.6,1369.7z"/>
	<path class="st0" d="M2100.7,1605.2H2088l3.6-10.7h29.8l3.6,10.7h-11.7v22.9h49.7v-22.9h-7l-29.3-78.5h-36.2l-29.4,78.5h-7.4v22.9
		h47V1605.2z M2105.7,1551.3h1.5l7.7,23.2H2098L2105.7,1551.3z"/>
	<polygon class="st0" points="2206.2,1549.6 2207.4,1549.6 2227.6,1628.1 2252.4,1628.1 2272.8,1549.6 2274,1549.6 2274,1605.2 
		2264.6,1605.2 2264.6,1628.1 2311.5,1628.1 2311.5,1605.2 2302.1,1605.2 2302.1,1549.6 2311.5,1549.6 2311.5,1526.7 2255.9,1526.7 
		2243.3,1579.2 2232.4,1526.7 2229.2,1527.1 2229.5,1526.7 2170.8,1526.7 2170.8,1549.6 2180.2,1549.6 2180.2,1605.2 2170.8,1605.2 
		2170.8,1628.1 2215.5,1628.1 2215.5,1605.2 2206.2,1605.2 	"/>
	<polygon class="st0" points="2425.3,1588.6 2397.3,1588.6 2397.3,1605.2 2361.2,1605.2 2361.2,1587.1 2387.2,1587.1 2387.2,1567.1 
		2361.2,1567.1 2361.2,1549.6 2396.1,1549.6 2396.1,1566 2424.1,1566 2424.1,1526.7 2323.6,1526.7 2323.6,1549.6 2333.2,1549.6 
		2333.2,1605.2 2323.6,1605.2 2323.6,1628.1 2425.3,1628.1 	"/>
	<path class="st0" d="M2488.9,1587.3c3.4,0,4.9,1.2,6,5l9.7,35.8h31.6v-22.9h-7.9l-7.8-22.9c-0.4-1.2-1.1-2.4-1.9-3.4v-0.8
		c9.4-4.1,15.5-11.3,15.5-23c0-17.7-13.8-28.3-40.9-28.3h-56.3v22.9h9.5v55.6h-9.5v22.9h47.3v-22.9h-9.7v-17.9H2488.9z
		 M2474.4,1549.6h18.1c7.4,0,12.4,2.6,12.4,8.7c0,6-4.4,9-12.6,9h-18V1549.6z"/>
	<polygon class="st0" points="2593.5,1549.6 2593.5,1526.7 2546.2,1526.7 2546.2,1549.6 2555.7,1549.6 2555.7,1605.2 2546.2,1605.2 
		2546.2,1628.1 2593.5,1628.1 2593.5,1605.2 2583.8,1605.2 2583.8,1549.6 	"/>
	<path class="st0" d="M2653.1,1629.8c28.2,0,48.7-17.2,52.7-43l-28.9-4.4c-2,12.6-11.3,20.9-23.8,20.9c-14.4,0-24.5-10.7-24.5-26.2
		c0-15.2,10.1-25.6,24.8-25.6c11.7,0,20.7,6.4,23.8,16.6h28.1v-41.4h-28.1v28.9h-0.9c-1.9-20.4-11.7-30.6-29.4-30.6
		c-25.4,0-47.4,21.5-47.4,52.2C2599.4,1608.1,2621.4,1629.8,2653.1,1629.8z"/>
	<path class="st0" d="M2767.5,1628.1h49.7v-22.9h-7l-29.3-78.5h-36.2l-29.4,78.5h-7.4v22.9h47v-22.9h-12.7l3.6-10.7h29.8l3.6,10.7
		h-11.7V1628.1z M2752.2,1574.5l7.7-23.2h1.5l7.7,23.2H2752.2z"/>
	<polygon class="st0" points="2904.1,1591.3 2874.4,1526.7 2825.1,1526.7 2825.1,1549.6 2834.5,1549.6 2834.5,1605.2 2825.1,1605.2 
		2825.1,1628.1 2867,1628.1 2867,1605.2 2857.5,1605.2 2857.5,1562 2859.5,1562 2889.8,1628.1 2929.1,1628.1 2929.1,1549.6 
		2938.7,1549.6 2938.7,1526.7 2896.6,1526.7 2896.6,1549.6 2906.1,1549.6 2906.1,1591.3 	"/>
	<polygon class="st0" points="3044.2,1605.2 3028,1605.2 3028,1587.1 3050.5,1587.1 3050.5,1567.1 3028,1567.1 3028,1549.6 
		3059,1549.6 3059,1566.9 3087.1,1566.9 3087.1,1526.7 2990.4,1526.7 2990.4,1549.6 3000,1549.6 3000,1605.2 2990.4,1605.2 
		2990.4,1628.1 3044.2,1628.1 	"/>
	<path class="st0" d="M3148.5,1629.8c32.4,0,54.7-21.6,54.7-52.7c0-30.7-22.2-52.3-54.7-52.3c-32.3,0-54.7,21.6-54.7,52.3
		C3093.8,1608.2,3116.2,1629.8,3148.5,1629.8z M3148.5,1551.6c15.1,0,25.6,10.5,25.6,25.6c0,15.4-10.5,26.1-25.6,26.1
		s-25.6-10.7-25.6-26.1C3123,1562,3133.4,1551.6,3148.5,1551.6z"/>
	<polygon class="st0" points="3280.8,1549.6 3290.3,1549.6 3290.3,1591.3 3288.3,1591.3 3258.7,1526.7 3209.3,1526.7 3209.3,1549.6 
		3218.7,1549.6 3218.7,1605.2 3209.3,1605.2 3209.3,1628.1 3251.3,1628.1 3251.3,1605.2 3241.7,1605.2 3241.7,1562 3243.7,1562 
		3274,1628.1 3313.4,1628.1 3313.4,1549.6 3322.9,1549.6 3322.9,1526.7 3280.8,1526.7 	"/>
	<polygon class="st0" points="3329,1568.6 3353.9,1568.6 3353.9,1549.6 3366.2,1549.6 3366.2,1605.2 3356.8,1605.2 3356.8,1628.1 
		3403.8,1628.1 3403.8,1605.2 3394.3,1605.2 3394.3,1549.6 3406.7,1549.6 3406.7,1568.6 3431.6,1568.6 3431.6,1526.7 3329,1526.7 	
		"/>
	<path class="st0" d="M2132.5,1697.5h-44.8l-26.9,74.8h-6.9v27.4h49.3v-27.4h-9.9l2.1-7.4h24l2.1,7.4h-8.3v27.4h52.4v-27.4h-6.2
		L2132.5,1697.5z M2102.4,1741.5l4.6-15.9h0.7l4.6,15.9H2102.4z"/>
	<path class="st0" d="M2246.7,1724.9h11.4v37.9c0,3.8-1.1,6.1-3.6,6.1s-3.6-2.3-3.6-6.1v-4.4h-34.2v4.4c0,24,11.1,38.3,37.7,38.3
		c26.5,0,37.7-15.2,37.7-38.1v-38h7.5v-27.4h-53.1V1724.9z"/>
	<path class="st0" d="M2362.6,1695.7c-33.1,0-56,21.7-56,52.7c0,31.4,22.9,53.2,56,53.2s56-21.8,56-53.2
		C2418.6,1717.4,2395.7,1695.7,2362.6,1695.7z M2362.6,1769.3c-12.2,0-20.7-8.6-20.7-20.9c0-12,8.5-20.4,20.7-20.4
		s20.7,8.3,20.7,20.4C2383.2,1760.7,2374.7,1769.3,2362.6,1769.3z"/>
	<path class="st0" d="M2501.9,1746.8c14.3-3.2,21.7-10.7,21.7-23c0-17.3-14.8-26.2-39.2-26.2h-60.8v27.4h7.5v47.4h-7.5v27.4h65.1
		c24,0,38.5-9.9,38.5-27.9C2527.3,1757.4,2518.4,1749.7,2501.9,1746.8z M2465.3,1724.9h15.6c5.6,0,8.3,2.1,8.3,5.8s-2.8,5.7-8.3,5.7
		h-15.6V1724.9z M2483.5,1772.3h-18.1v-12.4h18.3c6.2,0,9.4,2.3,9.4,6.2C2493,1769.9,2489.4,1772.3,2483.5,1772.3z"/>
	<path class="st0" d="M2612.6,1746.8c14.3-3.2,21.7-10.7,21.7-23c0-17.3-14.8-26.2-39.2-26.2h-60.8v27.4h7.5v47.4h-7.5v27.4h65.1
		c24,0,38.5-9.9,38.5-27.9C2638,1757.4,2629.1,1749.7,2612.6,1746.8z M2576,1724.9h15.6c5.6,0,8.3,2.1,8.3,5.8s-2.8,5.7-8.3,5.7
		H2576V1724.9z M2594.1,1772.3H2576v-12.4h18.3c6.2,0,9.4,2.3,9.4,6.2C2603.7,1769.9,2600.1,1772.3,2594.1,1772.3z"/>
	<polygon class="st0" points="2645,1724.9 2652.5,1724.9 2652.5,1772.3 2645,1772.3 2645,1799.7 2694.2,1799.7 2694.2,1772.3 
		2686.7,1772.3 2686.7,1724.9 2694.2,1724.9 2694.2,1697.5 2645,1697.5 	"/>
	<polygon class="st0" points="2777.1,1724.9 2784.4,1724.9 2784.4,1755.2 2783.8,1755.2 2761,1697.5 2705.4,1697.5 2705.4,1724.9 
		2712.6,1724.9 2712.6,1772.3 2705.4,1772.3 2705.4,1799.7 2747.5,1799.7 2747.5,1772.3 2740.2,1772.3 2740.2,1741.5 2740.8,1741.5 
		2763.8,1799.7 2812,1799.7 2812,1724.9 2819.2,1724.9 2819.2,1697.5 2777.1,1697.5 	"/>
	<path class="st0" d="M2874.7,1763.1h23.2v0.4c-4.9,4.2-11.5,6.8-18.5,6.8c-13.5,0-21.3-8.9-21.3-21.8c0-12.2,8.3-20.5,20.7-20.5
		c8.7,0,15.8,4.1,18.4,10.7h34.2v-41h-34.2v28.2h-1.1c-1.3-20.3-10.3-30.1-26.7-30.1c-24.1,0-46.6,21.7-46.6,52.7
		c0,31.4,22.5,53.2,53.9,53.2c13.4,0,23.7-4.1,30.9-12.7l5.6,10.9h19.1v-36.7h7.3V1742h-64.6V1763.1z"/>
	<polygon class="st0" points="2990.6,1743.1 3020.2,1743.1 3020.2,1724.9 3026.2,1724.9 3026.2,1772.3 3018.9,1772.3 3018.9,1799.7 
		3067.6,1799.7 3067.6,1772.3 3060.3,1772.3 3060.3,1724.9 3066.3,1724.9 3066.3,1743.1 3096,1743.1 3096,1697.5 2990.6,1697.5 	"/>
	<polygon class="st0" points="3163,1724.9 3171.7,1724.9 3159.8,1740.1 3147.9,1724.9 3156.6,1724.9 3156.6,1697.5 3102.2,1697.5 
		3102.2,1724.9 3108,1724.9 3138.7,1761.3 3138.7,1772.3 3131.4,1772.3 3131.4,1799.7 3180.2,1799.7 3180.2,1772.3 3172.9,1772.3 
		3172.9,1761.3 3203.6,1724.9 3209.4,1724.9 3209.4,1697.5 3163,1697.5 	"/>
	<path class="st0" d="M3274.1,1697.5h-56.8v27.4h7.5v47.4h-7.5v27.4h49.3v-27.4h-7.5V1760h14.7c27.9,0,43.2-11.7,43.2-31.4
		C3316.8,1709.2,3302.5,1697.5,3274.1,1697.5z M3272.6,1736.6H3259v-11.7h13.8c5,0,8.5,1.7,8.5,5.7S3278.3,1736.6,3272.6,1736.6z"/>
	<polygon class="st0" points="3393.9,1772.3 3364.7,1772.3 3364.7,1760 3385,1760 3385,1736.6 3364.7,1736.6 3364.7,1724.9 
		3392.7,1724.9 3392.7,1740.8 3426.8,1740.8 3426.8,1697.5 3323,1697.5 3323,1724.9 3330.6,1724.9 3330.6,1772.3 3323,1772.3 
		3323,1799.7 3428,1799.7 3428,1756.4 3393.9,1756.4 	"/>
</g>
</svg>
