<?xml version="1.0" encoding="utf-8"?>
<!-- Generator: Adobe Illustrator 22.0.1, SVG Export Plug-In . SVG Version: 6.00 Build 0)  -->
<svg version="1.1" id="Layer_1" xmlns="http://www.w3.org/2000/svg" xmlns:xlink="http://www.w3.org/1999/xlink" x="0px" y="0px"
	 viewBox="0 0 1920 1080" style="enable-background:new 0 0 1920 1080;" xml:space="preserve">
<style type="text/css">
	.st0{fill:#FFFFFF;}
	.st1{fill:#323232;}
</style>
<title>Asset 5</title>
<g id="Layer_2_1_">
	<g id="Layer_1-2">
		<rect x="840" class="st0" width="1080" height="1080"/>
		<rect class="st1" width="840" height="1080"/>
		<path class="st0" d="M659.1,618.7c0.5,3.5,0.7,6.9,0.7,10.4c0,88.7-59.3,133-180,133H291.9v-3.9h23.5c24.8,0,37.8-12.4,40.4-39.8
			c-71.7-3.9-120.6-39.8-144.1-101.7c-22.2-5.2-28.7-20.2-45.7-20.2c-9.8,0-16.9,12.4-18.9,36.5h-3.9l7.8-118h3.9
			c4.6,43.7,21.5,84.8,54.8,96.5c-9.8-26.7-14.4-58.7-14.4-94.6c0-7.2,0.6-15,0.6-22.8c-27.4-11.7-50.9-26.1-50.9-57.4
			c0-36.5,32-58.7,61.3-58.7c8.6,0,17.1,2,24.8,5.9c28-41.7,71.7-66.5,125.2-69.1c-1.3-26.7-13.7-39.1-41.1-39.1h-23.5v-3.9h218.5
			c82.2,0,135.7,45,135.7,113.5v0.7c20.9,5.9,28.7,19.6,43,19.6c6.5,0,12.4-3.9,13.7-16.3h3.9l2,78.9h-3.9
			c-5.9-40.4-31.3-69.1-58.7-77.6c-2,50.9-29.3,84.1-84.8,99.1v13c56.1,16.3,92,56.1,97.8,111.5c24.1-11.7,43.7-37.8,43-75h2
			l5.9,13.7C703.4,582.8,686.5,608.3,659.1,618.7z M286.7,566.5c0,3.9-0.4,7.9-1.3,11.7c6.5-11.7,7.8-21.5,7.8-31.3
			c0-94.6-132.4-63.9-132.4-130.4c-0.1-4.4,0.3-8.7,1.3-13c-6.5,7.2-12.4,16.3-12.4,33.3C149.7,500.6,286.7,479.8,286.7,566.5z
			 M179.1,595.2c-7.2-5.9-18.9-33.9-25.4-56.1l-3.3,63.3c2.5-6,8.5-9.9,15-9.8C169.9,592.6,175.1,592.6,179.1,595.2L179.1,595.2z
			 M154.9,436.7c0.1-4.2,0.5-8.3,1.3-12.4c8.5,62.7,124.6,38.5,131.8,116.1C269.7,481.7,154.9,485.6,154.9,436.7z M156.2,559.3
			c3.3,13.7,10.4,26.7,13.7,30c-2.6-1.3-5.2-1.3-7.8-1.3c-2.7,0.1-5.3,1.2-7.2,3.3L156.2,559.3z M165.4,416.5
			c0,19.6,15.6,30,36.5,38.5c5-24,14.1-46.9,26.7-67.8c-6.9-3.3-14.5-5.1-22.2-5.2C183.6,382,165.4,394.4,165.4,416.5L165.4,416.5z
			 M222.8,505.2V517c0,35.9,5.2,69.1,15.7,97.2c23.5-3.9,42.4-21.5,42.4-47.6C280.8,532,253.4,517.6,222.8,505.2L222.8,505.2z
			 M356.5,714.6V546.3c-21.5-2.6-37.8-19.6-37.8-43c0-22.2,13.7-39.1,37.8-50.9v-133c-45.6,3.3-82.8,31.3-106.3,75.7
			c4.6,2,8.5,3.9,13,3.9c6.5,0,12.4-3.9,13.7-16.3h3.9l2,78.9h-3.9c-3.9-24.8-15.6-46.3-31.3-61.3c-9.8,20.4-16.6,42.2-20.2,64.6
			c34.6,13,70.4,30.6,70.4,82.2c0,43.7-27.4,66.5-58,71.1C260.6,673.5,301,709.3,356.5,714.6L356.5,714.6z M278.2,440l-1.3-42.4
			c-2.6,4.6-8.5,5.9-12.4,5.9c-3.3-0.1-6.6-0.5-9.8-1.3C260.6,406.7,272.3,422.4,278.2,440z M273.6,404.8l1.3,19.6
			c-2.6-8.5-7.8-15-11.1-17.6c1,0.5,2.1,0.7,3.3,0.6C269.5,407.2,271.8,406.3,273.6,404.8z M387.8,534.6c-2.6,0-5.2,0.7-7.8,0.7
			c-25.4,0.7-39.1-14.3-39.1-41.7c0-13.7,3.9-25.4,11.1-33.9C333,470,323.2,485,323.2,503.3c0,22.8,16.3,39.1,39.1,39.1
			C371.4,542.4,380.3,539.7,387.8,534.6z M365.6,537.8h-3.3c-20.2,0-34.6-14.3-34.6-34.6c0-10.4,3.9-19.6,11.7-29.4
			c-2.3,6.3-3.4,12.9-3.3,19.6C336.2,518.9,345.4,532.6,365.6,537.8L365.6,537.8z M356.5,460.8c-7.2,7.8-11.1,18.3-11.1,32.6
			c0,13,3.3,24.1,11.1,30.7V460.8z M380.6,315.4c51.5,5.2,69.1,35.9,87.4,35.9c7.8,0,12.4-7.8,15.6-26.7h3.9v118.1
			c6.5,3.9,10.4,11.1,10.4,19.6c0,9.8-7.2,17-18.3,17s-18.3-7.2-18.3-17s7.2-17,18.3-17c1.8-0.1,3.5,0.1,5.2,0.6
			c-3.3-3.3-7.8-4.6-14.3-4.6c-14.4,0-29.4,7.2-39.8,33.9c5.2,7.8,10.4,14.3,14.4,19.6h60.7c6.1-0.1,12.2-0.5,18.3-1.3
			c2-61.3,45.7-105.7,94.6-109.6c-0.6-62.6-50.9-108.3-119.4-108.3H421C394.3,275.6,381.9,288,380.6,315.4L380.6,315.4z
			 M387.1,442.6c-4.1-9.7-6.4-20.1-6.5-30.6c0-20.9,12.4-32,28-32c16.3,0,27.4,10.4,27.4,25.4c0,14.4-10.4,25.4-28,33.9
			c5.2,9.8,11.7,19.6,18.3,29.3c1.3,1.3,2,3.3,3.3,4.6c6.5-22.8,22.8-35.9,41.1-35.9c4.3-0.2,8.5,0.7,12.4,2.6
			c-9.1-73-50.2-114.1-102.4-120.7v124.6C382.5,443.3,384.5,443.3,387.1,442.6L387.1,442.6z M380.6,494.7h32c-0.2-1-0.6-1.9-1.3-2.6
			c-9.8-16.3-17.6-32-22.8-46.3l-7.8,2L380.6,494.7z M632.3,624.6h-3.9c-58,0-102.4-50.2-104.3-122.6c-11.2-2.1-22.5-3.2-33.9-3.3
			h-41.7c18.3,21.5,28.7,26.1,37.2,26.1s15-4.6,21.5-20.9l2,0.7c-9.1,27.4-18.9,39.8-35.2,39.8c-18.9,0-38.5-15.7-54.8-39.8
			c-10.4,18.9-23.5,32.6-38.5,38.5v171.5c32.6-5.2,81.5-30,81.5-103.7c0-30.7-3.9-52.2-26.7-52.2h-17v-3.9h115.4v3.9h-17
			c-19.6,0-28.7,18.3-28.7,48.9s1.3,53.5,16.3,72.4l-2.6,2c-7.2-10.4-15.6-18.9-25.4-18.9c-24.1,0-41.1,48.9-95.2,55.4
			c2,27.4,12.4,39.8,32,39.8h92.6c73.7,0,126.5-54.1,126.5-129.1L632.3,624.6z M417.8,502c-1.1-0.9-1.9-2-2.6-3.3h-34.6v32
			C394.3,530,403.4,524.1,417.8,502z M473.9,539.8c8.5,0,14.4-3.3,20.2-12.4c-2.6,1.4-5.5,2-8.5,2c-17,0-35.9-17.6-63.3-58
			c-15.6-23.5-30.6-48.3-30.6-70.4c0-4.6,0.6-8.5,2.6-11.7c-5.9,4.6-9.1,12.4-9.1,22.8c0,18.3,9.8,43,30,77.6
			C434.1,522.2,455.6,539.8,473.9,539.8L473.9,539.8z M419.1,487c-19.6-33.9-26.1-49.6-30-71.7c7.2,23.5,18.3,41.7,29.4,58.7
			c26.7,39.8,46.3,57.4,65.2,59.3c-3.1,1.3-6.4,2-9.8,2C456.9,535.2,436.7,517.6,419.1,487z M406.7,436.1c9.8-7.8,15.6-15,15.6-28.7
			s-5.9-23.5-14.3-23.5c-9.1,0-11.7,11.7-11.7,17C396.2,412,400.1,423.7,406.7,436.1L406.7,436.1z M426.9,407.4
			c0,6.5-1.3,11.7-3.9,16.3c5.9-5.2,8.5-11.1,8.5-18.3c0-7.8-3.3-13.7-9.1-17.6C425.4,393.9,426.9,400.6,426.9,407.4L426.9,407.4z
			 M494.1,462.2c0-7.8-5.9-13-14.4-13s-14.4,5.2-14.4,13s5.9,13,14.4,13S494.1,470,494.1,462.2z M470.6,462.2c0-4.6,3.3-8.5,9.1-8.5
			s9.1,3.9,9.1,8.5s-3.3,8.5-9.1,8.5S470.6,466.8,470.6,462.2z M554.7,497.4c0-42.4,11.1-76.3,29.3-96.5
			c-32,17.6-53.5,54.1-53.5,96.5c0,52.2,22.2,92.6,56.7,110.9C566.5,586.1,554.7,547,554.7,497.4L554.7,497.4z M537.1,497.4
			c0-25.4,7.8-48.9,22.2-66.5c-7.2,18.9-11.1,41.1-11.1,66.5c0,30.7,4.6,58,12.4,79.6C545.6,556.7,537.1,529.3,537.1,497.4
			L537.1,497.4z M618.6,387.9c-32,5.9-53.5,41.7-56.7,93.9C595.8,464.8,618,430.2,618.6,387.9L618.6,387.9z M561.9,515
			c3.9,62.6,28.7,105.7,67.8,105.7h2.6C629.1,573.7,602.3,535.2,561.9,515z M653.9,446.5c25.4,0,39.8,22.2,39.8,50.9
			c0,27.4-14.3,48.3-39.8,48.3c-26.1,0-40.4-20.9-40.4-48.3C613.4,468.7,627.8,446.5,653.9,446.5L653.9,446.5z M638.2,537.8
			c-5.2-7.8-7.8-21.5-7.8-40.4c0-19.6,2.6-34.6,8.5-43c-13,7.2-20.9,22.2-20.9,43C618,517,625.8,532,638.2,537.8z M629.1,468.7
			c-2,7.8-2.6,17.6-2.6,28.7c0,10.4,0.7,19.6,2.6,26.7c-4.6-7.2-7.2-16.3-7.2-26.7C621.9,486.3,624.5,476.5,629.1,468.7z
			 M653.9,450.4c-13,0-18.9,18.9-18.9,47c0,27.4,5.9,44.4,18.9,44.4s18.9-17,18.9-44.4C672.8,469.4,666.9,450.4,653.9,450.4
			L653.9,450.4z M668.9,455c5.9,8.5,8.5,22.8,8.5,42.4c0,18.9-2.6,32-7.8,40.4c12.4-6.5,19.6-20.9,19.6-40.4
			C689.1,476.5,681.9,461.5,668.9,455L668.9,455z M681.2,497.4c0-11.1-0.7-20.2-2.6-27.4c4.6,6.5,6.5,16.3,6.5,27.4
			c0,9.8-2,18.9-5.9,25.4C680.7,514.4,681.3,505.9,681.2,497.4L681.2,497.4z M687.1,412c5.9,6.5,10.4,14.4,14.3,22.2l-0.6-26.2
			c-3.3,2.7-7.5,4.1-11.7,4H687.1z M698.2,412.7l0.7,10.4c-1-3.2-2.8-6.1-5.2-8.5C695.4,414.5,697,413.8,698.2,412.7L698.2,412.7z"
			/>
		<path class="st1" d="M1067.8,368.5v16.4h-40.4v-1.5h9.3v-46.7h-9.3v-1.5h20.4v1.5h-9.5v46.7h27.8v-14.8H1067.8z"/>
		<path class="st1" d="M1074.6,335.1h20.3v1.5h-9.3v46.7h9.3v1.5h-20.3v-1.5h9.3v-46.7h-9.3V335.1z"/>
		<path class="st1" d="M1157.6,363.2h-6.4v21.6h-1.1l-0.5-16c-3.3,10.1-11.8,16.5-22.5,16.5c-14.2,0-24.6-10.5-24.6-25.6
			c0-14.8,9.9-25.3,25-25.3c11.8,0,19.1,6.4,21.5,15.6h0.1v-15h1.6v19.5h-1.6c-2.2-12-10.1-18.4-21.7-18.4
			c-14.2,0-23.3,9.7-23.3,23.6s9.7,23.9,22.9,23.9c11.7,0,20.6-8,22.4-20.4v-0.1h-18.2v-1.6h26.3L1157.6,363.2z"/>
		<path class="st1" d="M1211.6,336.6v46.7h9.3v1.5h-20.3v-1.5h9.3v-22.8h-35.3v22.8h9.3v1.5h-20.2v-1.5h9.2v-46.7h-9.3v-1.5h20.3
			v1.5h-9.3V359h35.3v-22.4h-9.3v-1.5h20.3v1.5H1211.6z"/>
		<path class="st1" d="M1273.3,349.6h-1.7v-13h-20.3v46.7h9.3v1.5h-20.3v-1.5h9.3v-46.7h-20.3v13h-1.7v-14.5h45.6V349.6z"/>
		<path class="st1" d="M1359.1,383.3v1.5h-21.3v-1.5h13.9l-6.8-16h-26.1l-6.8,16h13.9v1.5h-21.2v-1.5h5.6l20.6-48.3h2l20.6,48.3
			H1359.1z M1344.2,365.9l-12.2-28.8h-0.3l-12.2,28.8H1344.2z"/>
		<path class="st1" d="M1424.1,335.1v1.5h-9.3v48.3h-2.2l-35-48h-0.3v46.5h9.3v1.5h-20.1v-1.5h9.3v-46.8h-9.3v-1.5h11.8l34.7,47.6
			h0.3v-46.1h-10.1v-1.5L1424.1,335.1z"/>
		<path class="st1" d="M1480.4,359.8c0,14.8-10.3,25-26.2,25h-24v-1.5h9.3v-46.7h-9.3v-1.5h24
			C1470.1,335.1,1480.4,345.3,1480.4,359.8z M1478.6,359.8c0-13.7-9.5-23.2-24.5-23.2h-13v46.7h13
			C1469.1,383.3,1478.6,373.7,1478.6,359.8z"/>
		<path class="st1" d="M1568.3,383.3v1.5H1547v-1.5h13.9l-6.9-15.9h-26l-6.8,16h13.8v1.5h-21.2v-1.5h5.6l20.6-48.3h2l20.6,48.3
			L1568.3,383.3z M1553.4,365.9l-12.2-28.8h-0.3l-12.2,28.8H1553.4z"/>
		<path class="st1" d="M1575.6,335.1h20.3v1.5h-9.3v46.7h9.3v1.5h-20.3v-1.5h9.3v-46.7h-9.3V335.1z"/>
		<path class="st1" d="M1652.5,383.3v1.5h-7.2l-6.9-19.8c-1.2-3.4-2.8-4.6-6.1-4.6h-17.6v22.8h9.3v1.5h-20.3v-1.5h9.3v-46.7h-9.3
			v-1.5h27.3c11.2,0,16.9,4.8,16.9,12c0,6.9-5.2,11.7-12.2,12.7c2.1,0.6,3.2,2,4,4.3l6.8,19.2H1652.5z M1631,359
			c10,0,15.4-5,15.4-11.7c0-6.5-5.2-10.7-15.3-10.7h-16.3V359H1631z"/>
		<path class="st1" d="M1714.4,335.1v1.5h-6.4l-20.2,25.3v21.5h9.3v1.5h-20.3v-1.5h9.3v-21.4l-20.2-25.3h-6.4v-1.5h20.1v1.5H1668
			l19,23.7h0.3l18.9-23.7h-11.9v-1.5L1714.4,335.1z"/>
		<path class="st1" d="M1077.6,279.5c-2.4,12-11.6,20.1-23.9,20.1c-14.3,0-24.6-10.5-24.6-25.6c0-14.8,9.7-25.3,24.8-25.3
			c12.1,0,20.1,6.6,22.5,17h0.1v-16.5h0.8v19.5h-0.8c-2.2-12.7-10.7-19.2-22.6-19.2c-14.6,0-23.8,10.1-23.8,24.4
			c0,14.6,9.9,24.7,23.7,24.7c11.8,0,20.8-7.7,23-19.4L1077.6,279.5z"/>
		<path class="st1" d="M1085.4,274c0-14.8,10.3-25.2,25.1-25.2s25.2,10.4,25.2,25.2c0,15-10.3,25.5-25.2,25.5S1085.4,289,1085.4,274
			z M1134.8,274c0-14.4-9.9-24.4-24.3-24.4s-24.3,10.1-24.3,24.4c0,14.6,9.9,24.7,24.3,24.7S1134.8,288.6,1134.8,274z"/>
		<path class="st1" d="M1199.8,249.3v0.8h-9.6v49h-1.1l-36.6-48.9h-0.2v48.1h9.6v0.8h-20.1v-0.8h9.7V250h-9.7v-0.7h11l36.4,48.8h0.2
			v-48h-10.6v-0.8L1199.8,249.3z"/>
		<path class="st1" d="M1249.1,263.4h-0.8v-13.4h-21.4v48.2h9.6v0.8h-20.1v-0.8h9.7v-48.2h-21.4v13.4h-0.7v-14.2h45.2L1249.1,263.4z
			"/>
		<path class="st1" d="M1303.2,298.2v0.8h-6.7l-7-20.2c-1.2-3.5-2.8-4.6-6.2-4.6h-18.7v24h9.7v0.8h-20.2v-0.8h9.7v-48.2h-9.7v-0.8
			h27.4c11.2,0,16.9,4.8,16.9,11.9c0,7.1-5.7,12-13.2,12.7c3,0.4,4.1,1.9,5,4.6l6.9,19.8L1303.2,298.2z M1281.5,273.6
			c10.5,0,16.2-5.5,16.2-12.4c0-6.7-5.4-11.1-16.1-11.1h-16.9v23.5H1281.5z"/>
		<path class="st1" d="M1364.3,298.2v0.8h-21.2v-0.8h14.6l-7.3-17.1h-26.8l-7.3,17.1h14.6v0.8h-21.3v-0.8h5.8l21.1-49h1.1l21.1,49
			H1364.3z M1349.9,280.4l-13-30.2h-0.1l-13,30.2H1349.9z"/>
		<path class="st1" d="M1407,286.8c0,8.3-5.6,12.9-15.8,12.9c-11.3,0-18-5.2-19.5-14.2h-0.1V299h-0.8v-15h0.8
			c1.4,9.7,8.2,15,19.5,15c9.7,0,15-4.4,15-12.1c0-7.5-4.6-11.1-17.1-13.1c-13.2-2.2-17.9-5.6-17.9-12.9c0-7.9,5.9-12.3,15.6-12.3
			c10.7,0,16.2,5.3,17.6,14h0.1v-13.4h0.8v15.1h-0.8c-1.5-9.9-7.2-15-17.6-15c-9.2,0-14.8,4.1-14.8,11.6c0,6.7,4.4,9.9,17.3,12
			S1407,278.9,1407,286.8z"/>
		<path class="st1" d="M1458.2,263.4h-0.8v-13.4h-21.4v48.2h9.6v0.8h-20.1v-0.8h9.7v-48.2h-21.4v13.4h-0.8v-14.2h45.2L1458.2,263.4z
			"/>
		<path class="st1" d="M1463.3,249.3h20.2v0.8h-9.7v48.2h9.7v0.8h-20.2v-0.8h9.7v-48.2h-9.7V249.3z"/>
		<path class="st1" d="M1547.3,249.3v0.8h-9.6v49h-1.1l-36.6-48.9h-0.2v48.1h9.6v0.8h-20.1v-0.8h9.7V250h-9.7v-0.7h11l36.4,48.8h0.2
			v-48h-10.6v-0.8L1547.3,249.3z"/>
		<path class="st1" d="M1608.2,276.9h-6.3V299h-0.6l-0.2-18.7c-2.6,11.6-11.6,19.2-23.2,19.2c-14.2,0-24.6-10.5-24.6-25.6
			c0-14.8,9.9-25.3,25-25.3c12.2,0,19.8,6.8,22.2,17h0.1v-16.5h0.8v19.5h-0.8c-2.2-12.7-10.4-19.2-22.3-19.2
			c-14.7,0-24.1,10.1-24.1,24.4c0,14.6,9.9,24.7,23.7,24.7c12.2,0,21.6-8.7,23.1-21.9H1582v-0.8h26.2L1608.2,276.9z"/>
		<path class="st1" d="M1653.1,282.8v16.3h-40.3v-0.8h9.7v-48.2h-9.7v-0.8h20.2v0.8h-9.7v48.2h29v-15.5H1653.1z"/>
		<path class="st1" d="M1714.2,249.3v0.8h-6.8l-20.9,25.8v22.4h9.6v0.8h-20.1v-0.8h9.7v-22.4l-20.9-25.8h-6.8v-0.8h20.2v0.8H1666
			l20.3,25h0.1l20.3-25h-12.5v-0.8H1714.2z"/>
		<path class="st1" d="M1075.3,163.8v49.1h9.8v0.3h-20v-0.3h9.9v-24.6h-37.5v24.6h9.8v0.3h-20v-0.3h9.9v-49.1h-9.9v-0.3h20v0.3h-9.8
			v24.2h37.5v-24.2h-9.9v-0.3h20v0.3H1075.3z"/>
		<path class="st1" d="M1146.9,212.9v0.3h-21.2v-0.3h15l-7.7-17.7h-27.1l-7.7,17.7h15v0.3h-21.2v-0.3h5.9l21.4-49.5h0.5l21.3,49.5
			H1146.9z M1132.8,194.8l-13.4-31h-0.1l-13.4,31H1132.8z"/>
		<path class="st1" d="M1153.6,163.4h20.1v0.3h-9.9v49.1h9.9v0.3h-20.1v-0.3h9.9v-49.1h-9.9V163.4z"/>
		<path class="st1" d="M1229.6,212.9v0.3h-6.3l-7.1-20.4c-1.2-3.4-2.8-4.6-6.2-4.6h-19.4v24.6h9.9v0.3h-20.1v-0.3h9.9v-49.1h-9.9
			v-0.3h27.5c11.2,0,16.9,4.8,16.9,11.8c0,7.3-6.1,12.2-13.8,12.8v0.1c3.4,0.3,4.5,1.8,5.5,4.6l7,20.2H1229.6z M1224.4,175.2
			c0-6.8-5.5-11.5-16.6-11.5h-17.3v24.2h17.2C1218.6,187.9,1224.4,182.2,1224.4,175.2L1224.4,175.2z"/>
		<path class="st1" d="M1276.5,197v16.2h-40.3v-0.3h9.9v-49.1h-9.9v-0.3h20.1v0.3h-9.9v49.1h29.7V197H1276.5z"/>
		<path class="st1" d="M1282.4,163.4h20.1v0.3h-9.9v49.1h9.9v0.3h-20.1v-0.3h9.9v-49.1h-9.9V163.4z"/>
		<path class="st1" d="M1367.3,163.4v0.3h-9.8v49.5h-0.5l-37.4-49.5h-0.1v49.1h9.8v0.3h-20v-0.3h9.9v-49.2h-9.9v-0.3h10.5l37.4,49.5
			h0.1v-49.1h-10.9v-0.3H1367.3z"/>
		<path class="st1" d="M1418.1,200.9v12.4h-45.8v-0.3h9.9v-49.1h-9.9v-0.3h45.2v12.4h-0.3v-12h-34.6V188h22.4v0.3h-22.4v24.6h35.2
			v-12H1418.1z"/>
		<path class="st1" d="M1485.8,201.1c0,8.2-5.6,12.8-15.7,12.8c-11.4,0-18.3-5.4-19.8-14.4h-0.1v13.8h-0.3v-15.1h0.3
			c1.4,10.1,8.3,15.4,19.9,15.4c9.9,0,15.4-4.4,15.4-12.4c0-7.6-4.7-11.3-17.5-13.4c-13.2-2.2-17.9-5.5-17.9-12.6
			c0-7.9,5.9-12.2,15.6-12.2c10.9,0,16.4,5.4,17.9,14.3h0.1v-13.6h0.3v15.1h-0.3c-1.5-10.3-7.3-15.4-17.9-15.4
			c-9.5,0-15.2,4.2-15.2,11.9c0,6.9,4.4,10.1,17.6,12.3C1480.8,189.5,1485.8,193.3,1485.8,201.1z"/>
		<path class="st1" d="M1538.6,200.9v12.4h-45.8v-0.3h9.9v-49.1h-9.9v-0.3h45.1v12.4h-0.3v-12H1503V188h22.4v0.3H1503v24.6h35.2v-12
			H1538.6z"/>
		<path class="st1" d="M1594.6,212.9v0.3h-6.3l-7.1-20.4c-1.2-3.4-2.8-4.6-6.2-4.6h-19.4v24.6h9.9v0.3h-20.1v-0.3h9.9v-49.1h-9.9
			v-0.3h27.5c11.2,0,16.9,4.8,16.9,11.8c0,7.3-6.1,12.2-13.8,12.8v0.1c3.4,0.3,4.5,1.8,5.5,4.6l7,20.2H1594.6z M1589.5,175.2
			c0-6.8-5.5-11.5-16.6-11.5h-17.3v24.2h17.2C1583.6,187.9,1589.5,182.2,1589.5,175.2z"/>
		<path class="st1" d="M1601.3,163.4h20.1v0.3h-9.9v49.1h9.9v0.3h-20.1v-0.3h9.9v-49.1h-9.9V163.4z"/>
		<path class="st1" d="M1671.2,163.4v12.4h-0.3v-12h-32.5V188h21.2v0.3h-21.2v24.6h10.8v0.3h-21v-0.3h9.9v-49.1h-9.9v-0.3H1671.2z"
			/>
		<path class="st1" d="M1713.7,201.1c0,8.2-5.6,12.8-15.7,12.8c-11.5,0-18.3-5.4-19.8-14.4h-0.1v13.8h-0.3v-15.1h0.3
			c1.4,10.1,8.3,15.4,19.9,15.4c9.9,0,15.4-4.4,15.4-12.4c0-7.6-4.7-11.3-17.5-13.4c-13.2-2.2-17.9-5.5-17.9-12.6
			c0-7.9,5.9-12.2,15.6-12.2c10.9,0,16.4,5.4,17.9,14.3h0.1v-13.6h0.3v15.1h-0.3c-1.5-10.3-7.3-15.4-17.9-15.4
			c-9.5,0-15.2,4.2-15.2,11.9c0,6.9,4.4,10.1,17.6,12.3C1708.8,189.5,1713.7,193.3,1713.7,201.1z"/>
		<path class="st1" d="M1077.8,451.6c-2.4,11.9-11.7,19.7-24,19.7c-14.4,0-24.8-10.6-24.8-25.6s10-25.4,24.8-25.4
			c11.4,0,18.5,6.1,20.7,15.3h0.2v-14.7h3v19.5h-3c-2.2-11.1-9.9-17.1-20.8-17.1c-13,0-21.7,9.2-21.7,22.4c0,13.4,9,22.6,21.6,22.6
			c10.8,0,18.9-6.9,20.9-17.3L1077.8,451.6z"/>
		<path class="st1" d="M1086.1,445.7c0-14.9,10.4-25.4,25.4-25.4s25.4,10.5,25.4,25.4c0,15.1-10.4,25.6-25.4,25.6
			S1086.1,460.8,1086.1,445.7z M1133.7,445.7c0-13.2-9.1-22.4-22.2-22.4s-22.2,9.1-22.2,22.4s9,22.6,22.2,22.6
			S1133.7,459,1133.7,445.7L1133.7,445.7z"/>
		<path class="st1" d="M1200.4,420.9v2.8h-8.7v47h-4.1l-32.5-46.5h-0.3v43.8h8.7v2.8H1143v-2.8h8.8v-44.3h-8.8v-2.7h13.4l32,45.7
			h0.5v-42.9h-9.3v-2.8H1200.4z"/>
		<path class="st1" d="M1251.4,436h-3v-12.3h-18.5v44.2h8.7v2.8H1218v-2.8h8.7v-44.2h-18.5V436h-3v-15.1h46.1L1251.4,436z"/>
		<path class="st1" d="M1303.3,457.2v13.5H1257v-2.8h8.8v-44.2h-8.8v-2.8h45.7v13.5h-3v-10.7h-30.8v20.5h21.2v2.7h-21.2v21h31.4
			v-10.7H1303.3z"/>
		<path class="st1" d="M1369.3,423.7v44.2h8.8v2.8h-20.9v-2.8h9.1v-44.2h-0.3l-20.3,47h-3.3l-20.1-47h-0.3v44.2h9v2.8h-20.7v-2.8
			h8.8v-44.2h-8.8v-2.8h14.1v0.1l0.1-0.1l19.7,46l19.7-46l0.1,0.1v-0.1h14v2.8L1369.3,423.7z"/>
		<path class="st1" d="M1429.3,433.8c0,7-4.5,13.1-17.2,13.1h-15v21h8.7v2.8h-20.6v-2.8h8.8v-44.2h-8.8v-2.8h27.1
			C1423.6,420.9,1429.3,425.7,1429.3,433.8z M1426.2,433.9c0-6.7-4.9-10.3-14-10.3h-15.1v20.5h15.2
			C1421.5,444.2,1426.2,440.5,1426.2,433.9z"/>
		<path class="st1" d="M1437.3,445.7c0-14.9,10.4-25.4,25.4-25.4s25.4,10.5,25.4,25.4c0,15.1-10.4,25.6-25.4,25.6
			S1437.3,460.8,1437.3,445.7z M1484.9,445.7c0-13.2-9.1-22.4-22.2-22.4s-22.2,9.1-22.2,22.4s9,22.6,22.2,22.6
			S1484.9,459,1484.9,445.7z"/>
		<path class="st1" d="M1542.4,467.9v2.8h-8.2l-6.6-19.2c-1.2-3.5-2.8-4.6-6.1-4.6H1506v21h8.7v2.8h-20.6v-2.8h8.8v-44.2h-8.8v-2.8
			h27.1c11.3,0,17,4.8,17,12.4c0,6.5-4.6,11.3-11.4,12.6c1.5,0.9,2.6,2.3,3.1,3.9l6.7,18.1L1542.4,467.9z M1521.1,444.2
			c9.2,0,14.1-4.4,14.1-10.7c0-6.2-4.9-9.8-14-9.8H1506v20.5L1521.1,444.2z"/>
		<path class="st1" d="M1602.5,467.9v2.8h-21.3v-2.8h12.8l-6-14.1h-25l-5.9,14.1h12.8v2.8h-21.1v-2.8h5.3l19.7-47h3.6l19.7,47
			H1602.5z M1586.9,451.1l-11.2-26.5h-0.3l-11.1,26.5H1586.9z"/>
		<path class="st1" d="M1656.5,467.9v2.8h-8.2l-6.6-19.2c-1.2-3.5-2.8-4.6-6.1-4.6h-15.4v21h8.7v2.8h-20.6v-2.8h8.8v-44.2h-8.8v-2.8
			h27.1c11.3,0,17,4.8,17,12.4c0,6.5-4.6,11.3-11.4,12.6c1.5,0.9,2.6,2.3,3.1,3.9l6.7,18.1L1656.5,467.9z M1635.2,444.2
			c9.2,0,14.1-4.4,14.1-10.7c0-6.2-4.9-9.8-14-9.8h-15.1v20.5L1635.2,444.2z"/>
		<path class="st1" d="M1714.1,420.9v2.8h-5.6l-19.3,24.5v19.7h8.8v2.8h-20.6v-2.8h8.8v-19.7l-19.3-24.5h-5.6v-2.8h20.1v2.8h-10.7
			l16.9,21.6h0.3l16.9-21.6h-11.1v-2.8H1714.1z"/>
		<path class="st1" d="M1084.4,506.7v4.5h-8v45.3h-6.7l-29.3-44.4h-0.3V552h8v4.5h-20.7V552h8v-40.8h-8v-4.5h15.4l28.4,43h0.5v-38.5
			h-8.3v-4.5H1084.4z"/>
		<path class="st1" d="M1089.9,506.7h21v4.5h-8V552h8v4.5h-21V552h8v-40.8h-8V506.7z"/>
		<path class="st1" d="M1175.8,506.7v4.5h-8v45.3h-6.7l-29.3-44.4h-0.3V552h8v4.5h-20.7V552h8v-40.8h-8v-4.5h15.4l28.4,43h0.5v-38.5
			h-8.3v-4.5H1175.8z"/>
		<path class="st1" d="M1228,542.2v14.3h-46.7V552h8v-40.8h-8v-4.5h46.1V521h-5v-9.8h-28.1v18h20.5v4.4h-20.5V552h28.7v-9.8H1228z"
			/>
		<path class="st1" d="M1309.1,531.5c0,14.8-10.4,25-25.9,25h-24.2V552h8v-40.8h-8v-4.5h24.2
			C1298.7,506.7,1309.1,516.9,1309.1,531.5z M1303.9,531.5c0-12-8.3-20.3-20.7-20.3h-11.3V552h11.3
			C1295.6,552,1303.9,543.6,1303.9,531.5z"/>
		<path class="st1" d="M1315.1,506.7h21v4.5h-8V552h8v4.5h-21V552h8v-40.8h-8V506.7z"/>
		<path class="st1" d="M1387.5,506.7V521h-5v-9.8H1357v18h18v4.4h-18V552h9.6v4.5H1344V552h8v-40.8h-8v-4.5H1387.5z"/>
		<path class="st1" d="M1437.1,506.7V521h-5v-9.8h-25.6v18h18v4.4h-18V552h9.6v4.5h-22.6V552h8v-40.8h-8v-4.5H1437.1z"/>
		<path class="st1" d="M1489.8,542.2v14.3h-46.7V552h8v-40.8h-8v-4.5h46.1V521h-5v-9.8H1456v18h20.5v4.4H1456V552h28.7v-9.8H1489.8z
			"/>
		<path class="st1" d="M1545.2,552v4.5h-9.5l-6.4-18.3c-1.2-3.4-2.7-4.6-6-4.6h-12.6V552h8v4.5h-21V552h8v-40.8h-8v-4.5h26.8
			c11.4,0,17.1,4.8,17.1,12.8c0,6.4-4,11.3-10.5,12.7c1.1,0.8,1.9,1.9,2.4,3.2l6.4,16.7H1545.2z M1524.2,529.2
			c8,0,12.3-3.5,12.3-9.4c0-5.7-4.6-8.6-12.2-8.6h-13.6v18L1524.2,529.2z"/>
		<path class="st1" d="M1598.7,542.2v14.3H1552V552h8v-40.8h-8v-4.5h46.1V521h-5v-9.8H1565v18h20.5v4.4H1565V552h28.7v-9.8H1598.7z"
			/>
		<path class="st1" d="M1663.6,506.7v4.5h-8v45.3h-6.7l-29.3-44.4h-0.3V552h8v4.5h-20.7V552h8v-40.8h-8v-4.5h15.4l28.4,43h0.5v-38.5
			h-8.3v-4.5H1663.6z"/>
		<path class="st1" d="M1715.8,522.7h-5v-11.4h-16V552h7.9v4.5h-20.9V552h8v-40.8h-16.1v11.4h-5v-15.9h47L1715.8,522.7z"/>
		<path class="st1" d="M1028.5,617.2c0-15.1,10.7-25.6,26-25.6s26,10.5,26,25.6c0,15.3-10.6,25.9-26,25.9S1028.5,632.5,1028.5,617.2
			z M1072.5,617.2c0-10.8-7.3-18.1-17.9-18.1s-17.9,7.3-17.9,18.1s7.3,18.4,17.9,18.4S1072.5,628.1,1072.5,617.2L1072.5,617.2z"/>
		<path class="st1" d="M1128.7,606.2c0,6.2-3.2,14.2-17.9,14.2h-11.6v15.1h6.9v6.8h-21.6v-6.8h7v-36.3h-7v-6.8h26.6
			C1122.8,592.4,1128.7,597.5,1128.7,606.2z M1120.8,606.7c0-5.2-3.9-7.5-9.9-7.5h-11.7v14.7h11.8
			C1117.4,613.9,1120.8,611.5,1120.8,606.7L1120.8,606.7z"/>
		<path class="st1" d="M1181.8,609.6h-7.5v-10.4h-12.8v36.3h7v6.8H1147v-6.8h7v-36.3h-12.8v10.4h-7.5v-17.2h48.3L1181.8,609.6z"/>
		<path class="st1" d="M1186.4,592.4h21.6v6.8h-7v36.3h7v6.8h-21.6v-6.8h6.9v-36.3h-6.9V592.4z"/>
		<path class="st1" d="M1220,617.2c0,10.9,7.1,18.4,17.2,18.4c8.6,0,15-5.3,16.7-13.5l7.9,1.6c-2.4,11.7-11.8,19.4-24.6,19.4
			c-14.8,0-25.4-10.8-25.4-25.9s10.5-25.6,24.8-25.6c10,0,15.8,5.2,17.2,14.5h0.3v-13.8h7.7v19.7h-7.7c-1.9-7.8-8.3-12.9-16.9-12.9
			C1227.1,599.2,1220,606.5,1220,617.2z"/>
		<path class="st1" d="M1316,635.5v6.8h-21.8v-6.8h9.2l-3.4-8.7h-20.7l-3.4,8.7h9.3v6.8h-21.2v-6.8h4.2l17.2-43.1h9.1l17.2,43.1
			H1316z M1297.5,620.4l-7.5-19.3h-0.5l-7.6,19.3L1297.5,620.4z"/>
		<path class="st1" d="M1361.7,624.9v17.4h-41.6v-6.8h7v-36.3h-7v-6.8h21.9v6.8h-7.3v36.3h19.3v-10.6H1361.7z"/>
		<path class="st1" d="M1464.9,592.4v6.8h-4.1l-14.2,43.1h-9.5l-11-33.8h-0.3l-11.2,33.8h-9.4l-14.4-43.1h-4v-6.8h20.7v6.8h-8.2
			l11,34.2h0.3l11.7-34.2h-7.3v-6.8h23v6.8h-6.9l11.4,34.2h0.3l11.1-34.2h-8.7v-6.8H1464.9z"/>
		<path class="st1" d="M1516.3,626.7v15.6h-47.5v-6.8h7v-36.3h-7v-6.8h46.9V608h-7.7v-8.8h-24.6v14.7h18.9v6.5h-18.9v15.1h25.2v-8.8
			H1516.3z"/>
		<path class="st1" d="M1523.1,592.4h21.6v6.8h-7v36.3h7v6.8h-21.6v-6.8h7v-36.3h-7V592.4z"/>
		<path class="st1" d="M1605.7,623.9h-6.9v18.4h-4.8l-2.5-7.2c-4.2,5-10.4,7.9-17.9,7.9c-14.6,0-25-10.9-25-25.8
			s10.5-25.6,24.8-25.6c9.9,0,15.8,5.2,17.2,14.4h0.3v-13.7h7.7v19.7h-7.7c-1.9-7.9-8.3-12.9-16.8-12.9c-10.2,0-17.3,7.3-17.3,18.1
			s7.1,18.4,17.3,18.4c8.2,0,14.5-4.6,16.9-11.7h-12.8v-6.6h27.4L1605.7,623.9z"/>
		<path class="st1" d="M1656.4,599.2v36.3h6.9v6.8h-21.6v-6.8h7v-15.1h-25.8v15.1h6.9v6.8h-21.6v-6.8h7v-36.3h-7v-6.8h21.6v6.8h-6.9
			v14.7h25.8v-14.7h-7v-6.8h21.6v6.8L1656.4,599.2z"/>
		<path class="st1" d="M1716.2,609.6h-7.5v-10.4h-12.8v36.3h6.9v6.8h-21.6v-6.8h7v-36.3h-12.8v10.4h-7.5v-17.2h48.3L1716.2,609.6z"
			/>
		<path class="st1" d="M1074.1,714.3c0,8.8-6.3,13.8-16.7,13.8h-30v-9.1h6v-32.2h-6v-9.1h27.8c10.6,0,17,4.4,17,13
			c0,6.1-3.2,9.7-9.3,11.4C1070.2,703.6,1074.1,707.3,1074.1,714.3z M1044.1,698.7h9.9c5.2,0,7.2-2.8,7.2-6.1c0-3.8-2.8-5.7-7.4-5.7
			h-9.7L1044.1,698.7z M1063.1,712.9c0-3.5-2.4-6-8.5-6h-10.4v12.2h10.6C1059.8,719.1,1063.1,716.9,1063.1,712.9z"/>
		<path class="st1" d="M1126.2,719.1v9.1h-13.5l-5.4-17.7c-0.9-2.6-1.9-3.5-4.4-3.5h-8.5v12.1h5.9v9.1h-22.6v-9.1h6v-32.2h-6v-9.1
			h27.4c12.6,0,18.9,5.1,18.9,13.7c0,6-3.2,10.2-8.6,12.1v0.2c0.5,0.6,0.9,1.3,1.2,2.1l4.9,13.2H1126.2z M1104.9,698.8
			c5.4,0,8.3-2,8.3-6.2s-3.2-5.8-8.2-5.8h-10.5v11.9H1104.9z"/>
		<path class="st1" d="M1181.6,677.8v9.1h-5.7v21.3c0,12.5-8.1,20.7-21.2,20.7s-21.2-8.1-21.2-20.7v-21.3h-5.7v-9.1h22.7v9.1h-6.3
			v21.4c0,6.6,4,10.9,11,10.9s11.1-4.3,11.1-10.9v-21.4h-6.3v-9.1H1181.6z"/>
		<path class="st1" d="M1234.2,708.5c-2.2,12.3-12,20.5-25.4,20.5c-15.3,0-26.1-10.9-26.1-26.2s10.7-25.8,24.3-25.8
			c9.5,0,14.8,5.2,16,14.9h0.3v-14.1h10.7V698h-10.7c-1.7-6.6-7.2-10.7-14.5-10.7c-8.8,0-14.9,6.4-14.9,15.6
			c0,9.4,6.1,15.9,14.8,15.9c7.5,0,13-4.8,14.4-12L1234.2,708.5z"/>
		<path class="st1" d="M1287.4,710.6v17.5h-49.1v-9.1h6v-32.2h-6v-9.1h48.5v17.6h-10.7v-8.5h-21.1v11.8h16v8.2h-16v12.2h21.7v-8.5
			H1287.4z"/>
		<path class="st1" d="M1366,719.1v9.1h-23.3v-9.1h7.6l-2.5-7h-18.1l-2.5,7h7.9v9.1h-22.3v-9.1h4l16-41.2h13.4l16,41.2H1366z
			 M1344.8,703.9l-5.6-15.6h-0.9l-5.6,15.6H1344.8z"/>
		<path class="st1" d="M1425.8,677.8v9.1h-5.9v41.2h-14.8l-19.9-37.3h-0.9v28.3h5.8v9.1h-20.9v-9.1h5.9v-32.2h-5.9v-9.1h21.4
			l19.2,36.1h1.1v-27h-5.9v-9.1L1425.8,677.8z"/>
		<path class="st1" d="M1480.6,702.8c0,14.9-10.8,25.3-26.7,25.3h-25v-9.1h5.9v-32.2h-5.9v-9.1h25
			C1469.8,677.9,1480.6,688.2,1480.6,702.8z M1469.4,702.8c0-9.5-6.2-16-15.7-16h-8.1V719h8.1
			C1463.1,719.1,1469.4,712.5,1469.4,702.8L1469.4,702.8z"/>
		<path class="st1" d="M1549.2,713.8c0,9.5-6,15-16.6,15c-8.6,0-13.6-3.6-14.4-10.4h-0.4v9.7h-10.7v-15.7h10.7c1,5.2,5.7,8.5,12,8.5
			c5.4,0,8.3-2.2,8.3-6.2s-3-6-10.9-7c-13.7-1.5-20.5-7.1-20.5-16.8c0-8.7,5.8-14,15.9-14c8.3,0,13,3.6,13.8,10.5h0.3v-9.8h10.7
			v15.5h-10.7c-0.9-5.2-5.4-8.5-11.4-8.5c-4.7,0-7.6,2-7.6,5.3c0,3.5,3,5.6,10.9,6.9C1543,698.7,1549.2,703.8,1549.2,713.8z"/>
		<path class="st1" d="M1554.3,702.8c0-15.2,10.9-25.8,26.7-25.8s26.7,10.6,26.7,25.8c0,15.4-10.9,26.2-26.7,26.2
			S1554.3,718.3,1554.3,702.8z M1596.5,702.8c0-9.2-6.4-15.6-15.5-15.6s-15.4,6.4-15.4,15.6s6.3,15.8,15.4,15.8
			S1596.5,712.2,1596.5,702.8L1596.5,702.8z"/>
		<path class="st1" d="M1666.9,677.8v9.1h-5.9v41.2h-14.8l-19.9-37.3h-0.9v28.3h5.8v9.1h-20.9v-9.1h5.9v-32.2h-5.9v-9.1h21.4
			l19.2,36.1h1.1v-27h-5.9v-9.1L1666.9,677.8z"/>
		<path class="st1" d="M1713.4,713.8c0,9.5-6,15-16.6,15c-8.5,0-13.6-3.6-14.4-10.4h-0.4v9.7h-10.7v-15.7h10.7c1,5.2,5.7,8.5,12,8.5
			c5.4,0,8.3-2.2,8.3-6.2s-3-6-10.8-7c-13.7-1.5-20.5-7.1-20.5-16.8c0-8.7,5.8-14,15.9-14c8.3,0,13,3.6,13.8,10.5h0.3v-9.8h10.7
			v15.5h-10.7c-0.9-5.2-5.4-8.5-11.4-8.5c-4.7,0-7.6,2-7.6,5.3c0,3.5,3,5.6,10.9,6.9C1707.2,698.7,1713.4,703.8,1713.4,713.8z"/>
		<path class="st1" d="M1081.3,802.5V814h-24.8v-11.5h5.8l-1.8-5.4h-14.9l-1.8,5.4h6.4V814h-23.5v-11.5h3.7l14.7-39.3h18.1
			l14.6,39.3H1081.3z M1057.3,787.2l-3.8-11.6h-0.7l-3.8,11.6H1057.3z"/>
		<path class="st1" d="M1150.9,774.7v27.8h4.7V814h-23.4v-11.5h4.7v-27.8h-0.6l-10.2,39.3h-12.4l-10.1-39.3h-0.6v27.8h4.6V814h-22.3
			v-11.5h4.7v-27.8h-4.7v-11.5h29.3l-0.1,0.2l1.6-0.2l5.4,26.3l6.3-26.3h27.8v11.5H1150.9z"/>
		<path class="st1" d="M1212.6,794.2V814h-50.8v-11.5h4.8v-27.8h-4.8v-11.5h50.3v19.7h-14v-8.2h-17.4v8.7h13v10h-13v9.1h18v-8.3
			L1212.6,794.2z"/>
		<path class="st1" d="M1268,802.5V814h-15.8l-4.8-17.9c-0.5-1.9-1.3-2.5-3-2.5h-7.2v8.9h4.9V814h-23.6v-11.5h4.8v-27.8h-4.8v-11.5
			h28.1c13.6,0,20.5,5.3,20.5,14.2c0,5.9-3.1,9.5-7.8,11.5v0.4c0.4,0.5,0.7,1.1,0.9,1.7l3.9,11.5H1268z M1246.2,783.6
			c4.1,0,6.3-1.5,6.3-4.5s-2.5-4.4-6.2-4.4h-9.1v8.9H1246.2z"/>
		<path class="st1" d="M1273,763.2h23.6v11.5h-4.8v27.8h4.8V814H1273v-11.5h4.8v-27.8h-4.8V763.2z"/>
		<path class="st1" d="M1352.8,793.3c-2,12.9-12.2,21.5-26.3,21.5c-15.8,0-26.8-10.9-26.8-26.3s11-26.1,23.7-26.1
			c8.9,0,13.8,5.1,14.7,15.3h0.5v-14.4h14V784h-14c-1.6-5.1-6.1-8.3-11.9-8.3c-7.3,0-12.4,5.2-12.4,12.8s5,13.1,12.2,13.1
			c6.3,0,10.9-4.2,11.9-10.5L1352.8,793.3z"/>
		<path class="st1" d="M1408.5,802.5V814h-24.8v-11.5h5.8l-1.8-5.4h-14.9l-1.8,5.4h6.3V814h-23.5v-11.5h3.7l14.7-39.3h18.1
			l14.7,39.3H1408.5z M1384.5,787.2l-3.8-11.6h-0.7l-3.9,11.6H1384.5z"/>
		<path class="st1" d="M1469.2,763.2v11.5h-4.8V814h-19.7l-15.2-33h-1v21.5h4.8V814h-21v-11.5h4.7v-27.8h-4.7v-11.5h24.7l14.9,32.3
			h1v-20.8h-4.8v-11.5H1469.2z"/>
		<path class="st1" d="M1543.4,763.2v20.1h-14v-8.7H1514v8.7h11.2v10H1514v9.1h8V814h-26.9v-11.5h4.8v-27.8h-4.8v-11.5H1543.4z"/>
		<path class="st1" d="M1546.8,788.5c0-15.4,11.2-26.2,27.3-26.2s27.3,10.8,27.3,26.2c0,15.6-11.1,26.3-27.3,26.3
			S1546.8,804,1546.8,788.5z M1586.9,788.5c0-7.5-5.2-12.8-12.8-12.8s-12.8,5.2-12.8,12.8s5.2,13,12.8,13S1586.9,796.2,1586.9,788.5
			z"/>
		<path class="st1" d="M1661.3,763.2v11.5h-4.8V814h-19.7l-15.2-33h-1v21.5h4.8V814h-21v-11.5h4.7v-27.8h-4.7v-11.5h24.7l14.8,32.3
			h1v-20.8h-4.8v-11.5H1661.3z"/>
		<path class="st1" d="M1715.7,784.2h-12.4v-9.5h-6.3v27.8h4.8V814h-23.5v-11.5h4.7v-27.8h-6.2v9.5h-12.4v-21h51.3L1715.7,784.2z"/>
		<path class="st1" d="M1082.7,886.1v13.7h-26.2v-13.7h4.2l-1.1-3.7h-12l-1.1,3.7h5v13.7h-24.6v-13.7h3.4l13.4-37.4h22.4l13.4,37.4
			H1082.7z M1056.1,870.7l-2.3-8h-0.3l-2.3,8H1056.1z"/>
		<path class="st1" d="M1108.3,881.3v-2.2h17.1v2.2c0,1.9,0.5,3,1.8,3s1.8-1.1,1.8-3v-18.9h-5.7v-13.7h26.6v13.7h-3.8v19
			c0,11.5-5.6,19.1-18.9,19.1S1108.3,893.3,1108.3,881.3z"/>
		<path class="st1" d="M1153.2,874.1c0-15.5,11.4-26.3,28-26.3s28,10.9,28,26.3c0,15.7-11.4,26.6-28,26.6S1153.2,889.8,1153.2,874.1
			z M1191.5,874.1c0-6-4.2-10.2-10.3-10.2s-10.3,4.2-10.3,10.2s4.2,10.5,10.3,10.5S1191.5,880.2,1191.5,874.1z"/>
		<path class="st1" d="M1263.5,885.8c0,9-7.3,14-19.3,14h-32.6v-13.7h3.8v-23.7h-3.8v-13.7h30.4c12.2,0,19.6,4.4,19.6,13.1
			c0,6.2-3.7,9.9-10.9,11.5C1259.1,874.8,1263.5,878.6,1263.5,885.8z M1232.5,868.1h7.8c2.8,0,4.2-1,4.2-2.8s-1.4-2.9-4.2-2.9h-7.8
			V868.1z M1246.4,883c0-2-1.6-3.1-4.7-3.1h-9.1v6.2h9.1C1244.6,886.1,1246.4,884.9,1246.4,883z"/>
		<path class="st1" d="M1318.9,885.8c0,9-7.3,14-19.3,14h-32.6v-13.7h3.8v-23.7h-3.8v-13.7h30.4c12.2,0,19.6,4.4,19.6,13.1
			c0,6.2-3.7,9.9-10.8,11.5C1314.4,874.8,1318.9,878.6,1318.9,885.8z M1287.9,868.1h7.8c2.8,0,4.2-1,4.2-2.8s-1.4-2.9-4.2-2.9h-7.8
			V868.1z M1301.7,883c0-2-1.6-3.1-4.7-3.1h-9.1v6.2h9.1C1300,886.1,1301.7,884.9,1301.7,883z"/>
		<path class="st1" d="M1322.4,848.7h24.6v13.7h-3.8v23.7h3.8v13.7h-24.6v-13.7h3.8v-23.7h-3.8L1322.4,848.7z"/>
		<path class="st1" d="M1409.5,848.7v13.7h-3.6v37.4h-24.1l-11.5-29.1h-0.3v15.4h3.6v13.7h-21.1v-13.7h3.6v-23.7h-3.6v-13.7h27.8
			l11.4,28.9h0.3v-15.2h-3.6v-13.7H1409.5z"/>
		<path class="st1" d="M1469.6,881.4h-3.7v18.3h-9.5l-2.8-5.4c-3.6,4.3-8.7,6.3-15.4,6.3c-15.7,0-26.9-10.9-26.9-26.6
			c0-15.5,11.2-26.3,23.3-26.3c8.2,0,12.7,4.9,13.4,15h0.5v-14.1h17.1v20.5h-17.1c-1.3-3.3-4.8-5.4-9.2-5.4
			c-6.2,0-10.3,4.2-10.3,10.3c0,6.5,3.9,10.9,10.7,10.9c3.4,0,6.7-1.2,9.3-3.4v-0.2h-11.6v-10.5h32.3L1469.6,881.4z"/>
		<path class="st1" d="M1547.9,871.4h-14.8v-9.1h-3v23.7h3.6v13.7h-24.4v-13.7h3.7v-23.7h-3v9.1h-14.8v-22.8h52.7L1547.9,871.4z"/>
		<path class="st1" d="M1604.6,848.7v13.7h-2.9l-15.4,18.2v5.5h3.7v13.7h-24.4v-13.7h3.6v-5.5l-15.4-18.2h-2.9v-13.7h27.2v13.7h-4.4
			l6,7.6l6-7.6h-4.4v-13.7H1604.6z"/>
		<path class="st1" d="M1658.3,864.2c0,9.9-7.6,15.7-21.6,15.7h-7.3v6.2h3.8v13.7h-24.6v-13.7h3.8v-23.7h-3.8v-13.7h28.4
			C1651.2,848.7,1658.3,854.5,1658.3,864.2z M1640.5,865.2c0-2-1.7-2.8-4.2-2.8h-6.9v5.8h6.8C1639,868.2,1640.5,867.2,1640.5,865.2z
			"/>
		<path class="st1" d="M1713.9,878.1v21.7h-52.5v-13.7h3.8v-23.7h-3.8v-13.7h51.9v21.7h-17.1v-8h-14v5.8h10.1v11.7h-10.1v6.2h14.6
			v-7.9L1713.9,878.1z"/>
	</g>
</g>
</svg>
