<?xml version="1.0" encoding="utf-8"?>
<!-- Generator: Adobe Illustrator 22.0.1, SVG Export Plug-In . SVG Version: 6.00 Build 0)  -->
<svg version="1.1" id="Layer_1" xmlns="http://www.w3.org/2000/svg" xmlns:xlink="http://www.w3.org/1999/xlink" x="0px" y="0px"
	 viewBox="0 0 3840.5 2160.3" style="enable-background:new 0 0 3840.5 2160.3;" xml:space="preserve">
<style type="text/css">
	.st0{fill:#323232;}
	.st1{fill:#FFFFFF;}
</style>
<title>Asset 5</title>
<rect x="0.2" y="0.1" class="st0" width="1680" height="2160"/>
<path class="st1" d="M1318.4,1237.5c1,7,1.4,13.8,1.4,20.8c0,177.4-118.6,266-360,266H584v-7.8h47c49.6,0,75.6-24.8,80.8-79.6
	c-143.4-7.8-241.2-79.6-288.2-203.4c-44.4-10.4-57.4-40.4-91.4-40.4c-19.6,0-33.8,24.8-37.8,73h-7.8l15.6-236h7.8
	c9.2,87.4,43,169.6,109.6,193c-19.6-53.4-28.8-117.4-28.8-189.2c0-14.4,1.2-30,1.2-45.6c-54.8-23.4-101.8-52.2-101.8-114.8
	c0-73,64-117.4,122.6-117.4c17.2,0,34.2,4,49.6,11.8c56-83.4,143.4-133,250.4-138.2c-2.6-53.4-27.4-78.2-82.2-78.2h-47v-7.8h437
	c164.4,0,271.4,90,271.4,227v1.4c41.8,11.8,57.4,39.2,86,39.2c13,0,24.8-7.8,27.4-32.6h7.8l4,157.8h-7.8
	c-11.8-80.8-62.6-138.2-117.4-155.2c-4,101.8-58.6,168.2-169.6,198.2v26c112.2,32.6,184,112.2,195.6,223c48.2-23.4,87.4-75.6,86-150
	h4l11.8,27.4C1407,1165.7,1373.2,1216.7,1318.4,1237.5z M573.6,1133.1c0,7.8-0.8,15.8-2.6,23.4c13-23.4,15.6-43,15.6-62.6
	c0-189.2-264.8-127.8-264.8-260.8c-0.2-8.8,0.6-17.4,2.6-26c-13,14.4-24.8,32.6-24.8,66.6C299.6,1001.3,573.6,959.7,573.6,1133.1z
	 M358.4,1190.5c-14.4-11.8-37.8-67.8-50.8-112.2l-6.6,126.6c5-12,17-19.8,30-19.6C340,1185.3,350.4,1185.3,358.4,1190.5
	L358.4,1190.5z M310,873.5c0.2-8.4,1-16.6,2.6-24.8c17,125.4,249.2,77,263.6,232.2C539.6,963.5,310,971.3,310,873.5z M312.6,1118.7
	c6.6,27.4,20.8,53.4,27.4,60c-5.2-2.6-10.4-2.6-15.6-2.6c-5.4,0.2-10.6,2.4-14.4,6.6L312.6,1118.7z M331,833.1c0,39.2,31.2,60,73,77
	c10-48,28.2-93.8,53.4-135.6c-13.8-6.6-29-10.2-44.4-10.4C367.4,764.1,331,788.9,331,833.1L331,833.1z M445.8,1010.5v23.6
	c0,71.8,10.4,138.2,31.4,194.4c47-7.8,84.8-43,84.8-95.2C561.8,1064.1,507,1035.3,445.8,1010.5L445.8,1010.5z M713.2,1429.3v-336.6
	c-43-5.2-75.6-39.2-75.6-86c0-44.4,27.4-78.2,75.6-101.8v-266c-91.2,6.6-165.6,62.6-212.6,151.4c9.2,4,17,7.8,26,7.8
	c13,0,24.8-7.8,27.4-32.6h7.8l4,157.8H558c-7.8-49.6-31.2-92.6-62.6-122.6c-19.6,40.8-33.2,84.4-40.4,129.2
	c69.2,26,140.8,61.2,140.8,164.4c0,87.4-54.8,133-116,142.2C521.4,1347.1,602.2,1418.7,713.2,1429.3L713.2,1429.3z M556.6,880.1
	l-2.6-84.8c-5.2,9.2-17,11.8-24.8,11.8c-6.6-0.2-13.2-1-19.6-2.6C521.4,813.5,544.8,844.9,556.6,880.1z M547.4,809.7l2.6,39.2
	c-5.2-17-15.6-30-22.2-35.2c2,1,4.2,1.4,6.6,1.2C539.2,814.5,543.8,812.7,547.4,809.7z M775.8,1069.3c-5.2,0-10.4,1.4-15.6,1.4
	c-50.8,1.4-78.2-28.6-78.2-83.4c0-27.4,7.8-50.8,22.2-67.8c-38,20.6-57.6,50.6-57.6,87.2c0,45.6,32.6,78.2,78.2,78.2
	C743,1084.9,760.8,1079.5,775.8,1069.3z M731.4,1075.7h-6.6c-40.4,0-69.2-28.6-69.2-69.2c0-20.8,7.8-39.2,23.4-58.8
	c-4.6,12.6-6.8,25.8-6.6,39.2C672.6,1037.9,691,1065.3,731.4,1075.7L731.4,1075.7z M713.2,921.7c-14.4,15.6-22.2,36.6-22.2,65.2
	c0,26,6.6,48.2,22.2,61.4V921.7z M761.4,630.9c103,10.4,138.2,71.8,174.8,71.8c15.6,0,24.8-15.6,31.2-53.4h7.8v236.2
	c13,7.8,20.8,22.2,20.8,39.2c0,19.6-14.4,34-36.6,34c-22.2,0-36.6-14.4-36.6-34s14.4-34,36.6-34c3.6-0.2,7,0.2,10.4,1.2
	c-6.6-6.6-15.6-9.2-28.6-9.2c-28.8,0-58.8,14.4-79.6,67.8c10.4,15.6,20.8,28.6,28.8,39.2h121.4c12.2-0.2,24.4-1,36.6-2.6
	c4-122.6,91.4-211.4,189.2-219.2c-1.2-125.2-101.8-216.6-238.8-216.6H842.2C788.8,551.3,764,576.1,761.4,630.9L761.4,630.9z
	 M774.4,885.3c-8.2-19.4-12.8-40.2-13-61.2c0-41.8,24.8-64,56-64c32.6,0,54.8,20.8,54.8,50.8c0,28.8-20.8,50.8-56,67.8
	c10.4,19.6,23.4,39.2,36.6,58.6c2.6,2.6,4,6.6,6.6,9.2c13-45.6,45.6-71.8,82.2-71.8c8.6-0.4,17,1.4,24.8,5.2
	c-18.2-146-100.4-228.2-204.8-241.4v249.2C765.2,886.7,769.2,886.7,774.4,885.3L774.4,885.3z M761.4,989.5h64
	c-0.4-2-1.2-3.8-2.6-5.2c-19.6-32.6-35.2-64-45.6-92.6l-15.6,4L761.4,989.5z M1264.8,1249.3h-7.8c-116,0-204.8-100.4-208.6-245.2
	c-22.4-4.2-45-6.4-67.8-6.6h-83.4c36.6,43,57.4,52.2,74.4,52.2s30-9.2,43-41.8l4,1.4c-18.2,54.8-37.8,79.6-70.4,79.6
	c-37.8,0-77-31.4-109.6-79.6c-20.8,37.8-47,65.2-77,77v343c65.2-10.4,163-60,163-207.4c0-61.4-7.8-104.4-53.4-104.4h-34v-7.8H1068
	v7.8h-34c-39.2,0-57.4,36.6-57.4,97.8c0,61.2,2.6,107,32.6,144.8l-5.2,4c-14.4-20.8-31.2-37.8-50.8-37.8
	c-48.2,0-82.2,97.8-190.4,110.8c4,54.8,24.8,79.6,64,79.6H1012c147.4,0,253-108.2,253-258.2L1264.8,1249.3z M835.8,1004.1
	c-2.2-1.8-3.8-4-5.2-6.6h-69.2v64C788.8,1060.1,807,1048.3,835.8,1004.1z M948,1079.7c17,0,28.8-6.6,40.4-24.8c-5.2,2.8-11,4-17,4
	c-34,0-71.8-35.2-126.6-116c-31.2-47-61.2-96.6-61.2-140.8c0-9.2,1.2-17,5.2-23.4c-11.8,9.2-18.2,24.8-18.2,45.6
	c0,36.6,19.6,86,60,155.2C868.4,1044.5,911.4,1079.7,948,1079.7L948,1079.7z M838.4,974.1c-39.2-67.8-52.2-99.2-60-143.4
	c14.4,47,36.6,83.4,58.8,117.4c53.4,79.6,92.6,114.8,130.4,118.6c-6.2,2.6-12.8,4-19.6,4C914,1070.5,873.6,1035.3,838.4,974.1z
	 M813.6,872.3c19.6-15.6,31.2-30,31.2-57.4s-11.8-47-28.6-47c-18.2,0-23.4,23.4-23.4,34C792.6,824.1,800.4,847.5,813.6,872.3
	L813.6,872.3z M854,814.9c0,13-2.6,23.4-7.8,32.6c11.8-10.4,17-22.2,17-36.6c0-15.6-6.6-27.4-18.2-35.2
	C851,787.9,854,801.3,854,814.9L854,814.9z M988.4,924.5c0-15.6-11.8-26-28.8-26s-28.8,10.4-28.8,26s11.8,26,28.8,26
	C976.6,950.5,988.4,940.1,988.4,924.5z M941.4,924.5c0-9.2,6.6-17,18.2-17c11.6,0,18.2,7.8,18.2,17s-6.6,17-18.2,17
	S941.4,933.7,941.4,924.5z M1109.6,994.9c0-84.8,22.2-152.6,58.6-193c-64,35.2-107,108.2-107,193c0,104.4,44.4,185.2,113.4,221.8
	C1133.2,1172.3,1109.6,1094.1,1109.6,994.9L1109.6,994.9z M1074.4,994.9c0-50.8,15.6-97.8,44.4-133c-14.4,37.8-22.2,82.2-22.2,133
	c0,61.4,9.2,116,24.8,159.2C1091.4,1113.5,1074.4,1058.7,1074.4,994.9L1074.4,994.9z M1237.4,775.9c-64,11.8-107,83.4-113.4,187.8
	C1191.8,929.7,1236.2,860.5,1237.4,775.9L1237.4,775.9z M1124,1030.1c7.8,125.2,57.4,211.4,135.6,211.4h5.2
	C1258.4,1147.5,1204.8,1070.5,1124,1030.1z M1308,893.1c50.8,0,79.6,44.4,79.6,101.8c0,54.8-28.6,96.6-79.6,96.6
	c-52.2,0-80.8-41.8-80.8-96.6C1227,937.5,1255.8,893.1,1308,893.1L1308,893.1z M1276.6,1075.7c-10.4-15.6-15.6-43-15.6-80.8
	c0-39.2,5.2-69.2,17-86c-26,14.4-41.8,44.4-41.8,86C1236.2,1034.1,1251.8,1064.1,1276.6,1075.7z M1258.4,937.5
	c-4,15.6-5.2,35.2-5.2,57.4c0,20.8,1.4,39.2,5.2,53.4c-9.2-14.4-14.4-32.6-14.4-53.4C1244,972.7,1249.2,953.1,1258.4,937.5z
	 M1308,900.9c-26,0-37.8,37.8-37.8,94c0,54.8,11.8,88.8,37.8,88.8s37.8-34,37.8-88.8C1345.8,938.9,1334,900.9,1308,900.9L1308,900.9
	z M1338,910.1c11.8,17,17,45.6,17,84.8c0,37.8-5.2,64-15.6,80.8c24.8-13,39.2-41.8,39.2-80.8C1378.4,953.1,1364,923.1,1338,910.1
	L1338,910.1z M1362.6,994.9c0-22.2-1.4-40.4-5.2-54.8c9.2,13,13,32.6,13,54.8c0,19.6-4,37.8-11.8,50.8
	C1361.6,1028.9,1362.8,1011.9,1362.6,994.9L1362.6,994.9z M1374.4,824.1c11.8,13,20.8,28.8,28.6,44.4l-1.2-52.4
	c-6.6,5.4-15,8.2-23.4,8H1374.4z M1396.6,825.5l1.4,20.8c-2-6.4-5.6-12.2-10.4-17C1391,829.1,1394.2,827.7,1396.6,825.5
	L1396.6,825.5z"/>
<g>
	<polygon class="st0" points="1824.3,645.5 1824.3,649.9 1942.5,649.9 1942.5,602 1937.7,602 1937.7,645.5 1856.2,645.5 
		1856.2,508.6 1884,508.6 1884,504.1 1824.3,504.1 1824.3,508.6 1851.7,508.6 1851.7,645.5 	"/>
	<polygon class="st0" points="1962.5,508.6 1989.8,508.6 1989.8,645.5 1962.5,645.5 1962.5,649.9 2021.7,649.9 2021.7,645.5 
		1994.4,645.5 1994.4,508.6 2021.7,508.6 2021.7,504.1 1962.5,504.1 	"/>
	<path class="st0" d="M2117.5,507.5c33.7,0,56.8,18.6,63.4,53.9h4.7v-57.2h-4.7v44.1h-0.4c-7-26.8-28.2-45.5-62.9-45.5
		c-44.3,0-73.3,30.6-73.3,74.1c0,44.1,30.3,74.8,71.9,74.8c31.2,0,56.2-18.7,65.9-48.3l1.3,46.7h3.2v-63.4h18.7v-4.7h-77v4.7h53.3
		v0.4c-5.3,36.3-31.2,59.7-65.6,59.7c-38.8,0-67-28.7-67-70C2049.2,535.7,2076,507.5,2117.5,507.5z"/>
	<polygon class="st0" points="2223.3,645.5 2223.3,649.9 2282.6,649.9 2282.6,645.5 2255.3,645.5 2255.3,578.6 2358.8,578.6 
		2358.8,645.5 2331.4,645.5 2331.4,649.9 2390.7,649.9 2390.7,645.5 2363.6,645.5 2363.6,508.6 2390.7,508.6 2390.7,504.1 
		2331.4,504.1 2331.4,508.6 2358.8,508.6 2358.8,574.1 2255.3,574.1 2255.3,508.6 2282.6,508.6 2282.6,504.1 2223.3,504.1 
		2223.3,508.6 2250.6,508.6 2250.6,645.5 	"/>
	<polygon class="st0" points="2544,546.5 2544,504.1 2410.6,504.1 2410.6,546.5 2415.6,546.5 2415.6,508.6 2474.9,508.6 
		2474.9,645.5 2447.5,645.5 2447.5,649.9 2506.8,649.9 2506.8,645.5 2479.7,645.5 2479.7,508.6 2539.1,508.6 2539.1,546.5 	"/>
	<path class="st0" d="M2698,645.5h-40.7l19.9-46.7h76.4l19.9,46.7h-40.7v4.4h62.4v-4.4h-16.5l-60.3-141.2h-5.9l-60.3,141.2h-16.5
		v4.4h62.1v-4.4H2698z M2714.9,509.9h0.7l35.9,84.3h-72.5L2714.9,509.9z"/>
	<polygon class="st0" points="2816.5,645.5 2816.5,649.9 2875.5,649.9 2875.5,645.5 2848.3,645.5 2848.3,509.4 2849.3,509.4 
		2951.6,649.9 2958.2,649.9 2958.2,508.6 2985.6,508.6 2985.6,504.1 2924.1,504.1 2924.1,508.6 2953.8,508.6 2953.8,643.4 
		2952.8,643.4 2851.2,504.1 2816.5,504.1 2816.5,508.5 2843.9,508.5 2843.9,645.5 	"/>
	<path class="st0" d="M3003.3,504.1v4.4h27.4v136.9h-27.4v4.4h70.1c46.7,0,76.7-30,76.7-73.3c0-42.6-30-72.5-76.7-72.5h-70.1V504.1z
		 M3145.3,576.7c0,40.5-28,68.8-71.7,68.8h-38.2V508.6h38.2C3117.3,508.6,3145.3,536.6,3145.3,576.7z"/>
	<path class="st0" d="M3330.8,504.1h-5.9l-60.3,141.2h-16.5v4.4h62.1v-4.4h-40.7l19.9-46.7h76.4l19.9,46.7H3345v4.4h62.4v-4.4h-16.5
		L3330.8,504.1z M3291.5,594.3l35.9-84.3h0.7l35.9,84.3H3291.5z"/>
	<polygon class="st0" points="3428.9,645.5 3428.9,649.9 3488.2,649.9 3488.2,645.5 3461,645.5 3461,508.6 3488.2,508.6 
		3488.2,504.1 3428.9,504.1 3428.9,508.6 3456.3,508.6 3456.3,645.5 	"/>
	<path class="st0" d="M3511.6,645.5v4.4h59.3v-4.4h-27.4v-66.9h51.4c9.7,0,14.3,3.4,17.9,13.3l20.2,58h21.1v-4.4h-17.3l-19.9-56.2
		c-2.3-6.6-5.6-10.8-11.9-12.6c20.8-2.9,35.9-17.1,35.9-37.2c0-21.4-16.5-35.3-49.5-35.3h-79.9v4.4h27.4v136.9L3511.6,645.5
		L3511.6,645.5z M3543.7,508.6h47.7c29.4,0,44.8,12.1,44.8,31.2c0,19.6-15.7,34.3-44.9,34.3h-47.4v-65.4H3543.7z"/>
	<polygon class="st0" points="3776.5,508.6 3811.5,508.6 3756,578 3755.3,578 3699.7,508.6 3733.9,508.6 3733.9,504.1 3675.1,504.1 
		3675.1,508.6 3693.7,508.6 3753,582.7 3753,645.5 3725.6,645.5 3725.6,649.9 3784.9,649.9 3784.9,645.5 3757.8,645.5 3757.8,582.7 
		3816.9,508.6 3835.5,508.6 3835.5,504.1 3776.5,504.1 	"/>
	<path class="st0" d="M1901.6,253.9c34.8,0,59.6,19,66.2,56.2h2.3v-57.2h-2.3v48.3h-0.1c-7.2-30.4-30.4-49.8-65.9-49.8
		c-44.1,0-72.5,30.6-72.5,74.1c0,44.1,30.3,74.8,72.2,74.8c36,0,62.9-23.4,70-58.7l-2.5-0.6c-6.6,34.3-32.8,56.8-67.5,56.8
		c-40.3,0-69.4-29.7-69.4-72.3C1831.9,283.4,1859,253.9,1901.6,253.9z"/>
	<path class="st0" d="M2067.7,400c43.6,0,73.6-30.6,73.6-74.6c0-43.5-30-73.9-73.6-73.9c-43.5,0-73.5,30.4-73.5,73.9
		C1994.2,369.4,2024.2,400,2067.7,400z M2067.7,253.9c42.3,0,71.1,29.4,71.1,71.6c0,42.6-28.8,72.3-71.1,72.3
		c-42,0-71.1-29.7-71.1-72.3C1996.6,283.4,2025.7,253.9,2067.7,253.9z"/>
	<polygon class="st0" points="2159.3,255.1 2187.6,255.1 2187.6,396.4 2159.3,396.4 2159.3,398.7 2218,398.7 2218,396.4 
		2189.9,396.4 2189.9,255.4 2190.5,255.4 2297.5,398.7 2300.9,398.7 2300.9,255.3 2329,255.3 2329,252.9 2267.6,252.9 2267.6,255.3 
		2298.7,255.3 2298.7,395.8 2298.1,395.8 2191.5,252.9 2159.3,252.9 	"/>
	<polygon class="st0" points="2341.1,294.3 2343.4,294.3 2343.4,255.3 2406.1,255.3 2406.1,396.4 2377.7,396.4 2377.7,398.7 
		2436.5,398.7 2436.5,396.4 2408.4,396.4 2408.4,255.3 2470.9,255.3 2470.9,294.3 2473.3,294.3 2473.3,252.9 2341.1,252.9 	"/>
	<path class="st0" d="M2488.1,255.3h28.2v141.1h-28.2v2.3h59.1v-2.3h-28.2v-70.1h54.6c9.7,0,14.5,3.2,18,13.3l20.5,59.1h19.6v-2.3
		h-17.9l-20.2-58c-2.8-7.8-6-12.1-14.8-13.3c22.1-2.2,38.8-16.5,38.8-37.2c0-20.9-16.5-34.8-49.5-34.8h-80.2v2.2H2488.1z
		 M2518.8,255.3h49.5c31.2,0,47.1,13,47.1,32.5c0,20.2-16.7,36.3-47.3,36.3h-49.2v-68.8H2518.8z"/>
	<path class="st0" d="M2748.3,398.7h62.2v-2.3h-16.8l-61.8-143.4h-3.1l-61.6,143.4h-17.1v2.3h62.2v-2.3h-42.6l21.5-50.1h78.3
		l21.5,50.1h-42.6v2.3H2748.3z M2692.1,344.3l38.1-88.4h0.4l38.1,88.4H2692.1z"/>
	<path class="st0" d="M2832.2,359.2h0.1c4.4,26.2,24,41.4,56.9,41.4c29.7,0,46.1-13.6,46.1-37.8c0-23.1-14.5-34.5-52.1-40.7
		c-37.8-6.1-50.6-15.5-50.6-35.1c0-22,16.5-34,43.5-34c30.4,0,47.1,14.9,51.5,44.1h2.3v-44.2h-2.3V292h-0.1
		c-4.2-25.6-20.3-41.1-51.5-41.1c-28.2,0-45.5,12.7-45.5,36c0,21.1,13.9,31.2,52.5,37.6c36.6,6,50.1,16.5,50.1,38.3
		c0,22.7-15.5,35.4-43.8,35.4c-32.9,0-52.8-15.5-56.9-44.1h-2.3v44.2h2.3v-39.2H2832.2z"/>
	<polygon class="st0" points="2953.4,294.3 2955.7,294.3 2955.7,255.3 3018.2,255.3 3018.2,396.4 2990,396.4 2990,398.7 
		3048.6,398.7 3048.6,396.4 3020.5,396.4 3020.5,255.3 3083.2,255.3 3083.2,294.3 3085.5,294.3 3085.5,252.9 2953.4,252.9 	"/>
	<polygon class="st0" points="3100.2,396.4 3100.2,398.7 3159.3,398.7 3159.3,396.4 3131.1,396.4 3131.1,255.3 3159.3,255.3 
		3159.3,252.9 3100.2,252.9 3100.2,255.3 3128.6,255.3 3128.6,396.4 	"/>
	<polygon class="st0" points="3235.6,396.4 3207.5,396.4 3207.5,255.4 3208,255.4 3315,398.7 3318.3,398.7 3318.3,255.3 
		3346.4,255.3 3346.4,252.9 3285.2,252.9 3285.2,255.3 3316.2,255.3 3316.2,395.8 3315.6,395.8 3208.9,252.9 3176.7,252.9 
		3176.7,255.1 3205.1,255.1 3205.1,396.4 3176.7,396.4 3176.7,398.7 3235.6,398.7 	"/>
	<path class="st0" d="M3437.3,251.3c-44.3,0-73.3,30.6-73.3,74.1c0,44.1,30.3,74.8,71.9,74.8c34,0,60.3-22.2,67.8-56.2l0.6,54.6h1.8
		v-65h18.4v-2.3h-76.6v2.3h55.8c-4.4,38.5-31.9,64-67.6,64c-40.3,0-69.4-29.7-69.4-72.3c0-42,27.5-71.6,70.5-71.6
		c34.8,0,58.7,19,65.3,56.2h2.3v-57.2h-2.3v48.3h-0.1C3495.2,271.1,3473.1,251.3,3437.3,251.3z"/>
	<polygon class="st0" points="3537.8,396.4 3537.8,398.7 3655.9,398.7 3655.9,351 3653.6,351 3653.6,396.4 3568.7,396.4 
		3568.7,255.3 3596.9,255.3 3596.9,252.9 3537.8,252.9 3537.8,255.3 3566.1,255.3 3566.1,396.4 	"/>
	<polygon class="st0" points="3775.8,255.3 3812.4,255.3 3753.1,328.3 3753,328.3 3693.7,255.3 3729.8,255.3 3729.8,252.9 
		3670.7,252.9 3670.7,255.3 3690.6,255.3 3751.8,330.6 3751.8,396.4 3723.6,396.4 3723.6,398.7 3782.2,398.7 3782.2,396.4 
		3754.1,396.4 3754.1,330.6 3815.2,255.3 3834.9,255.3 3834.9,252.9 3775.8,252.9 	"/>
	<polygon class="st0" points="1882.5,146.5 1853.8,146.5 1853.8,74.4 1963.6,74.4 1963.6,146.5 1934.8,146.5 1934.8,147.4 
		1993.3,147.4 1993.3,146.5 1964.6,146.5 1964.6,2.6 1993.3,2.6 1993.3,1.8 1934.8,1.8 1934.8,2.6 1963.6,2.6 1963.6,73.5 
		1853.8,73.5 1853.8,2.6 1882.5,2.6 1882.5,1.8 1824.1,1.8 1824.1,2.6 1853,2.6 1853,146.5 1824.1,146.5 1824.1,147.4 1882.5,147.4 
			"/>
	<path class="st0" d="M2075,146.5h-43.8l22.5-52h79.5l22.5,52H2112v1h62.2v-1H2157L2094.3,1.8h-1.6l-62.6,144.8h-17.3v1h62.2
		L2075,146.5L2075,146.5z M2093.3,2.9h0.4l39.1,90.7h-78.7L2093.3,2.9z"/>
	<polygon class="st0" points="2252.4,146.5 2223.4,146.5 2223.4,2.6 2252.4,2.6 2252.4,1.8 2193.7,1.8 2193.7,2.6 2222.5,2.6 
		2222.5,146.5 2193.7,146.5 2193.7,147.4 2252.4,147.4 	"/>
	<path class="st0" d="M2330.9,146.5H2302V74.4h56.8c9.7,0,14.5,3.4,18,13.3l20.8,59.7h18.6v-0.9h-17.9l-20.5-59.1
		c-2.9-8.3-6-12.7-16.1-13.6v-0.1c22.5-1.8,40.3-16.1,40.3-37.5c0-20.5-16.5-34.5-49.5-34.5H2272v1h28.8v143.9h-28.7v1h58.7V146.5z
		 M2302,2.6h50.6c32.3,0,48.4,13.6,48.4,33.5c0,20.5-17.1,37.2-48.6,37.2h-50.4V2.6H2302z"/>
	<polygon class="st0" points="2553.5,100 2552.6,100 2552.6,146.5 2465.5,146.5 2465.5,2.6 2494.4,2.6 2494.4,1.8 2435.7,1.8 
		2435.7,2.6 2464.6,2.6 2464.6,146.5 2435.7,146.5 2435.7,147.4 2553.5,147.4 	"/>
	<polygon class="st0" points="2629.5,146.5 2600.6,146.5 2600.6,2.6 2629.5,2.6 2629.5,1.8 2570.8,1.8 2570.8,2.6 2599.6,2.6 
		2599.6,146.5 2570.8,146.5 2570.8,147.4 2629.5,147.4 	"/>
	<polygon class="st0" points="2707.8,146.5 2679.1,146.5 2679.1,2.6 2679.5,2.6 2789,147.4 2790.6,147.4 2790.6,2.6 2819.3,2.6 
		2819.3,1.8 2757.8,1.8 2757.8,2.6 2789.6,2.6 2789.6,146.5 2789.4,146.5 2679.9,1.8 2649.2,1.8 2649.2,2.5 2678.2,2.5 
		2678.2,146.5 2649.2,146.5 2649.2,147.4 2707.8,147.4 	"/>
	<polygon class="st0" points="2968.1,111.2 2967.1,111.2 2967.1,146.5 2863.9,146.5 2863.9,74.4 2929.5,74.4 2929.5,73.5 
		2863.9,73.5 2863.9,2.6 2965.4,2.6 2965.4,37.9 2966.4,37.9 2966.4,1.8 2834.2,1.8 2834.2,2.6 2863.1,2.6 2863.1,146.5 
		2834.2,146.5 2834.2,147.4 2968.1,147.4 	"/>
	<path class="st0" d="M3062.1,107.1h0.1c4.4,26.5,24.4,42.3,58,42.3c29.7,0,46-13.3,46-37.5c0-22.8-14.5-34.1-52-40.3
		c-38.8-6.4-51.5-16-51.5-36c0-22.7,16.8-34.8,44.6-34.8c31.2,0,48,15.1,52.5,45.2h1V1.9h-1v40h-0.1C3155.5,16,3139.3,0,3107.3,0
		c-28.2,0-45.5,12.6-45.5,35.9c0,20.9,13.8,30.6,52.4,37c37.5,6.1,51.2,17.1,51.2,39.4c0,23.4-16,36.4-44.9,36.4
		c-33.7,0-54-15.7-58.1-45.2h-1v44.2h1v-40.5H3062.1z"/>
	<polygon class="st0" points="3320.7,111.2 3319.9,111.2 3319.9,146.5 3216.7,146.5 3216.7,74.4 3282.3,74.4 3282.3,73.5 
		3216.7,73.5 3216.7,2.6 3318.1,2.6 3318.1,37.9 3319,37.9 3319,1.8 3186.8,1.8 3186.8,2.6 3215.8,2.6 3215.8,146.5 3186.8,146.5 
		3186.8,147.4 3320.7,147.4 	"/>
	<path class="st0" d="M3399.5,146.5h-28.8V74.4h56.8c9.7,0,14.5,3.4,18,13.3l20.8,59.7h18.6v-0.9H3467l-20.5-59.1
		c-2.9-8.3-6-12.7-16.1-13.6v-0.1c22.5-1.8,40.3-16.1,40.3-37.5c0-20.5-16.5-34.5-49.5-34.5h-80.5v1h28.8v143.9h-28.8v1h58.7v-1
		H3399.5z M3370.5,2.6h50.6c32.3,0,48.4,13.6,48.4,33.5c0,20.5-17.1,37.2-48.6,37.2h-50.4V2.6H3370.5z"/>
	<polygon class="st0" points="3563,146.5 3534.2,146.5 3534.2,2.6 3563,2.6 3563,1.8 3504.3,1.8 3504.3,2.6 3533.1,2.6 
		3533.1,146.5 3504.3,146.5 3504.3,147.4 3563,147.4 	"/>
	<polygon class="st0" points="3644.2,146.5 3612.6,146.5 3612.6,74.4 3674.8,74.4 3674.8,73.5 3612.6,73.5 3612.6,2.6 3707.7,2.6 
		3707.7,37.9 3708.8,37.9 3708.8,1.8 3582.7,1.8 3582.7,2.6 3611.7,2.6 3611.7,146.5 3582.7,146.5 3582.7,147.4 3644.2,147.4 	"/>
	<path class="st0" d="M3729.3,107.1h0.1c4.4,26.5,24.4,42.3,58,42.3c29.7,0,46-13.3,46-37.5c0-22.8-14.5-34.1-52-40.3
		c-38.8-6.4-51.5-16-51.5-36c0-22.7,16.8-34.8,44.6-34.8c31.2,0,48,15.1,52.5,45.2h1V1.9h-1v40h-0.1C3822.6,16,3806.4,0,3774.5,0
		c-28.2,0-45.5,12.6-45.5,35.9c0,20.9,13.8,30.6,52.4,37c37.5,6.1,51.2,17.1,51.2,39.4c0,23.4-16,36.4-44.9,36.4
		c-33.7,0-54-15.7-58.1-45.2h-1v44.2h1v-40.5H3729.3z"/>
	<path class="st0" d="M1901.6,762.3c31.8,0,54.4,17.9,60.9,50.2h8.8v-57.1h-8.8v43h-0.6c-6.1-26.9-26.9-44.8-60.5-44.8
		c-43.5,0-72.7,30.6-72.7,74.2c0,44.1,30.4,74.9,72.7,74.9c36.3,0,63.4-22.8,70.4-57.5l-9.1-1.9c-6,30.6-29.7,50.8-61.2,50.8
		c-36.9,0-63.2-27.1-63.2-66.3C1838.2,789.2,1863.4,762.3,1901.6,762.3z"/>
	<path class="st0" d="M1996,827.9c0,44.2,30.4,74.9,74.4,74.9c44.1,0,74.4-30.9,74.4-74.9c0-43.6-30.4-74.2-74.4-74.2
		S1996,784.2,1996,827.9z M2070.3,762.3c38.6,0,65.1,26.8,65.1,65.6c0,39.1-26.5,66.3-65.1,66.3c-38.6,0-65-27.1-65-66.3
		C2005.5,789.1,2031.8,762.3,2070.3,762.3z"/>
	<polygon class="st0" points="2295.4,889 2201.8,755.4 2162.7,755.4 2162.7,763.3 2188.4,763.3 2188.4,893 2162.7,893 2162.7,901.2 
		2222.4,901.2 2222.4,893 2196.8,893 2196.8,764.9 2197.7,764.9 2293.1,901.2 2305.1,901.2 2305.1,763.5 2330.7,763.5 2330.7,755.4 
		2269.4,755.4 2269.4,763.5 2296.8,763.5 2296.8,889 	"/>
	<polygon class="st0" points="2479.9,799.6 2479.9,755.4 2344.8,755.4 2344.8,799.6 2353.5,799.6 2353.5,763.5 2407.8,763.5 
		2407.8,893 2382.2,893 2382.2,901.2 2442.2,901.2 2442.2,893 2416.8,893 2416.8,763.5 2470.9,763.5 2470.9,799.6 	"/>
	<polygon class="st0" points="2623.2,893 2531.1,893 2531.1,831.5 2593.3,831.5 2593.3,823.6 2531.1,823.6 2531.1,763.5 
		2621.4,763.5 2621.4,794.9 2630,794.9 2630,755.4 2496.4,755.4 2496.4,763.5 2522.2,763.5 2522.2,893 2496.4,893 2496.4,901.2 
		2631.8,901.2 2631.8,861.5 2623.2,861.5 	"/>
	<polygon class="st0" points="2652.7,893 2652.7,901.2 2713.2,901.2 2713.2,893 2686.8,893 2686.8,763.5 2687.7,763.5 2746.5,901.2 
		2756.2,901.2 2815.6,763.5 2816.4,763.5 2816.4,893 2789.7,893 2789.7,901.2 2850.9,901.2 2850.9,893 2825,893 2825,763.5 
		2850.9,763.5 2850.9,755.4 2809.8,755.4 2809.8,755.6 2809.5,755.4 2751.8,889.9 2694.3,755.4 2694,755.6 2694,755.4 2652.7,755.4 
		2652.7,763.5 2678.5,763.5 2678.5,893 	"/>
	<path class="st0" d="M2932,893h-25.6v-61.5h44.1c37.2,0,50.4-18,50.4-38.3c0-23.7-16.7-37.8-49.8-37.8h-79.3v8.2h25.8V893h-25.8
		v8.2h60.3V893z M2906.4,763.5h44.2c26.8,0,41.1,10.5,41.1,30c0,19.2-13.8,30-40.8,30h-44.3v-60H2906.4z"/>
	<path class="st0" d="M3098.6,753.6c-44.1,0-74.4,30.6-74.4,74.2c0,44.2,30.4,74.9,74.4,74.9s74.4-30.9,74.4-74.9
		C3172.9,784.2,3142.5,753.6,3098.6,753.6z M3098.6,894.2c-38.6,0-65-27.1-65-66.3c0-38.8,26.3-65.6,65-65.6s65.1,26.8,65.1,65.6
		C3163.7,866.9,3137.1,894.2,3098.6,894.2z"/>
	<path class="st0" d="M3190.8,893v8.2h60.3V893h-25.6v-61.5h45.2c9.7,0,14.3,3.2,17.9,13.3l19.3,56.2h24V893h-16.7l-19.6-53.1
		c-1.9-5.3-4.8-9.1-9.1-11.4c19.8-3.7,33.4-17.7,33.4-36.9c0-22.1-16.7-36.3-49.8-36.3h-79.3v8.2h25.8V893H3190.8z M3225.5,763.5
		h44.2c26.8,0,41.1,10.7,41.1,28.7c0,18.6-14.3,31.5-41.3,31.5h-44.1V763.5z"/>
	<path class="st0" d="M3366.1,893h-15.5v8.2h61.8V893h-37.5l17.3-41.3h73l17.4,41.3h-37.5v8.2h62.4V893H3492l-57.8-137.6h-10.7
		L3366.1,893z M3429.4,766.1l32.8,77.7h-66.3l32.5-77.7H3429.4z"/>
	<path class="st0" d="M3604.7,831.5c9.7,0,14.3,3.2,17.9,13.3l19.3,56.2h24V893h-16.7l-19.6-53.1c-1.9-5.3-4.8-9.1-9.1-11.4
		c19.8-3.7,33.4-17.7,33.4-36.9c0-22.1-16.7-36.3-49.8-36.3h-79.3v8.2h25.8V893h-25.8v8.2h60.3V893h-25.6v-61.5H3604.7z
		 M3559.6,763.5h44.2c26.8,0,41.1,10.7,41.1,28.7c0,18.6-14.3,31.5-41.3,31.5h-44.1V763.5z"/>
	<polygon class="st0" points="3753.1,835.2 3753.1,893 3727.4,893 3727.4,901.2 3787.7,901.2 3787.7,893 3761.9,893 3761.9,835.2 
		3818.3,763.5 3834.5,763.5 3834.5,755.4 3775.8,755.4 3775.8,763.5 3808.2,763.5 3758.5,826.8 3757.7,826.8 3708,763.5 
		3739.2,763.5 3739.2,755.4 3680.2,755.4 3680.2,763.5 3696.8,763.5 	"/>
	<polygon class="st0" points="1862.5,1022.2 1948.1,1152.4 1967.7,1152.4 1967.7,1019.7 1991.1,1019.7 1991.1,1006.6 1930,1006.6 
		1930,1019.7 1954.1,1019.7 1954.1,1132.6 1952.8,1132.6 1869.7,1006.6 1824.4,1006.6 1824.4,1019.7 1847.8,1019.7 1847.8,1139.2 
		1824.4,1139.2 1824.4,1152.4 1884.9,1152.4 1884.9,1139.2 1861.5,1139.2 1861.5,1022.2 	"/>
	<polygon class="st0" points="2068.7,1019.7 2068.7,1006.6 2007.2,1006.6 2007.2,1019.7 2030.7,1019.7 2030.7,1139.2 2007.2,1139.2 
		2007.2,1152.4 2068.7,1152.4 2068.7,1139.2 2045.1,1139.2 2045.1,1019.7 	"/>
	<polygon class="st0" points="2092.1,1139.2 2092.1,1152.4 2152.6,1152.4 2152.6,1139.2 2129.2,1139.2 2129.2,1022.2 2130,1022.2 
		2215.7,1152.4 2235.3,1152.4 2235.3,1019.7 2258.7,1019.7 2258.7,1006.6 2197.5,1006.6 2197.5,1019.7 2221.8,1019.7 2221.8,1132.6 
		2220.4,1132.6 2137.2,1006.6 2092.1,1006.6 2092.1,1019.7 2115.6,1019.7 2115.6,1139.2 	"/>
	<polygon class="st0" points="2411.5,1110.5 2396.9,1110.5 2396.9,1139.2 2312.9,1139.2 2312.9,1085.3 2372.7,1085.3 2372.7,1072.4 
		2312.9,1072.4 2312.9,1019.7 2395.3,1019.7 2395.3,1048.4 2409.8,1048.4 2409.8,1006.6 2274.8,1006.6 2274.8,1019.7 2298.2,1019.7 
		2298.2,1139.2 2274.8,1139.2 2274.8,1152.4 2411.5,1152.4 	"/>
	<path class="st0" d="M2502,1139.2v13.2h71c45.5,0,76-30,76-73.3c0-42.6-30.4-72.5-76-72.5h-71v13.2h23.4v119.4H2502z M2540,1019.7
		h32.9c36.4,0,60.6,24.3,60.6,59.3c0,35.4-24.3,60-60.6,60H2540V1019.7z"/>
	<polygon class="st0" points="2666.3,1139.2 2666.3,1152.4 2727.8,1152.4 2727.8,1139.2 2704.2,1139.2 2704.2,1019.7 2727.8,1019.7 
		2727.8,1006.6 2666.3,1006.6 2666.3,1019.7 2689.8,1019.7 2689.8,1139.2 	"/>
	<polygon class="st0" points="2878.6,1048.4 2878.6,1006.6 2751.2,1006.6 2751.2,1019.7 2774.6,1019.7 2774.6,1139.2 2751.2,1139.2 
		2751.2,1152.4 2817.2,1152.4 2817.2,1139.2 2789.1,1139.2 2789.1,1085.3 2842,1085.3 2842,1072.4 2789.1,1072.4 2789.1,1019.7 
		2863.9,1019.7 2863.9,1048.4 	"/>
	<polygon class="st0" points="3023.5,1048.4 3023.5,1006.6 2896.1,1006.6 2896.1,1019.7 2919.6,1019.7 2919.6,1139.2 2896.1,1139.2 
		2896.1,1152.4 2962.3,1152.4 2962.3,1139.2 2934.2,1139.2 2934.2,1085.3 2986.9,1085.3 2986.9,1072.4 2934.2,1072.4 2934.2,1019.7 
		3009,1019.7 3009,1048.4 	"/>
	<polygon class="st0" points="3176,1048.4 3176,1006.6 3041.2,1006.6 3041.2,1019.7 3064.6,1019.7 3064.6,1139.2 3041.2,1139.2 
		3041.2,1152.4 3177.7,1152.4 3177.7,1110.5 3163.3,1110.5 3163.3,1139.2 3079.1,1139.2 3079.1,1085.3 3139,1085.3 3139,1072.4 
		3079.1,1072.4 3079.1,1019.7 3161.5,1019.7 3161.5,1048.4 	"/>
	<path class="st0" d="M3339.9,1139.2h-16l-18.6-48.9c-1.6-3.8-3.8-7-7-9.4c19-4.1,30.9-18.4,30.9-37c0-23.3-16.7-37.5-50.1-37.5
		h-78.3v13.2h23.4V1139h-23.4v13.2h61.5V1139h-23.4v-53.9h37c9.7,0,13.9,3.5,17.4,13.3l18.7,53.7h27.7v-13H3339.9z M3278.6,1072.4
		h-39.5v-52.7h39.7c22.5,0,35.9,8.5,35.9,25.2C3314.6,1062.2,3302,1072.4,3278.6,1072.4z"/>
	<polygon class="st0" points="3360.1,1139.2 3360.1,1152.4 3496.8,1152.4 3496.8,1110.5 3482.2,1110.5 3482.2,1139.2 3398.2,1139.2 
		3398.2,1085.3 3458,1085.3 3458,1072.4 3398.2,1072.4 3398.2,1019.7 3480.4,1019.7 3480.4,1048.4 3495.1,1048.4 3495.1,1006.6 
		3360.1,1006.6 3360.1,1019.7 3383.5,1019.7 3383.5,1139.2 	"/>
	<polygon class="st0" points="3580.6,1139.2 3557,1139.2 3557,1022.2 3558,1022.2 3643.6,1152.4 3663.2,1152.4 3663.2,1019.7 
		3686.7,1019.7 3686.7,1006.6 3625.5,1006.6 3625.5,1019.7 3649.6,1019.7 3649.6,1132.6 3648.3,1132.6 3565.2,1006.6 3520,1006.6 
		3520,1019.7 3543.5,1019.7 3543.5,1139.2 3520,1139.2 3520,1152.4 3580.6,1152.4 	"/>
	<polygon class="st0" points="3839.3,1053.3 3839.3,1006.6 3701.7,1006.6 3701.7,1053.3 3716.4,1053.3 3716.4,1019.7 3763.4,1019.7 
		3763.4,1139.2 3739.9,1139.2 3739.9,1152.4 3801.3,1152.4 3801.3,1139.2 3778,1139.2 3778,1019.7 3824.8,1019.7 3824.8,1053.3 	"/>
	<path class="st0" d="M1903.8,1255.1c-44.9,0-76.1,30.9-76.1,74.9c0,44.8,31.2,75.8,76.1,75.8c45.2,0,76.1-31,76.1-75.8
		C1979.9,1285.8,1948.8,1255.1,1903.8,1255.1z M1903.8,1384.1c-31,0-52.4-22.1-52.4-53.9c0-31.6,21.4-53.1,52.4-53.1
		c31.2,0,52.5,21.5,52.5,53.1C1956.3,1362,1934.9,1384.1,1903.8,1384.1z"/>
	<path class="st0" d="M2069.4,1257.4h-77.9v19.9h20.3v106.3h-20.3v19.9h63.2v-19.9h-20.3v-44.2h34c43,0,52.5-23.4,52.5-41.7
		C2120.8,1272.4,2103.6,1257.4,2069.4,1257.4z M2069,1320.4h-34.7v-43h34.2c17.7,0,29.1,6.6,29.1,22
		C2097.7,1313.5,2087.6,1320.4,2069,1320.4z"/>
	<polygon class="st0" points="2276.4,1307.8 2276.4,1257.4 2135.2,1257.4 2135.2,1307.8 2157,1307.8 2157,1277.4 2194.6,1277.4 
		2194.6,1383.6 2174.2,1383.6 2174.2,1403.5 2237.5,1403.5 2237.5,1383.6 2217.1,1383.6 2217.1,1277.4 2254.5,1277.4 2254.5,1307.8 
			"/>
	<polygon class="st0" points="2353,1277.4 2353,1257.4 2289.7,1257.4 2289.7,1277.4 2310.1,1277.4 2310.1,1383.6 2289.7,1383.6 
		2289.7,1403.5 2353,1403.5 2353,1383.6 2332.6,1383.6 2332.6,1277.4 	"/>
	<path class="st0" d="M2488.2,1297.7h-1c-4.1-27.1-20.9-42.4-50.2-42.4c-42,0-72.7,30.9-72.7,74.8c0,44.2,30.9,75.8,74.2,75.8
		c37.5,0,65-22.5,71.9-56.8l-23.1-4.7c-4.8,24-23.7,39.5-48.9,39.5c-29.7,0-50.4-22.1-50.4-53.9c0-31.5,20.8-52.8,50.6-52.8
		c25.2,0,43.8,14.9,49.5,37.8h22.5v-57.5h-22.5v40.3H2488.2z"/>
	<path class="st0" d="M2669.3,1383.6h-12.4l-50.4-126.2H2580l-50.4,126.2h-12.4v19.9h62.1v-19.9h-27.5l10-25.3h60.9l10,25.3h-26.9
		v19.9h63.8v-19.9H2669.3z M2569,1339.4l22.2-56.4h1.6l22.2,56.4H2569z"/>
	<polygon class="st0" points="2802.9,1352.6 2780.5,1352.6 2780.5,1383.6 2723.9,1383.6 2723.9,1277.4 2745.2,1277.4 2745.2,1257.4 
		2681,1257.4 2681,1277.4 2701.5,1277.4 2701.5,1383.6 2681,1383.6 2681,1403.5 2802.9,1403.5 	"/>
	<polygon class="st0" points="3051.3,1403.5 3092.9,1277.4 3104.9,1277.4 3104.9,1257.4 3046.2,1257.4 3046.2,1277.4 3071.8,1277.4 
		3039.1,1377.6 3038.3,1377.6 3004.7,1277.4 3025.1,1277.4 3025.1,1257.4 2957.6,1257.4 2957.6,1277.4 2979,1277.4 2944.9,1377.6 
		2944,1377.6 2911.8,1277.4 2935.9,1277.4 2935.9,1257.4 2875.5,1257.4 2875.5,1277.4 2887.2,1277.4 2929.5,1403.5 2957.2,1403.5 
		2990.1,1304.6 2991.1,1304.6 3023.3,1403.5 	"/>
	<polygon class="st0" points="3116.6,1383.6 3116.6,1403.5 3255.5,1403.5 3255.5,1357.9 3232.9,1357.9 3232.9,1383.6 3159.3,1383.6 
		3159.3,1339.4 3214.6,1339.4 3214.6,1320.4 3159.3,1320.4 3159.3,1277.4 3231.3,1277.4 3231.3,1303.1 3253.7,1303.1 3253.7,1257.4 
		3116.6,1257.4 3116.6,1277.4 3136.9,1277.4 3136.9,1383.6 	"/>
	<polygon class="st0" points="3338.6,1277.4 3338.6,1257.4 3275.4,1257.4 3275.4,1277.4 3295.7,1277.4 3295.7,1383.6 3275.4,1383.6 
		3275.4,1403.5 3338.6,1403.5 3338.6,1383.6 3318.3,1383.6 3318.3,1277.4 	"/>
	<path class="st0" d="M3436.8,1349.7h37.5c-7.2,20.8-25.6,34.3-49.6,34.3c-30,0-50.8-22.1-50.8-53.9c0-31.5,20.8-52.8,50.6-52.8
		c25,0,43.8,14.8,49.2,37.8h22.5v-57.5h-22.5v40.1h-0.7c-4.1-27.1-21.1-42.3-50.2-42.3c-42,0-72.7,30.9-72.7,74.8
		c0,43.8,30.6,75.5,73.3,75.5c22,0,40.1-8.3,52.4-23.1l7.3,20.9h13.9v-53.7h20.2v-19.2H3437v19.2H3436.8z"/>
	<polygon class="st0" points="3587.9,1383.6 3567.5,1383.6 3567.5,1339.4 3643,1339.4 3643,1383.6 3622.7,1383.6 3622.7,1403.5 
		3685.9,1403.5 3685.9,1383.6 3665.6,1383.6 3665.6,1277.4 3685.9,1277.4 3685.9,1257.4 3622.7,1257.4 3622.7,1277.4 3643,1277.4 
		3643,1320.4 3567.5,1320.4 3567.5,1277.4 3587.9,1277.4 3587.9,1257.4 3524.6,1257.4 3524.6,1277.4 3545,1277.4 3545,1383.6 
		3524.6,1383.6 3524.6,1403.5 3587.9,1403.5 	"/>
	<polygon class="st0" points="3699.3,1257.4 3699.3,1307.8 3721.2,1307.8 3721.2,1277.4 3758.8,1277.4 3758.8,1383.6 3738.5,1383.6 
		3738.5,1403.5 3801.6,1403.5 3801.6,1383.6 3781.2,1383.6 3781.2,1277.4 3818.7,1277.4 3818.7,1307.8 3840.5,1307.8 3840.5,1257.4 
			"/>
	<path class="st0" d="M1961.1,1614.3c0-20.5-11.4-31.5-32.8-35.4c18-4.8,27.4-15.5,27.4-33.4c0-25-18.7-38.1-49.8-38.1h-81.4v26.5
		h17.4v94.3h-17.4v26.5h87.8C1942.7,1654.8,1961.1,1640.1,1961.1,1614.3z M1873.3,1534.1h28.2c13.3,0,21.7,5.6,21.7,16.7
		c0,9.7-5.9,17.9-20.9,17.9h-29.1v-34.5H1873.3z M1873.3,1628.2v-35.6h30.4c17.9,0,25,7.3,25,17.6c0,11.6-9.5,18-24.4,18H1873.3z"/>
	<path class="st0" d="M2045.4,1592.8c7.2,0,10.2,2.5,12.7,10.1l15.7,52h39.5v-26.5H2100l-14.3-38.6c-0.7-2.2-1.9-4.1-3.5-6v-0.6
		c16-5.6,25.2-17.9,25.2-35.4c0-25.2-18.6-40.1-55.5-40.1h-80.2v26.5h17.4v94.3h-17.4v26.5h66.2v-26.5h-17.3v-35.4h24.9V1592.8z
		 M2020.6,1534.1h30.6c14.5,0,24,5,24,16.8c0,12-8.5,18-24.3,18h-30.4v-34.8H2020.6z"/>
	<path class="st0" d="M2196.8,1656.9c38.5,0,62.2-23.9,62.2-60.5v-62.4h16.7v-26.5h-63.2v26.5h18.4v62.6c0,19.3-12,31.9-32.5,31.9
		s-32.2-12.6-32.2-31.9v-62.6h18.4v-26.5h-66.5v26.5h16.7v62.4C2134.7,1633,2158.4,1656.9,2196.8,1656.9z"/>
	<path class="st0" d="M2429.5,1597.5l-32.2-5.4c-4.1,21.4-20.3,35.3-42.3,35.3c-25.6,0-43.5-19-43.5-46.5
		c0-26.9,17.9-45.5,43.6-45.5c21.4,0,37.5,12.1,42.4,31.5h31.5v-59.1h-31.5v41.3h-1c-3.5-28.5-19.2-43.6-46.8-43.6
		c-39.7,0-71.1,31.2-71.1,75.5c0,44.8,31.6,76.6,76.4,76.6C2394.4,1657.3,2423.1,1633.5,2429.5,1597.5z"/>
	<polygon class="st0" points="2585.4,1603.5 2553.9,1603.5 2553.9,1628.2 2490.4,1628.2 2490.4,1592.6 2537.2,1592.6 2537.2,1568.8 
		2490.4,1568.8 2490.4,1534.1 2552.2,1534.1 2552.2,1559 2583.6,1559 2583.6,1507.4 2441.5,1507.4 2441.5,1534.1 2458.9,1534.1 
		2458.9,1628.2 2441.5,1628.2 2441.5,1654.8 2585.4,1654.8 	"/>
	<path class="st0" d="M2815.6,1628.2h-11.4l-46.7-120.8h-39.4l-46.7,120.8h-11.9v26.5h65.3v-26.5h-23.1l7.3-20.5h53.1l7.3,20.5
		h-22.2v26.5h68.2v-26.5H2815.6z M2717.9,1583.8l16.5-45.7h2.8l16.5,45.7H2717.9z"/>
	<polygon class="st0" points="2973.3,1534.1 2990.5,1534.1 2990.5,1507.4 2929.4,1507.4 2929.4,1534.1 2946.6,1534.1 2946.6,1613.1 
		2943.4,1613.1 2887.2,1507.4 2824.7,1507.4 2824.7,1534.1 2842,1534.1 2842,1628.2 2824.7,1628.2 2824.7,1654.8 2885.9,1654.8 
		2885.9,1628.2 2868.9,1628.2 2868.9,1545.5 2871.5,1545.5 2929.9,1654.8 2973.3,1654.8 	"/>
	<path class="st0" d="M3072.7,1507.4h-73v26.5h17.4v94.3h-17.4v26.5h73c46.5,0,78.2-30.4,78.2-74.1
		C3150.8,1537.7,3119.2,1507.7,3072.7,1507.4z M3072.2,1628.2h-23.7v-94.1h23.7c27.7,0,46,19,46,46.7
		C3118,1608.9,3099.9,1628.5,3072.2,1628.2z"/>
	<path class="st0" d="M3295,1634.1c-18.4,0-32.2-9.7-35.1-25h-31.5v45.8h31.5v-28.5h1.2c2.5,19.9,17.3,30.4,42.3,30.4
		c31,0,48.4-16,48.4-43.8c0-29.3-18.1-44.3-59.7-49.5c-23.1-3.7-31.9-10-31.9-20.2c0-9.7,8.5-15.5,22.2-15.5c17.7,0,30.9,10,33.4,25
		h31.5v-45.4h-31.5v28.7h-1c-2.3-20.3-16.2-30.9-40.5-30.9c-29.4,0-46.5,15.5-46.5,40.8c0,28.5,19.8,44.8,59.9,49.2
		c23.1,2.9,31.8,8.3,31.8,20.3C3319.4,1627.6,3310.6,1634.1,3295,1634.1z"/>
	<path class="st0" d="M3444.9,1505.1c-46.1,0-78.2,31-78.2,75.5c0,45.2,31.9,76.6,78.2,76.6c46.1,0,78.2-31.5,78.2-76.6
		C3522.9,1536.1,3491,1505.1,3444.9,1505.1z M3444.9,1627c-26.8,0-45.2-19-45.2-46.3c0-26.9,18.4-45.5,45.2-45.5
		s45.4,18.6,45.4,45.5C3490.2,1608,3471.5,1627,3444.9,1627z"/>
	<polygon class="st0" points="3577.3,1545.5 3635.7,1654.8 3679.2,1654.8 3679.2,1534.1 3696.3,1534.1 3696.3,1507.4 3635.1,1507.4 
		3635.1,1534.1 3652.4,1534.1 3652.4,1613.1 3649.3,1613.1 3593.1,1507.4 3530.5,1507.4 3530.5,1534.1 3547.8,1534.1 3547.8,1628.2 
		3530.5,1628.2 3530.5,1654.8 3591.7,1654.8 3591.7,1628.2 3574.7,1628.2 3574.7,1545.5 	"/>
	<path class="st0" d="M3763.1,1527.8c17.7,0,30.9,10,33.4,25h31.5v-45.4h-31.5v28.7h-1c-2.3-20.3-16.2-30.9-40.5-30.9
		c-29.4,0-46.5,15.5-46.5,40.8c0,28.5,19.8,44.8,59.9,49.2c23.1,2.9,31.8,8.3,31.8,20.3c0,11.9-8.8,18.1-24.4,18.1
		c-18.4,0-32.2-9.7-35.1-25h-31.5v45.8h31.5v-28.2h1.2c2.5,19.9,17.3,30.4,42.3,30.4c31,0,48.4-16,48.4-43.8
		c0-29.3-18.1-44.3-59.7-49.5c-23.1-3.7-31.9-10-31.9-20.2C3740.8,1533.6,3749.3,1527.8,3763.1,1527.8z"/>
	<path class="st0" d="M1891.2,1872.5h-18.6l5.3-15.7h43.6l5.3,15.7h-17.1v33.5h72.7v-33.5h-10.2l-42.9-114.9h-53l-43,114.9h-10.8
		v33.5h68.8L1891.2,1872.5L1891.2,1872.5z M1898.5,1793.6h2.2l11.3,34h-24.7L1898.5,1793.6z"/>
	<polygon class="st0" points="2045.6,1791.1 2047.3,1791.1 2076.9,1906 2113.2,1906 2143.1,1791.1 2144.8,1791.1 2144.8,1872.5 
		2131.1,1872.5 2131.1,1906 2199.7,1906 2199.7,1872.5 2186,1872.5 2186,1791.1 2199.7,1791.1 2199.7,1757.6 2118.3,1757.6 
		2099.9,1834.4 2083.9,1757.6 2079.3,1758.2 2079.7,1757.6 1993.8,1757.6 1993.8,1791.1 2007.5,1791.1 2007.5,1872.5 1993.8,1872.5 
		1993.8,1906 2059.2,1906 2059.2,1872.5 2045.6,1872.5 	"/>
	<polygon class="st0" points="2366.3,1848.2 2325.3,1848.2 2325.3,1872.5 2272.5,1872.5 2272.5,1846 2310.5,1846 2310.5,1816.7 
		2272.5,1816.7 2272.5,1791.1 2323.5,1791.1 2323.5,1815.1 2364.5,1815.1 2364.5,1757.6 2217.4,1757.6 2217.4,1791.1 2231.5,1791.1 
		2231.5,1872.5 2217.4,1872.5 2217.4,1906 2366.3,1906 	"/>
	<path class="st0" d="M2459.4,1846.3c5,0,7.2,1.8,8.8,7.3l14.2,52.4h46.3v-33.5H2517l-11.4-33.5c-0.6-1.8-1.6-3.5-2.8-5v-1.2
		c13.8-6,22.7-16.5,22.7-33.7c0-25.9-20.2-41.4-59.9-41.4h-82.4v33.5h13.9v81.4h-13.9v33.5h69.2v-33.5h-14.2v-26.2h21.1V1846.3z
		 M2438.1,1791.1h26.5c10.8,0,18.1,3.8,18.1,12.7c0,8.8-6.4,13.2-18.4,13.2H2438v-25.9H2438.1z"/>
	<polygon class="st0" points="2612.5,1791.1 2612.5,1757.6 2543.2,1757.6 2543.2,1791.1 2557.1,1791.1 2557.1,1872.5 2543.2,1872.5 
		2543.2,1906 2612.5,1906 2612.5,1872.5 2598.3,1872.5 2598.3,1791.1 	"/>
	<path class="st0" d="M2699.7,1908.5c41.3,0,71.3-25.2,77.1-62.9l-42.3-6.4c-2.9,18.4-16.5,30.6-34.8,30.6
		c-21.1,0-35.9-15.7-35.9-38.3c0-22.2,14.8-37.5,36.3-37.5c17.1,0,30.3,9.4,34.8,24.3h41.1v-60.6H2735v42.3h-1.3
		c-2.8-29.9-17.1-44.8-43-44.8c-37.2,0-69.4,31.5-69.4,76.4C2621.1,1876.7,2653.3,1908.5,2699.7,1908.5z"/>
	<path class="st0" d="M2867.2,1906h72.7v-33.5h-10.2l-42.9-114.9h-53l-43,114.9h-10.8v33.5h68.8v-33.5h-18.6l5.3-15.7h43.6l5.3,15.7
		h-17.1L2867.2,1906L2867.2,1906z M2844.8,1827.6l11.3-34h2.2l11.3,34H2844.8z"/>
	<polygon class="st0" points="3067.1,1852.1 3023.6,1757.6 2951.5,1757.6 2951.5,1791.1 2965.2,1791.1 2965.2,1872.5 2951.5,1872.5 
		2951.5,1906 3012.8,1906 3012.8,1872.5 2998.9,1872.5 2998.9,1809.3 3001.8,1809.3 3046.2,1906 3103.7,1906 3103.7,1791.1 
		3117.7,1791.1 3117.7,1757.6 3056.1,1757.6 3056.1,1791.1 3070,1791.1 3070,1852.1 	"/>
	<polygon class="st0" points="3272.2,1872.5 3248.4,1872.5 3248.4,1846 3281.4,1846 3281.4,1816.7 3248.4,1816.7 3248.4,1791.1 
		3293.8,1791.1 3293.8,1816.4 3334.9,1816.4 3334.9,1757.6 3193.4,1757.6 3193.4,1791.1 3207.5,1791.1 3207.5,1872.5 3193.4,1872.5 
		3193.4,1906 3272.2,1906 	"/>
	<path class="st0" d="M3424.8,1908.5c47.4,0,80.1-31.6,80.1-77.1c0-44.9-32.5-76.6-80.1-76.6c-47.3,0-80.1,31.6-80.1,76.6
		C3344.8,1876.9,3377.5,1908.5,3424.8,1908.5z M3424.8,1794c22.1,0,37.5,15.4,37.5,37.5c0,22.5-15.4,38.2-37.5,38.2
		c-22.1,0-37.5-15.7-37.5-38.2C3387.5,1809.3,3402.7,1794,3424.8,1794z"/>
	<polygon class="st0" points="3618.5,1791.1 3632.4,1791.1 3632.4,1852.1 3629.4,1852.1 3586.1,1757.6 3513.8,1757.6 3513.8,1791.1 
		3527.6,1791.1 3527.6,1872.5 3513.8,1872.5 3513.8,1906 3575.3,1906 3575.3,1872.5 3561.2,1872.5 3561.2,1809.3 3564.2,1809.3 
		3608.5,1906 3666.2,1906 3666.2,1791.1 3680.1,1791.1 3680.1,1757.6 3618.5,1757.6 	"/>
	<polygon class="st0" points="3689,1818.9 3725.5,1818.9 3725.5,1791.1 3743.5,1791.1 3743.5,1872.5 3729.7,1872.5 3729.7,1906 
		3798.5,1906 3798.5,1872.5 3784.6,1872.5 3784.6,1791.1 3802.7,1791.1 3802.7,1818.9 3839.2,1818.9 3839.2,1757.6 3689,1757.6 	"/>
	<path class="st0" d="M1937.7,2007.6h-65.6l-39.4,109.5h-10.1v40.1h72.2v-40.1h-14.5l3.1-10.8h35.1l3.1,10.8h-12.1v40.1h76.7v-40.1
		h-9.1L1937.7,2007.6z M1893.7,2072l6.7-23.3h1l6.7,23.3H1893.7z"/>
	<path class="st0" d="M2104.9,2047.7h16.7v55.5c0,5.6-1.6,8.9-5.3,8.9s-5.3-3.4-5.3-8.9v-6.4H2061v6.4c0,35.1,16.2,56.1,55.2,56.1
		c38.8,0,55.2-22.2,55.2-55.8v-55.6h11v-40.1h-77.7v40H2104.9z"/>
	<path class="st0" d="M2274.5,2005c-48.4,0-82,31.8-82,77.1c0,46,33.5,77.9,82,77.9c48.4,0,82-31.9,82-77.9
		C2356.5,2036.7,2323,2005,2274.5,2005z M2274.5,2112.7c-17.9,0-30.3-12.6-30.3-30.6c0-17.6,12.4-29.9,30.3-29.9
		c17.9,0,30.3,12.1,30.3,29.9C2304.7,2100.1,2292.2,2112.7,2274.5,2112.7z"/>
	<path class="st0" d="M2478.4,2079.7c20.9-4.7,31.8-15.7,31.8-33.7c0-25.3-21.7-38.3-57.4-38.3h-89v40.1h11v69.4h-11v40.1h95.3
		c35.1,0,56.4-14.5,56.4-40.8C2515.6,2095.3,2502.5,2084,2478.4,2079.7z M2424.8,2047.7h22.8c8.2,0,12.1,3.1,12.1,8.5
		c0,5.4-4.1,8.3-12.1,8.3h-22.8V2047.7z M2451.5,2117.1H2425v-18.1h26.8c9.1,0,13.8,3.4,13.8,9.1
		C2465.4,2113.6,2460.1,2117.1,2451.5,2117.1z"/>
	<path class="st0" d="M2640.4,2079.7c20.9-4.7,31.8-15.7,31.8-33.7c0-25.3-21.7-38.3-57.4-38.3h-89v40.1h11v69.4h-11v40.1h95.3
		c35.1,0,56.4-14.5,56.4-40.8C2677.6,2095.3,2664.6,2084,2640.4,2079.7z M2586.9,2047.7h22.8c8.2,0,12.1,3.1,12.1,8.5
		c0,5.4-4.1,8.3-12.1,8.3h-22.8V2047.7z M2613.4,2117.1h-26.5v-18.1h26.8c9.1,0,13.8,3.4,13.8,9.1
		C2627.4,2113.6,2622.1,2117.1,2613.4,2117.1z"/>
	<polygon class="st0" points="2687.9,2047.7 2698.8,2047.7 2698.8,2117.1 2687.9,2117.1 2687.9,2157.2 2759.9,2157.2 2759.9,2117.1 
		2748.9,2117.1 2748.9,2047.7 2759.9,2047.7 2759.9,2007.6 2687.9,2007.6 	"/>
	<polygon class="st0" points="2881.2,2047.7 2891.9,2047.7 2891.9,2092 2891,2092 2857.6,2007.6 2776.3,2007.6 2776.3,2047.7 
		2786.8,2047.7 2786.8,2117.1 2776.3,2117.1 2776.3,2157.2 2837.9,2157.2 2837.9,2117.1 2827.2,2117.1 2827.2,2072 2828.1,2072 
		2861.7,2157.2 2932.3,2157.2 2932.3,2047.7 2942.8,2047.7 2942.8,2007.6 2881.2,2007.6 	"/>
	<path class="st0" d="M3024.1,2103.6h34v0.6c-7.2,6.1-16.8,10-27.1,10c-19.8,0-31.2-13-31.2-31.9c0-17.9,12.1-30,30.3-30
		c12.7,0,23.1,6,26.9,15.7h50.1v-60H3057v41.3h-1.6c-1.9-29.7-15.1-44.1-39.1-44.1c-35.3,0-68.2,31.8-68.2,77.1
		c0,46,32.9,77.9,78.9,77.9c19.6,0,34.7-6,45.2-18.6l8.2,16h28v-53.7h10.7v-31h-94.6v30.9H3024.1z"/>
	<polygon class="st0" points="3193.7,2074.3 3237,2074.3 3237,2047.7 3245.8,2047.7 3245.8,2117.1 3235.1,2117.1 3235.1,2157.2 
		3306.4,2157.2 3306.4,2117.1 3295.7,2117.1 3295.7,2047.7 3304.5,2047.7 3304.5,2074.3 3348,2074.3 3348,2007.6 3193.7,2007.6 	"/>
	<polygon class="st0" points="3446,2047.7 3458.8,2047.7 3441.4,2069.9 3423.9,2047.7 3436.7,2047.7 3436.7,2007.6 3357,2007.6 
		3357,2047.7 3365.5,2047.7 3410.5,2101 3410.5,2117.1 3399.8,2117.1 3399.8,2157.2 3471.2,2157.2 3471.2,2117.1 3460.5,2117.1 
		3460.5,2101 3505.5,2047.7 3514,2047.7 3514,2007.6 3446,2007.6 	"/>
	<path class="st0" d="M3608.7,2007.6h-83.1v40.1h11v69.4h-11v40.1h72.2v-40.1h-11v-18h21.5c40.8,0,63.2-17.1,63.2-46
		C3671.2,2024.7,3650.2,2007.6,3608.7,2007.6z M3606.5,2064.8h-19.9v-17.1h20.2c7.3,0,12.4,2.5,12.4,8.3
		C3619.2,2061.9,3614.8,2064.8,3606.5,2064.8z"/>
	<polygon class="st0" points="3784,2117.1 3741.3,2117.1 3741.3,2099.1 3771,2099.1 3771,2064.8 3741.3,2064.8 3741.3,2047.7 
		3782.2,2047.7 3782.2,2071 3832.2,2071 3832.2,2007.6 3680.2,2007.6 3680.2,2047.7 3691.4,2047.7 3691.4,2117.1 3680.2,2117.1 
		3680.2,2157.2 3833.9,2157.2 3833.9,2093.8 3784,2093.8 	"/>
</g>
</svg>
