<?xml version="1.0" encoding="utf-8"?>
<!-- Generator: Adobe Illustrator 22.0.1, SVG Export Plug-In . SVG Version: 6.00 Build 0)  -->
<svg version="1.1" id="Layer_1" xmlns="http://www.w3.org/2000/svg" xmlns:xlink="http://www.w3.org/1999/xlink" x="0px" y="0px"
	 viewBox="0 0 1920 1080" style="enable-background:new 0 0 1920 1080;" xml:space="preserve">
<style type="text/css">
	.st0{fill:#323232;}
	.st1{fill:#FFFFFF;}
</style>
<title>Asset 5</title>
<rect class="st0" width="840" height="1080"/>
<path class="st1" d="M659.1,618.7c0.5,3.5,0.7,6.9,0.7,10.4c0,88.7-59.3,133-180,133H291.9v-3.9h23.5c24.8,0,37.8-12.4,40.4-39.8
	c-71.7-3.9-120.6-39.8-144.1-101.7c-22.2-5.2-28.7-20.2-45.7-20.2c-9.8,0-16.9,12.4-18.9,36.5h-3.9l7.8-118h3.9
	c4.6,43.7,21.5,84.8,54.8,96.5c-9.8-26.7-14.4-58.7-14.4-94.6c0-7.2,0.6-15,0.6-22.8C168.5,482.4,145,468,145,436.7
	c0-36.5,32-58.7,61.3-58.7c8.6,0,17.1,2,24.8,5.9c28-41.7,71.7-66.5,125.2-69.1c-1.3-26.7-13.7-39.1-41.1-39.1h-23.5v-3.9h218.5
	c82.2,0,135.7,45,135.7,113.5v0.7c20.9,5.9,28.7,19.6,43,19.6c6.5,0,12.4-3.9,13.7-16.3h3.9l2,78.9h-3.9
	c-5.9-40.4-31.3-69.1-58.7-77.6c-2,50.9-29.3,84.1-84.8,99.1v13c56.1,16.3,92,56.1,97.8,111.5c24.1-11.7,43.7-37.8,43-75h2l5.9,13.7
	C703.4,582.8,686.5,608.3,659.1,618.7z M286.7,566.5c0,3.9-0.4,7.9-1.3,11.7c6.5-11.7,7.8-21.5,7.8-31.3
	c0-94.6-132.4-63.9-132.4-130.4c-0.1-4.4,0.3-8.7,1.3-13c-6.5,7.2-12.4,16.3-12.4,33.3C149.7,500.6,286.7,479.8,286.7,566.5z
	 M179.1,595.2c-7.2-5.9-18.9-33.9-25.4-56.1l-3.3,63.3c2.5-6,8.5-9.9,15-9.8C169.9,592.6,175.1,592.6,179.1,595.2L179.1,595.2z
	 M154.9,436.7c0.1-4.2,0.5-8.3,1.3-12.4c8.5,62.7,124.6,38.5,131.8,116.1C269.7,481.7,154.9,485.6,154.9,436.7z M156.2,559.3
	c3.3,13.7,10.4,26.7,13.7,30c-2.6-1.3-5.2-1.3-7.8-1.3c-2.7,0.1-5.3,1.2-7.2,3.3L156.2,559.3z M165.4,416.5
	c0,19.6,15.6,30,36.5,38.5c5-24,14.1-46.9,26.7-67.8c-6.9-3.3-14.5-5.1-22.2-5.2C183.6,382,165.4,394.4,165.4,416.5L165.4,416.5z
	 M222.8,505.2V517c0,35.9,5.2,69.1,15.7,97.2c23.5-3.9,42.4-21.5,42.4-47.6C280.8,532,253.4,517.6,222.8,505.2L222.8,505.2z
	 M356.5,714.6V546.3c-21.5-2.6-37.8-19.6-37.8-43c0-22.2,13.7-39.1,37.8-50.9v-133c-45.6,3.3-82.8,31.3-106.3,75.7
	c4.6,2,8.5,3.9,13,3.9c6.5,0,12.4-3.9,13.7-16.3h3.9l2,78.9h-3.9c-3.9-24.8-15.6-46.3-31.3-61.3c-9.8,20.4-16.6,42.2-20.2,64.6
	c34.6,13,70.4,30.6,70.4,82.2c0,43.7-27.4,66.5-58,71.1C260.6,673.5,301,709.3,356.5,714.6L356.5,714.6z M278.2,440l-1.3-42.4
	c-2.6,4.6-8.5,5.9-12.4,5.9c-3.3-0.1-6.6-0.5-9.8-1.3C260.6,406.7,272.3,422.4,278.2,440z M273.6,404.8l1.3,19.6
	c-2.6-8.5-7.8-15-11.1-17.6c1,0.5,2.1,0.7,3.3,0.6C269.5,407.2,271.8,406.3,273.6,404.8z M387.8,534.6c-2.6,0-5.2,0.7-7.8,0.7
	c-25.4,0.7-39.1-14.3-39.1-41.7c0-13.7,3.9-25.4,11.1-33.9c-19,10.3-28.8,25.3-28.8,43.6c0,22.8,16.3,39.1,39.1,39.1
	C371.4,542.4,380.3,539.7,387.8,534.6z M365.6,537.8h-3.3c-20.2,0-34.6-14.3-34.6-34.6c0-10.4,3.9-19.6,11.7-29.4
	c-2.3,6.3-3.4,12.9-3.3,19.6C336.2,518.9,345.4,532.6,365.6,537.8L365.6,537.8z M356.5,460.8c-7.2,7.8-11.1,18.3-11.1,32.6
	c0,13,3.3,24.1,11.1,30.7V460.8z M380.6,315.4c51.5,5.2,69.1,35.9,87.4,35.9c7.8,0,12.4-7.8,15.6-26.7h3.9v118.1
	c6.5,3.9,10.4,11.1,10.4,19.6c0,9.8-7.2,17-18.3,17s-18.3-7.2-18.3-17s7.2-17,18.3-17c1.8-0.1,3.5,0.1,5.2,0.6
	c-3.3-3.3-7.8-4.6-14.3-4.6c-14.4,0-29.4,7.2-39.8,33.9c5.2,7.8,10.4,14.3,14.4,19.6h60.7c6.1-0.1,12.2-0.5,18.3-1.3
	c2-61.3,45.7-105.7,94.6-109.6c-0.6-62.6-50.9-108.3-119.4-108.3H421C394.3,275.6,381.9,288,380.6,315.4L380.6,315.4z M387.1,442.6
	c-4.1-9.7-6.4-20.1-6.5-30.6c0-20.9,12.4-32,28-32c16.3,0,27.4,10.4,27.4,25.4c0,14.4-10.4,25.4-28,33.9
	c5.2,9.8,11.7,19.6,18.3,29.3c1.3,1.3,2,3.3,3.3,4.6c6.5-22.8,22.8-35.9,41.1-35.9c4.3-0.2,8.5,0.7,12.4,2.6
	c-9.1-73-50.2-114.1-102.4-120.7v124.6C382.5,443.3,384.5,443.3,387.1,442.6L387.1,442.6z M380.6,494.7h32c-0.2-1-0.6-1.9-1.3-2.6
	c-9.8-16.3-17.6-32-22.8-46.3l-7.8,2L380.6,494.7z M632.3,624.6h-3.9c-58,0-102.4-50.2-104.3-122.6c-11.2-2.1-22.5-3.2-33.9-3.3
	h-41.7c18.3,21.5,28.7,26.1,37.2,26.1s15-4.6,21.5-20.9l2,0.7c-9.1,27.4-18.9,39.8-35.2,39.8c-18.9,0-38.5-15.7-54.8-39.8
	c-10.4,18.9-23.5,32.6-38.5,38.5v171.5c32.6-5.2,81.5-30,81.5-103.7c0-30.7-3.9-52.2-26.7-52.2h-17v-3.9h115.4v3.9h-17
	c-19.6,0-28.7,18.3-28.7,48.9s1.3,53.5,16.3,72.4l-2.6,2c-7.2-10.4-15.6-18.9-25.4-18.9c-24.1,0-41.1,48.9-95.2,55.4
	c2,27.4,12.4,39.8,32,39.8h92.6c73.7,0,126.5-54.1,126.5-129.1L632.3,624.6z M417.8,502c-1.1-0.9-1.9-2-2.6-3.3h-34.6v32
	C394.3,530,403.4,524.1,417.8,502z M473.9,539.8c8.5,0,14.4-3.3,20.2-12.4c-2.6,1.4-5.5,2-8.5,2c-17,0-35.9-17.6-63.3-58
	c-15.6-23.5-30.6-48.3-30.6-70.4c0-4.6,0.6-8.5,2.6-11.7c-5.9,4.6-9.1,12.4-9.1,22.8c0,18.3,9.8,43,30,77.6
	C434.1,522.2,455.6,539.8,473.9,539.8L473.9,539.8z M419.1,487c-19.6-33.9-26.1-49.6-30-71.7c7.2,23.5,18.3,41.7,29.4,58.7
	c26.7,39.8,46.3,57.4,65.2,59.3c-3.1,1.3-6.4,2-9.8,2C456.9,535.2,436.7,517.6,419.1,487z M406.7,436.1c9.8-7.8,15.6-15,15.6-28.7
	s-5.9-23.5-14.3-23.5c-9.1,0-11.7,11.7-11.7,17C396.2,412,400.1,423.7,406.7,436.1L406.7,436.1z M426.9,407.4
	c0,6.5-1.3,11.7-3.9,16.3c5.9-5.2,8.5-11.1,8.5-18.3c0-7.8-3.3-13.7-9.1-17.6C425.4,393.9,426.9,400.6,426.9,407.4L426.9,407.4z
	 M494.1,462.2c0-7.8-5.9-13-14.4-13s-14.4,5.2-14.4,13s5.9,13,14.4,13S494.1,470,494.1,462.2z M470.6,462.2c0-4.6,3.3-8.5,9.1-8.5
	s9.1,3.9,9.1,8.5s-3.3,8.5-9.1,8.5S470.6,466.8,470.6,462.2z M554.7,497.4c0-42.4,11.1-76.3,29.3-96.5c-32,17.6-53.5,54.1-53.5,96.5
	c0,52.2,22.2,92.6,56.7,110.9C566.5,586.1,554.7,547,554.7,497.4L554.7,497.4z M537.1,497.4c0-25.4,7.8-48.9,22.2-66.5
	c-7.2,18.9-11.1,41.1-11.1,66.5c0,30.7,4.6,58,12.4,79.6C545.6,556.7,537.1,529.3,537.1,497.4L537.1,497.4z M618.6,387.9
	c-32,5.9-53.5,41.7-56.7,93.9C595.8,464.8,618,430.2,618.6,387.9L618.6,387.9z M561.9,515c3.9,62.6,28.7,105.7,67.8,105.7h2.6
	C629.1,573.7,602.3,535.2,561.9,515z M653.9,446.5c25.4,0,39.8,22.2,39.8,50.9c0,27.4-14.3,48.3-39.8,48.3
	c-26.1,0-40.4-20.9-40.4-48.3C613.4,468.7,627.8,446.5,653.9,446.5L653.9,446.5z M638.2,537.8c-5.2-7.8-7.8-21.5-7.8-40.4
	c0-19.6,2.6-34.6,8.5-43c-13,7.2-20.9,22.2-20.9,43C618,517,625.8,532,638.2,537.8z M629.1,468.7c-2,7.8-2.6,17.6-2.6,28.7
	c0,10.4,0.7,19.6,2.6,26.7c-4.6-7.2-7.2-16.3-7.2-26.7C621.9,486.3,624.5,476.5,629.1,468.7z M653.9,450.4c-13,0-18.9,18.9-18.9,47
	c0,27.4,5.9,44.4,18.9,44.4s18.9-17,18.9-44.4C672.8,469.4,666.9,450.4,653.9,450.4L653.9,450.4z M668.9,455
	c5.9,8.5,8.5,22.8,8.5,42.4c0,18.9-2.6,32-7.8,40.4c12.4-6.5,19.6-20.9,19.6-40.4C689.1,476.5,681.9,461.5,668.9,455L668.9,455z
	 M681.2,497.4c0-11.1-0.7-20.2-2.6-27.4c4.6,6.5,6.5,16.3,6.5,27.4c0,9.8-2,18.9-5.9,25.4C680.7,514.4,681.3,505.9,681.2,497.4
	L681.2,497.4z M687.1,412c5.9,6.5,10.4,14.4,14.3,22.2l-0.6-26.2c-3.3,2.7-7.5,4.1-11.7,4H687.1z M698.2,412.7l0.7,10.4
	c-1-3.2-2.8-6.1-5.2-8.5C695.4,414.5,697,413.8,698.2,412.7L698.2,412.7z"/>
<g>
	<polygon class="st0" points="1027.4,383.4 1027.4,384.9 1067.8,384.9 1067.8,368.5 1066.1,368.5 1066.1,383.4 1038.3,383.4 
		1038.3,336.6 1047.8,336.6 1047.8,335.1 1027.4,335.1 1027.4,336.6 1036.7,336.6 1036.7,383.4 	"/>
	<polygon class="st0" points="1074.6,336.6 1083.9,336.6 1083.9,383.4 1074.6,383.4 1074.6,384.9 1094.8,384.9 1094.8,383.4 
		1085.5,383.4 1085.5,336.6 1094.8,336.6 1094.8,335.1 1074.6,335.1 	"/>
	<path class="st0" d="M1127.5,336.2c11.5,0,19.4,6.4,21.6,18.4h1.6v-19.5h-1.6v15h-0.1c-2.4-9.1-9.7-15.6-21.5-15.6
		c-15.2,0-25,10.5-25,25.3c0,15,10.3,25.6,24.6,25.6c10.7,0,19.2-6.4,22.5-16.5l0.5,16h1.1v-21.7h6.4v-1.6h-26.3v1.6h18.2v0.1
		c-1.8,12.4-10.7,20.4-22.4,20.4c-13.2,0-22.9-9.8-22.9-23.9C1104.2,345.9,1113.4,336.2,1127.5,336.2z"/>
	<polygon class="st0" points="1163.7,383.4 1163.7,384.9 1183.9,384.9 1183.9,383.4 1174.6,383.4 1174.6,360.5 1210,360.5 
		1210,383.4 1200.6,383.4 1200.6,384.9 1220.9,384.9 1220.9,383.4 1211.6,383.4 1211.6,336.6 1220.9,336.6 1220.9,335.1 
		1200.6,335.1 1200.6,336.6 1210,336.6 1210,359 1174.6,359 1174.6,336.6 1183.9,336.6 1183.9,335.1 1163.7,335.1 1163.7,336.6 
		1173,336.6 1173,383.4 	"/>
	<polygon class="st0" points="1273.3,349.6 1273.3,335.1 1227.7,335.1 1227.7,349.6 1229.4,349.6 1229.4,336.6 1249.6,336.6 
		1249.6,383.4 1240.3,383.4 1240.3,384.9 1260.5,384.9 1260.5,383.4 1251.3,383.4 1251.3,336.6 1271.6,336.6 1271.6,349.6 	"/>
	<path class="st0" d="M1325.8,383.4h-13.9l6.8-16h26.1l6.8,16h-13.9v1.5h21.3v-1.5h-5.6l-20.6-48.3h-2l-20.6,48.3h-5.6v1.5h21.2
		V383.4z M1331.6,337.1h0.3l12.2,28.8h-24.8L1331.6,337.1z"/>
	<polygon class="st0" points="1366.3,383.4 1366.3,384.9 1386.5,384.9 1386.5,383.4 1377.2,383.4 1377.2,336.9 1377.5,336.9 
		1412.5,384.9 1414.7,384.9 1414.7,336.6 1424.1,336.6 1424.1,335.1 1403.1,335.1 1403.1,336.6 1413.2,336.6 1413.2,382.7 
		1412.9,382.7 1378.2,335.1 1366.3,335.1 1366.3,336.6 1375.7,336.6 1375.7,383.4 	"/>
	<path class="st0" d="M1430.2,335.1v1.5h9.3v46.7h-9.3v1.5h24c16,0,26.2-10.3,26.2-25c0-14.6-10.3-24.8-26.2-24.8H1430.2z
		 M1478.6,359.9c0,13.8-9.5,23.5-24.5,23.5h-13v-46.7h13C1469.1,336.6,1478.6,346.2,1478.6,359.9z"/>
	<path class="st0" d="M1542,335.1h-2l-20.6,48.3h-5.6v1.5h21.2v-1.5h-13.9l6.8-16h26.1l6.8,16h-13.9v1.5h21.3v-1.5h-5.6L1542,335.1z
		 M1528.6,365.9l12.2-28.8h0.3l12.2,28.8H1528.6z"/>
	<polygon class="st0" points="1575.5,383.4 1575.5,384.9 1595.8,384.9 1595.8,383.4 1586.5,383.4 1586.5,336.6 1595.8,336.6 
		1595.8,335.1 1575.5,335.1 1575.5,336.6 1584.9,336.6 1584.9,383.4 	"/>
	<path class="st0" d="M1603.8,383.4v1.5h20.3v-1.5h-9.3v-22.8h17.5c3.3,0,4.9,1.1,6.1,4.6l6.9,19.8h7.2v-1.5h-5.9l-6.8-19.2
		c-0.8-2.3-1.9-3.7-4-4.3c7.1-1,12.2-5.8,12.2-12.7c0-7.3-5.6-12.1-16.9-12.1h-27.3v1.5h9.3v46.7H1603.8z M1614.7,336.6h16.3
		c10.1,0,15.3,4.2,15.3,10.7c0,6.7-5.4,11.7-15.4,11.7h-16.2V336.6z"/>
	<polygon class="st0" points="1694.3,336.6 1706.2,336.6 1687.3,360.3 1687,360.3 1668,336.6 1679.7,336.6 1679.7,335.1 
		1659.6,335.1 1659.6,336.6 1666,336.6 1686.2,361.9 1686.2,383.4 1676.9,383.4 1676.9,384.9 1697.1,384.9 1697.1,383.4 
		1687.9,383.4 1687.9,361.9 1708.1,336.6 1714.4,336.6 1714.4,335.1 1694.3,335.1 	"/>
	<path class="st0" d="M1053.8,249.6c11.9,0,20.3,6.5,22.6,19.2h0.8v-19.5h-0.8v16.5h-0.1c-2.5-10.4-10.4-17-22.5-17
		c-15,0-24.8,10.5-24.8,25.3c0,15,10.3,25.6,24.6,25.6c12.3,0,21.5-8,23.9-20.1l-0.9-0.2c-2.3,11.7-11.2,19.4-23,19.4
		c-13.8,0-23.7-10.1-23.7-24.7C1030,259.7,1039.2,249.6,1053.8,249.6z"/>
	<path class="st0" d="M1110.5,299.5c14.9,0,25.2-10.5,25.2-25.5c0-14.8-10.3-25.2-25.2-25.2c-14.8,0-25.1,10.4-25.1,25.2
		C1085.4,289.1,1095.7,299.5,1110.5,299.5z M1110.5,249.6c14.4,0,24.3,10.1,24.3,24.4c0,14.6-9.9,24.7-24.3,24.7
		c-14.4,0-24.3-10.1-24.3-24.7C1086.2,259.7,1096.2,249.6,1110.5,249.6z"/>
	<polygon class="st0" points="1141.8,250 1151.5,250 1151.5,298.3 1141.8,298.3 1141.8,299.1 1161.9,299.1 1161.9,298.3 
		1152.3,298.3 1152.3,250.1 1152.5,250.1 1189,299.1 1190.2,299.1 1190.2,250.1 1199.8,250.1 1199.8,249.3 1178.8,249.3 
		1178.8,250.1 1189.4,250.1 1189.4,298.1 1189.2,298.1 1152.8,249.3 1141.8,249.3 	"/>
	<polygon class="st0" points="1203.9,263.5 1204.7,263.5 1204.7,250.1 1226.1,250.1 1226.1,298.3 1216.4,298.3 1216.4,299.1 
		1236.5,299.1 1236.5,298.3 1226.9,298.3 1226.9,250.1 1248.3,250.1 1248.3,263.5 1249.1,263.5 1249.1,249.3 1203.9,249.3 	"/>
	<path class="st0" d="M1254.1,250.1h9.7v48.2h-9.7v0.8h20.2v-0.8h-9.7v-24h18.7c3.3,0,5,1.1,6.2,4.6l7,20.2h6.7v-0.8h-6.1l-6.9-19.8
		c-0.9-2.6-2.1-4.2-5-4.6c7.5-0.7,13.2-5.6,13.2-12.7c0-7.2-5.6-11.9-16.9-11.9h-27.4V250.1z M1264.6,250.1h16.9
		c10.7,0,16.1,4.4,16.1,11.1c0,6.9-5.7,12.4-16.2,12.4h-16.8V250.1z"/>
	<path class="st0" d="M1343,299.1h21.3v-0.8h-5.8l-21.1-49h-1.1l-21.1,49h-5.8v0.8h21.3v-0.8h-14.6l7.3-17.1h26.7l7.3,17.1H1343
		V299.1z M1323.8,280.5l13-30.2h0.1l13,30.2H1323.8z"/>
	<path class="st0" d="M1371.7,285.6L1371.7,285.6c1.6,8.9,8.3,14.2,19.5,14.2c10.1,0,15.8-4.6,15.8-12.9c0-7.9-5-11.8-17.8-13.9
		c-12.9-2.1-17.3-5.3-17.3-12c0-7.5,5.6-11.6,14.8-11.6c10.4,0,16.1,5.1,17.6,15h0.8v-15.1h-0.8v13.4h-0.1c-1.5-8.7-7-14-17.6-14
		c-9.7,0-15.6,4.4-15.6,12.3c0,7.2,4.8,10.7,17.9,12.8c12.5,2.1,17.1,5.6,17.1,13.1c0,7.7-5.3,12.1-15,12.1
		c-11.3,0-18.1-5.3-19.5-15h-0.8v15.1h0.8V285.6z"/>
	<polygon class="st0" points="1413.1,263.5 1413.9,263.5 1413.9,250.1 1435.3,250.1 1435.3,298.3 1425.6,298.3 1425.6,299.1 
		1445.6,299.1 1445.6,298.3 1436,298.3 1436,250.1 1457.4,250.1 1457.4,263.5 1458.2,263.5 1458.2,249.3 1413.1,249.3 	"/>
	<polygon class="st0" points="1463.3,298.3 1463.3,299.1 1483.4,299.1 1483.4,298.3 1473.8,298.3 1473.8,250.1 1483.4,250.1 
		1483.4,249.3 1463.3,249.3 1463.3,250.1 1472.9,250.1 1472.9,298.3 	"/>
	<polygon class="st0" points="1509.5,298.3 1499.9,298.3 1499.9,250.1 1500.1,250.1 1536.6,299.1 1537.7,299.1 1537.7,250.1 
		1547.3,250.1 1547.3,249.3 1526.4,249.3 1526.4,250.1 1537,250.1 1537,298.1 1536.8,298.1 1500.4,249.3 1489.4,249.3 1489.4,250 
		1499.1,250 1499.1,298.3 1489.4,298.3 1489.4,299.1 1509.5,299.1 	"/>
	<path class="st0" d="M1578.4,248.8c-15.2,0-25,10.5-25,25.3c0,15,10.3,25.6,24.6,25.6c11.6,0,20.6-7.6,23.2-19.2l0.2,18.7h0.6
		v-22.2h6.3v-0.8H1582v0.8h19.1c-1.5,13.2-10.9,21.8-23.1,21.8c-13.8,0-23.7-10.1-23.7-24.7c0-14.4,9.4-24.4,24.1-24.4
		c11.9,0,20.1,6.5,22.3,19.2h0.8v-19.5h-0.8v16.5h-0.1C1598.2,255.5,1590.6,248.8,1578.4,248.8z"/>
	<polygon class="st0" points="1612.7,298.3 1612.7,299.1 1653.1,299.1 1653.1,282.8 1652.3,282.8 1652.3,298.3 1623.3,298.3 
		1623.3,250.1 1632.9,250.1 1632.9,249.3 1612.7,249.3 1612.7,250.1 1622.4,250.1 1622.4,298.3 	"/>
	<polygon class="st0" points="1694,250.1 1706.6,250.1 1686.3,275 1686.2,275 1666,250.1 1678.3,250.1 1678.3,249.3 1658.2,249.3 
		1658.2,250.1 1664.9,250.1 1685.8,275.8 1685.8,298.3 1676.2,298.3 1676.2,299.1 1696.2,299.1 1696.2,298.3 1686.6,298.3 
		1686.6,275.8 1707.5,250.1 1714.2,250.1 1714.2,249.3 1694,249.3 	"/>
	<polygon class="st0" points="1047.3,212.9 1037.5,212.9 1037.5,188.3 1075,188.3 1075,212.9 1065.1,212.9 1065.1,213.3 
		1085.1,213.3 1085.1,212.9 1075.3,212.9 1075.3,163.8 1085.1,163.8 1085.1,163.5 1065.1,163.5 1065.1,163.8 1075,163.8 1075,188 
		1037.5,188 1037.5,163.8 1047.3,163.8 1047.3,163.5 1027.3,163.5 1027.3,163.8 1037.2,163.8 1037.2,212.9 1027.3,212.9 
		1027.3,213.3 1047.3,213.3 	"/>
	<path class="st0" d="M1113,212.9h-15l7.7-17.7h27.1l7.7,17.7h-15v0.3h21.3v-0.3h-5.9l-21.4-49.5h-0.5l-21.4,49.5h-5.9v0.3h21.3
		V212.9z M1119.3,163.9h0.1l13.4,31h-26.9L1119.3,163.9z"/>
	<polygon class="st0" points="1173.6,212.9 1163.8,212.9 1163.8,163.8 1173.6,163.8 1173.6,163.5 1153.6,163.5 1153.6,163.8 
		1163.4,163.8 1163.4,212.9 1153.6,212.9 1153.6,213.3 1173.6,213.3 	"/>
	<path class="st0" d="M1200.4,212.9h-9.9v-24.6h19.4c3.3,0,5,1.1,6.2,4.6l7.1,20.4h6.4v-0.3h-6.1l-7-20.2c-1-2.8-2.1-4.4-5.5-4.6
		V188c7.7-0.6,13.8-5.5,13.8-12.8c0-7-5.6-11.8-16.9-11.8h-27.5v0.3h9.9v49.1h-9.9v0.3h20.1V212.9z M1190.6,163.8h17.3
		c11.1,0,16.6,4.6,16.6,11.5c0,7-5.8,12.7-16.6,12.7h-17.2V163.8z"/>
	<polygon class="st0" points="1276.5,197 1276.2,197 1276.2,212.9 1246.4,212.9 1246.4,163.8 1256.3,163.8 1256.3,163.5 
		1236.2,163.5 1236.2,163.8 1246.1,163.8 1246.1,212.9 1236.2,212.9 1236.2,213.3 1276.5,213.3 	"/>
	<polygon class="st0" points="1302.4,212.9 1292.6,212.9 1292.6,163.8 1302.4,163.8 1302.4,163.5 1282.4,163.5 1282.4,163.8 
		1292.3,163.8 1292.3,212.9 1282.4,212.9 1282.4,213.3 1302.4,213.3 	"/>
	<polygon class="st0" points="1329.2,212.9 1319.4,212.9 1319.4,163.8 1319.5,163.8 1356.9,213.3 1357.5,213.3 1357.5,163.8 
		1367.3,163.8 1367.3,163.5 1346.3,163.5 1346.3,163.8 1357.1,163.8 1357.1,212.9 1357.1,212.9 1319.7,163.5 1309.2,163.5 
		1309.2,163.7 1319.1,163.7 1319.1,212.9 1309.2,212.9 1309.2,213.3 1329.2,213.3 	"/>
	<polygon class="st0" points="1418.1,200.9 1417.8,200.9 1417.8,212.9 1382.6,212.9 1382.6,188.3 1404.9,188.3 1404.9,188 
		1382.6,188 1382.6,163.8 1417.2,163.8 1417.2,175.8 1417.5,175.8 1417.5,163.5 1372.4,163.5 1372.4,163.8 1382.2,163.8 
		1382.2,212.9 1372.4,212.9 1372.4,213.3 1418.1,213.3 	"/>
	<path class="st0" d="M1450.2,199.5L1450.2,199.5c1.6,9.1,8.4,14.4,19.9,14.4c10.1,0,15.7-4.6,15.7-12.8c0-7.8-5-11.7-17.7-13.8
		c-13.2-2.2-17.6-5.4-17.6-12.3c0-7.7,5.8-11.9,15.2-11.9c10.7,0,16.4,5.2,17.9,15.4h0.3v-15.1h-0.3v13.6h-0.1
		c-1.5-8.9-7-14.3-17.9-14.3c-9.7,0-15.6,4.3-15.6,12.2c0,7.2,4.7,10.5,17.9,12.6c12.8,2.1,17.5,5.8,17.5,13.4
		c0,8-5.4,12.4-15.4,12.4c-11.5,0-18.5-5.4-19.9-15.4h-0.3v15.1h0.3V199.5z"/>
	<polygon class="st0" points="1538.6,200.9 1538.3,200.9 1538.3,212.9 1503,212.9 1503,188.3 1525.4,188.3 1525.4,188 1503,188 
		1503,163.8 1537.7,163.8 1537.7,175.8 1538,175.8 1538,163.5 1492.8,163.5 1492.8,163.8 1502.7,163.8 1502.7,212.9 1492.8,212.9 
		1492.8,213.3 1538.6,213.3 	"/>
	<path class="st0" d="M1565.5,212.9h-9.9v-24.6h19.4c3.3,0,5,1.1,6.2,4.6l7.1,20.4h6.4v-0.3h-6.1l-7-20.2c-1-2.8-2.1-4.4-5.5-4.6
		V188c7.7-0.6,13.8-5.5,13.8-12.8c0-7-5.6-11.8-16.9-11.8h-27.5v0.3h9.9v49.1h-9.9v0.3h20.1V212.9z M1555.6,163.8h17.3
		c11.1,0,16.6,4.6,16.6,11.5c0,7-5.8,12.7-16.6,12.7h-17.2V163.8z"/>
	<polygon class="st0" points="1621.3,212.9 1611.5,212.9 1611.5,163.8 1621.3,163.8 1621.3,163.5 1601.3,163.5 1601.3,163.8 
		1611.1,163.8 1611.1,212.9 1601.3,212.9 1601.3,213.3 1621.3,213.3 	"/>
	<polygon class="st0" points="1649.1,212.9 1638.3,212.9 1638.3,188.3 1659.5,188.3 1659.5,188 1638.3,188 1638.3,163.8 
		1670.8,163.8 1670.8,175.8 1671.1,175.8 1671.1,163.5 1628.1,163.5 1628.1,163.8 1638,163.8 1638,212.9 1628.1,212.9 1628.1,213.3 
		1649.1,213.3 	"/>
	<path class="st0" d="M1678.1,199.5L1678.1,199.5c1.6,9.1,8.4,14.4,19.9,14.4c10.1,0,15.7-4.6,15.7-12.8c0-7.8-5-11.7-17.7-13.8
		c-13.2-2.2-17.6-5.4-17.6-12.3c0-7.7,5.8-11.9,15.2-11.9c10.7,0,16.4,5.2,17.9,15.4h0.3v-15.1h-0.3v13.6h-0.1
		c-1.5-8.9-7-14.3-17.9-14.3c-9.7,0-15.6,4.3-15.6,12.2c0,7.2,4.7,10.5,17.9,12.6c12.8,2.1,17.5,5.8,17.5,13.4
		c0,8-5.4,12.4-15.4,12.4c-11.5,0-18.5-5.4-19.9-15.4h-0.3v15.1h0.3V199.5z"/>
	<path class="st0" d="M1053.8,423.3c10.9,0,18.6,6.1,20.8,17.1h3v-19.5h-3v14.7h-0.2c-2.1-9.2-9.2-15.3-20.7-15.3
		c-14.8,0-24.8,10.5-24.8,25.4c0,15,10.4,25.6,24.8,25.6c12.4,0,21.6-7.8,24-19.7l-3.1-0.7c-2.1,10.5-10.1,17.3-20.9,17.3
		c-12.6,0-21.6-9.3-21.6-22.6C1032.1,432.5,1040.7,423.3,1053.8,423.3z"/>
	<path class="st0" d="M1086,445.7c0,15.1,10.4,25.6,25.4,25.6s25.4-10.5,25.4-25.6c0-14.9-10.4-25.4-25.4-25.4
		S1086,430.8,1086,445.7z M1111.5,423.3c13.2,0,22.2,9.1,22.2,22.4c0,13.4-9.1,22.6-22.2,22.6s-22.2-9.3-22.2-22.6
		C1089.3,432.4,1098.3,423.3,1111.5,423.3z"/>
	<polygon class="st0" points="1188.3,466.6 1156.3,420.9 1143,420.9 1143,423.6 1151.8,423.6 1151.8,467.9 1143,467.9 1143,470.7 
		1163.4,470.7 1163.4,467.9 1154.6,467.9 1154.6,424.2 1154.9,424.2 1187.5,470.7 1191.6,470.7 1191.6,423.7 1200.4,423.7 
		1200.4,420.9 1179.4,420.9 1179.4,423.7 1188.8,423.7 1188.8,466.6 	"/>
	<polygon class="st0" points="1251.3,436 1251.3,420.9 1205.2,420.9 1205.2,436 1208.2,436 1208.2,423.7 1226.7,423.7 1226.7,467.9 
		1218,467.9 1218,470.7 1238.5,470.7 1238.5,467.9 1229.8,467.9 1229.8,423.7 1248.3,423.7 1248.3,436 	"/>
	<polygon class="st0" points="1300.3,467.9 1268.8,467.9 1268.8,446.9 1290.1,446.9 1290.1,444.2 1268.8,444.2 1268.8,423.7 
		1299.7,423.7 1299.7,434.4 1302.7,434.4 1302.7,420.9 1257,420.9 1257,423.7 1265.8,423.7 1265.8,467.9 1257,467.9 1257,470.7 
		1303.2,470.7 1303.2,457.2 1300.3,457.2 	"/>
	<polygon class="st0" points="1310.4,467.9 1310.4,470.7 1331,470.7 1331,467.9 1322,467.9 1322,423.7 1322.3,423.7 1342.4,470.7 
		1345.7,470.7 1366,423.7 1366.3,423.7 1366.3,467.9 1357.2,467.9 1357.2,470.7 1378.1,470.7 1378.1,467.9 1369.3,467.9 
		1369.3,423.7 1378.1,423.7 1378.1,420.9 1364,420.9 1364,421 1364,420.9 1344.2,466.9 1324.6,420.9 1324.5,421 1324.5,420.9 
		1310.4,420.9 1310.4,423.7 1319.2,423.7 1319.2,467.9 	"/>
	<path class="st0" d="M1405.8,467.9h-8.7v-21h15c12.7,0,17.2-6.2,17.2-13.1c0-8.1-5.7-12.9-17-12.9h-27.1v2.8h8.8v44.2h-8.8v2.8
		h20.6V467.9z M1397.1,423.7h15.1c9.1,0,14,3.6,14,10.3c0,6.6-4.7,10.3-14,10.3h-15.2V423.7z"/>
	<path class="st0" d="M1462.7,420.3c-15,0-25.4,10.5-25.4,25.4c0,15.1,10.4,25.6,25.4,25.6s25.4-10.5,25.4-25.6
		C1488.1,430.8,1477.7,420.3,1462.7,420.3z M1462.7,468.3c-13.2,0-22.2-9.3-22.2-22.6c0-13.2,9-22.4,22.2-22.4s22.2,9.1,22.2,22.4
		C1484.9,459.1,1475.8,468.3,1462.7,468.3z"/>
	<path class="st0" d="M1494.2,467.9v2.8h20.6v-2.8h-8.7v-21h15.4c3.3,0,4.9,1.1,6.1,4.6l6.6,19.2h8.2v-2.8h-5.7l-6.7-18.1
		c-0.7-1.8-1.7-3.1-3.1-3.9c6.8-1.3,11.4-6,11.4-12.6c0-7.5-5.7-12.4-17-12.4h-27.1v2.8h8.8v44.2H1494.2z M1506,423.7h15.1
		c9.1,0,14,3.6,14,9.8c0,6.4-4.9,10.7-14.1,10.7h-15V423.7z"/>
	<path class="st0" d="M1554.1,467.9h-5.3v2.8h21.1v-2.8h-12.8l5.9-14.1h25l6,14.1h-12.8v2.8h21.3v-2.8h-5.3l-19.7-47h-3.6
		L1554.1,467.9z M1575.7,424.6l11.2,26.5h-22.6l11.1-26.5H1575.7z"/>
	<path class="st0" d="M1635.6,446.9c3.3,0,4.9,1.1,6.1,4.6l6.6,19.2h8.2v-2.8h-5.7l-6.7-18.1c-0.7-1.8-1.7-3.1-3.1-3.9
		c6.8-1.3,11.4-6,11.4-12.6c0-7.5-5.7-12.4-17-12.4h-27.1v2.8h8.8v44.2h-8.8v2.8h20.6v-2.8h-8.7v-21H1635.6z M1620.2,423.7h15.1
		c9.1,0,14,3.6,14,9.8c0,6.4-4.9,10.7-14.1,10.7h-15V423.7z"/>
	<polygon class="st0" points="1686.3,448.2 1686.3,467.9 1677.5,467.9 1677.5,470.7 1698.1,470.7 1698.1,467.9 1689.3,467.9 
		1689.3,448.2 1708.5,423.7 1714.1,423.7 1714.1,420.9 1694,420.9 1694,423.7 1705.1,423.7 1688.1,445.4 1687.8,445.4 1670.9,423.7 
		1681.5,423.7 1681.5,420.9 1661.4,420.9 1661.4,423.7 1667,423.7 	"/>
	<polygon class="st0" points="1040.4,512.1 1069.7,556.5 1076.4,556.5 1076.4,511.2 1084.4,511.2 1084.4,506.7 1063.5,506.7 
		1063.5,511.2 1071.7,511.2 1071.7,549.8 1071.3,549.8 1042.9,506.7 1027.4,506.7 1027.4,511.2 1035.5,511.2 1035.5,552 1027.4,552 
		1027.4,556.5 1048.1,556.5 1048.1,552 1040.1,552 1040.1,512.1 	"/>
	<polygon class="st0" points="1110.9,511.2 1110.9,506.7 1089.9,506.7 1089.9,511.2 1097.9,511.2 1097.9,552 1089.9,552 
		1089.9,556.5 1110.9,556.5 1110.9,552 1102.8,552 1102.8,511.2 	"/>
	<polygon class="st0" points="1118.9,552 1118.9,556.5 1139.5,556.5 1139.5,552 1131.5,552 1131.5,512.1 1131.8,512.1 1161.1,556.5 
		1167.8,556.5 1167.8,511.2 1175.8,511.2 1175.8,506.7 1154.9,506.7 1154.9,511.2 1163.2,511.2 1163.2,549.8 1162.7,549.8 
		1134.3,506.7 1118.9,506.7 1118.9,511.2 1126.9,511.2 1126.9,552 	"/>
	<polygon class="st0" points="1228,542.2 1223,542.2 1223,552 1194.3,552 1194.3,533.6 1214.7,533.6 1214.7,529.2 1194.3,529.2 
		1194.3,511.2 1222.4,511.2 1222.4,521 1227.4,521 1227.4,506.7 1181.3,506.7 1181.3,511.2 1189.3,511.2 1189.3,552 1181.3,552 
		1181.3,556.5 1228,556.5 	"/>
	<path class="st0" d="M1258.9,552v4.5h24.2c15.6,0,26-10.3,26-25c0-14.6-10.4-24.8-26-24.8h-24.2v4.5h8V552H1258.9z M1271.9,511.2
		h11.3c12.4,0,20.7,8.3,20.7,20.3c0,12.1-8.3,20.5-20.7,20.5h-11.3V511.2z"/>
	<polygon class="st0" points="1315,552 1315,556.5 1336,556.5 1336,552 1328,552 1328,511.2 1336,511.2 1336,506.7 1315,506.7 
		1315,511.2 1323,511.2 1323,552 	"/>
	<polygon class="st0" points="1387.5,521 1387.5,506.7 1344,506.7 1344,511.2 1352,511.2 1352,552 1344,552 1344,556.5 
		1366.6,556.5 1366.6,552 1357,552 1357,533.6 1375,533.6 1375,529.2 1357,529.2 1357,511.2 1382.6,511.2 1382.6,521 	"/>
	<polygon class="st0" points="1437,521 1437,506.7 1393.5,506.7 1393.5,511.2 1401.6,511.2 1401.6,552 1393.5,552 1393.5,556.5 
		1416.1,556.5 1416.1,552 1406.5,552 1406.5,533.6 1424.5,533.6 1424.5,529.2 1406.5,529.2 1406.5,511.2 1432.1,511.2 1432.1,521 	
		"/>
	<polygon class="st0" points="1489.1,521 1489.1,506.7 1443.1,506.7 1443.1,511.2 1451.1,511.2 1451.1,552 1443.1,552 1443.1,556.5 
		1489.7,556.5 1489.7,542.2 1484.8,542.2 1484.8,552 1456,552 1456,533.6 1476.5,533.6 1476.5,529.2 1456,529.2 1456,511.2 
		1484.2,511.2 1484.2,521 	"/>
	<path class="st0" d="M1545.1,552h-5.4l-6.4-16.7c-0.5-1.3-1.3-2.4-2.4-3.2c6.5-1.4,10.5-6.3,10.5-12.6c0-7.9-5.7-12.8-17.1-12.8
		h-26.7v4.5h8V552h-8v4.5h21V552h-8v-18.4h12.6c3.3,0,4.8,1.2,6,4.6l6.4,18.3h9.5V552z M1524.2,529.2h-13.5v-18h13.6
		c7.7,0,12.2,2.9,12.2,8.6C1536.5,525.7,1532.2,529.2,1524.2,529.2z"/>
	<polygon class="st0" points="1552,552 1552,556.5 1598.7,556.5 1598.7,542.2 1593.7,542.2 1593.7,552 1565,552 1565,533.6 
		1585.5,533.6 1585.5,529.2 1565,529.2 1565,511.2 1593.1,511.2 1593.1,521 1598.1,521 1598.1,506.7 1552,506.7 1552,511.2 
		1560,511.2 1560,552 	"/>
	<polygon class="st0" points="1627.3,552 1619.3,552 1619.3,512.1 1619.6,512.1 1648.9,556.5 1655.6,556.5 1655.6,511.2 
		1663.6,511.2 1663.6,506.7 1642.7,506.7 1642.7,511.2 1650.9,511.2 1650.9,549.8 1650.5,549.8 1622.1,506.7 1606.6,506.7 
		1606.6,511.2 1614.7,511.2 1614.7,552 1606.6,552 1606.6,556.5 1627.3,556.5 	"/>
	<polygon class="st0" points="1715.8,522.7 1715.8,506.7 1668.7,506.7 1668.7,522.7 1673.7,522.7 1673.7,511.2 1689.8,511.2 
		1689.8,552 1681.8,552 1681.8,556.5 1702.7,556.5 1702.7,552 1694.8,552 1694.8,511.2 1710.8,511.2 1710.8,522.7 	"/>
	<path class="st0" d="M1054.5,591.6c-15.4,0-26,10.5-26,25.6c0,15.3,10.7,25.9,26,25.9c15.4,0,26-10.6,26-25.9
		C1080.5,602.2,1069.9,591.6,1054.5,591.6z M1054.5,635.7c-10.6,0-17.9-7.5-17.9-18.4c0-10.8,7.3-18.1,17.9-18.1
		c10.7,0,17.9,7.3,17.9,18.1C1072.5,628.1,1065.2,635.7,1054.5,635.7z"/>
	<path class="st0" d="M1111.1,592.4h-26.6v6.8h7v36.3h-7v6.8h21.6v-6.8h-7v-15.1h11.6c14.7,0,17.9-8,17.9-14.2
		C1128.7,597.5,1122.8,592.4,1111.1,592.4z M1111,613.9h-11.9v-14.7h11.7c6,0,9.9,2.3,9.9,7.5C1120.8,611.6,1117.3,613.9,1111,613.9
		z"/>
	<polygon class="st0" points="1181.8,609.6 1181.8,592.4 1133.6,592.4 1133.6,609.6 1141,609.6 1141,599.2 1153.9,599.2 
		1153.9,635.5 1146.9,635.5 1146.9,642.3 1168.5,642.3 1168.5,635.5 1161.6,635.5 1161.6,599.2 1174.3,599.2 1174.3,609.6 	"/>
	<polygon class="st0" points="1208,599.2 1208,592.4 1186.4,592.4 1186.4,599.2 1193.3,599.2 1193.3,635.5 1186.4,635.5 
		1186.4,642.3 1208,642.3 1208,635.5 1201,635.5 1201,599.2 	"/>
	<path class="st0" d="M1254.2,606.2h-0.3c-1.4-9.3-7.2-14.5-17.1-14.5c-14.4,0-24.8,10.5-24.8,25.6c0,15.1,10.5,25.9,25.4,25.9
		c12.8,0,22.2-7.7,24.6-19.4l-7.9-1.6c-1.7,8.2-8.1,13.5-16.7,13.5c-10.1,0-17.2-7.5-17.2-18.4c0-10.7,7.1-18.1,17.3-18.1
		c8.6,0,15,5.1,16.9,12.9h7.7v-19.7h-7.7V606.2z"/>
	<path class="st0" d="M1316,635.5h-4.2l-17.2-43.1h-9.1l-17.2,43.1h-4.2v6.8h21.2v-6.8h-9.3l3.4-8.7h20.8l3.4,8.7h-9.2v6.8h21.8
		V635.5z M1281.8,620.4l7.6-19.3h0.5l7.6,19.3H1281.8z"/>
	<polygon class="st0" points="1361.7,624.9 1354,624.9 1354,635.5 1334.7,635.5 1334.7,599.2 1342,599.2 1342,592.4 1320.1,592.4 
		1320.1,599.2 1327,599.2 1327,635.5 1320.1,635.5 1320.1,642.3 1361.7,642.3 	"/>
	<polygon class="st0" points="1446.5,642.3 1460.7,599.2 1464.8,599.2 1464.8,592.4 1444.8,592.4 1444.8,599.2 1453.5,599.2 
		1442.4,633.5 1442.1,633.5 1430.6,599.2 1437.6,599.2 1437.6,592.4 1414.5,592.4 1414.5,599.2 1421.8,599.2 1410.2,633.5 
		1409.9,633.5 1398.9,599.2 1407.1,599.2 1407.1,592.4 1386.5,592.4 1386.5,599.2 1390.5,599.2 1404.9,642.3 1414.4,642.3 
		1425.7,608.5 1426,608.5 1437,642.3 	"/>
	<polygon class="st0" points="1468.8,635.5 1468.8,642.3 1516.3,642.3 1516.3,626.7 1508.6,626.7 1508.6,635.5 1483.4,635.5 
		1483.4,620.4 1502.3,620.4 1502.3,613.9 1483.4,613.9 1483.4,599.2 1508,599.2 1508,608 1515.7,608 1515.7,592.4 1468.8,592.4 
		1468.8,599.2 1475.8,599.2 1475.8,635.5 	"/>
	<polygon class="st0" points="1544.7,599.2 1544.7,592.4 1523.1,592.4 1523.1,599.2 1530,599.2 1530,635.5 1523.1,635.5 
		1523.1,642.3 1544.7,642.3 1544.7,635.5 1537.7,635.5 1537.7,599.2 	"/>
	<path class="st0" d="M1578.2,623.9h12.8c-2.4,7.1-8.7,11.7-16.9,11.7c-10.3,0-17.3-7.5-17.3-18.4c0-10.7,7.1-18.1,17.3-18.1
		c8.5,0,15,5,16.8,12.9h7.7v-19.7h-7.7v13.7h-0.3c-1.4-9.3-7.2-14.4-17.1-14.4c-14.4,0-24.8,10.5-24.8,25.6c0,15,10.5,25.8,25,25.8
		c7.5,0,13.7-2.8,17.9-7.9l2.5,7.2h4.8v-18.4h6.9v-6.6h-27.4V623.9z"/>
	<polygon class="st0" points="1629.8,635.5 1622.9,635.5 1622.9,620.4 1648.7,620.4 1648.7,635.5 1641.7,635.5 1641.7,642.3 
		1663.3,642.3 1663.3,635.5 1656.4,635.5 1656.4,599.2 1663.3,599.2 1663.3,592.4 1641.7,592.4 1641.7,599.2 1648.7,599.2 
		1648.7,613.9 1622.9,613.9 1622.9,599.2 1629.8,599.2 1629.8,592.4 1608.2,592.4 1608.2,599.2 1615.2,599.2 1615.2,635.5 
		1608.2,635.5 1608.2,642.3 1629.8,642.3 	"/>
	<polygon class="st0" points="1667.9,592.4 1667.9,609.6 1675.4,609.6 1675.4,599.2 1688.2,599.2 1688.2,635.5 1681.3,635.5 
		1681.3,642.3 1702.8,642.3 1702.8,635.5 1695.9,635.5 1695.9,599.2 1708.7,599.2 1708.7,609.6 1716.1,609.6 1716.1,592.4 	"/>
	<path class="st0" d="M1074.1,714.3c0-7-3.9-10.7-11.2-12.1c6.2-1.7,9.3-5.3,9.3-11.4c0-8.5-6.4-13-17-13h-27.8v9.1h6v32.2h-6v9.1
		h30C1067.8,728.2,1074.1,723.1,1074.1,714.3z M1044.1,686.9h9.7c4.6,0,7.4,1.9,7.4,5.7c0,3.3-2,6.1-7.2,6.1h-9.9V686.9z
		 M1044.1,719.1v-12.2h10.4c6.1,0,8.5,2.5,8.5,6c0,4-3.2,6.2-8.3,6.2H1044.1z"/>
	<path class="st0" d="M1102.9,707c2.5,0,3.5,0.9,4.4,3.4l5.4,17.7h13.5v-9.1h-4.6l-4.9-13.2c-0.3-0.7-0.7-1.4-1.2-2.1v-0.2
		c5.4-1.9,8.6-6.1,8.6-12.1c0-8.6-6.4-13.7-18.9-13.7h-27.4v9.1h6v32.2h-6v9.1h22.6v-9.1h-5.9V707H1102.9z M1094.4,686.9h10.5
		c5,0,8.2,1.7,8.2,5.8c0,4.1-2.9,6.2-8.3,6.2h-10.4V686.9z"/>
	<path class="st0" d="M1154.6,728.9c13.2,0,21.3-8.1,21.3-20.7v-21.3h5.7v-9.1H1160v9.1h6.3v21.4c0,6.6-4.1,10.9-11.1,10.9
		c-7,0-11-4.3-11-10.9v-21.4h6.3v-9.1h-22.7v9.1h5.7v21.3C1133.4,720.7,1141.5,728.9,1154.6,728.9z"/>
	<path class="st0" d="M1234.1,708.6l-11-1.9c-1.4,7.3-7,12-14.4,12c-8.7,0-14.8-6.5-14.8-15.9c0-9.2,6.1-15.6,14.9-15.6
		c7.3,0,12.8,4.2,14.5,10.7h10.7v-20.2h-10.7v14.1h-0.3c-1.2-9.7-6.6-14.9-16-14.9c-13.6,0-24.3,10.7-24.3,25.8
		c0,15.3,10.8,26.2,26.1,26.2C1222.1,729,1231.9,720.9,1234.1,708.6z"/>
	<polygon class="st0" points="1287.4,710.6 1276.6,710.6 1276.6,719.1 1254.9,719.1 1254.9,706.9 1270.9,706.9 1270.9,698.8 
		1254.9,698.8 1254.9,686.9 1276,686.9 1276,695.5 1286.8,695.5 1286.8,677.8 1238.2,677.8 1238.2,686.9 1244.2,686.9 1244.2,719.1 
		1238.2,719.1 1238.2,728.2 1287.4,728.2 	"/>
	<path class="st0" d="M1366,719.1h-3.9l-16-41.2h-13.4l-16,41.2h-4v9.1h22.3v-9.1h-7.9l2.5-7h18.1l2.5,7h-7.6v9.1h23.3V719.1z
		 M1332.6,703.9l5.6-15.6h0.9l5.6,15.6H1332.6z"/>
	<polygon class="st0" points="1419.9,686.9 1425.8,686.9 1425.8,677.8 1404.9,677.8 1404.9,686.9 1410.8,686.9 1410.8,713.9 
		1409.7,713.9 1390.5,677.8 1369.1,677.8 1369.1,686.9 1375,686.9 1375,719.1 1369.1,719.1 1369.1,728.2 1390,728.2 1390,719.1 
		1384.2,719.1 1384.2,690.8 1385.1,690.8 1405.1,728.2 1419.9,728.2 	"/>
	<path class="st0" d="M1453.9,677.8h-25v9.1h6v32.2h-6v9.1h25c15.9,0,26.7-10.4,26.7-25.3C1480.5,688.2,1469.7,677.9,1453.9,677.8z
		 M1453.7,719.1h-8.1v-32.2h8.1c9.5,0,15.7,6.5,15.7,16C1469.3,712.5,1463.1,719.2,1453.7,719.1z"/>
	<path class="st0" d="M1529.8,721.1c-6.3,0-11-3.3-12-8.5h-10.7v15.6h10.7v-9.7h0.4c0.9,6.8,5.9,10.4,14.4,10.4
		c10.6,0,16.6-5.4,16.6-15c0-10-6.2-15.2-20.4-16.9c-7.9-1.3-10.9-3.4-10.9-6.9c0-3.3,2.9-5.3,7.6-5.3c6,0,10.5,3.4,11.4,8.5h10.7
		v-15.5h-10.7v9.8h-0.3c-0.8-7-5.6-10.5-13.8-10.5c-10.1,0-15.9,5.3-15.9,14c0,9.7,6.8,15.3,20.5,16.8c7.9,1,10.9,2.8,10.9,7
		C1538.1,718.9,1535.2,721.1,1529.8,721.1z"/>
	<path class="st0" d="M1581,677.1c-15.8,0-26.7,10.6-26.7,25.8c0,15.4,10.9,26.2,26.7,26.2c15.8,0,26.7-10.7,26.7-26.2
		C1607.6,687.6,1596.7,677.1,1581,677.1z M1581,718.7c-9.1,0-15.4-6.5-15.4-15.8c0-9.2,6.3-15.6,15.4-15.6s15.5,6.4,15.5,15.6
		C1596.5,712.2,1590.1,718.7,1581,718.7z"/>
	<polygon class="st0" points="1626.2,690.8 1646.2,728.2 1661,728.2 1661,686.9 1666.9,686.9 1666.9,677.8 1646,677.8 1646,686.9 
		1651.9,686.9 1651.9,713.9 1650.8,713.9 1631.6,677.8 1610.2,677.8 1610.2,686.9 1616.1,686.9 1616.1,719.1 1610.2,719.1 
		1610.2,728.2 1631.1,728.2 1631.1,719.1 1625.3,719.1 1625.3,690.8 	"/>
	<path class="st0" d="M1689.7,684.8c6,0,10.5,3.4,11.4,8.5h10.7v-15.5h-10.7v9.8h-0.3c-0.8-7-5.6-10.5-13.8-10.5
		c-10.1,0-15.9,5.3-15.9,14c0,9.7,6.8,15.3,20.5,16.8c7.9,1,10.9,2.8,10.9,7c0,4-3,6.2-8.3,6.2c-6.3,0-11-3.3-12-8.5h-10.7v15.6
		h10.7v-9.7h0.4c0.9,6.8,5.9,10.4,14.4,10.4c10.6,0,16.6-5.4,16.6-15c0-10-6.2-15.2-20.4-16.9c-7.9-1.3-10.9-3.4-10.9-6.9
		C1682.1,686.8,1685,684.8,1689.7,684.8z"/>
	<path class="st0" d="M1050.2,802.5h-6.4l1.8-5.4h14.9l1.8,5.4h-5.8V814h24.8v-11.5h-3.5l-14.6-39.3h-18.1l-14.7,39.3h-3.7V814h23.5
		V802.5z M1052.7,775.6h0.7l3.8,11.6h-8.4L1052.7,775.6z"/>
	<polygon class="st0" points="1103,774.7 1103.6,774.7 1113.7,814 1126.1,814 1136.3,774.7 1136.9,774.7 1136.9,802.5 1132.2,802.5 
		1132.2,814 1155.6,814 1155.6,802.5 1150.9,802.5 1150.9,774.7 1155.6,774.7 1155.6,763.3 1127.8,763.3 1121.5,789.6 1116.1,763.3 
		1114.5,763.5 1114.6,763.3 1085.3,763.3 1085.3,774.7 1090,774.7 1090,802.5 1085.3,802.5 1085.3,814 1107.6,814 1107.6,802.5 
		1103,802.5 	"/>
	<polygon class="st0" points="1212.5,794.3 1198.5,794.3 1198.5,802.5 1180.5,802.5 1180.5,793.5 1193.5,793.5 1193.5,783.5 
		1180.5,783.5 1180.5,774.7 1197.9,774.7 1197.9,782.9 1211.9,782.9 1211.9,763.3 1161.7,763.3 1161.7,774.7 1166.5,774.7 
		1166.5,802.5 1161.7,802.5 1161.7,814 1212.5,814 	"/>
	<path class="st0" d="M1244.3,793.6c1.7,0,2.4,0.6,3,2.5l4.8,17.9h15.8v-11.5h-4l-3.9-11.5c-0.2-0.6-0.5-1.2-0.9-1.7V789
		c4.7-2.1,7.7-5.6,7.7-11.5c0-8.9-6.9-14.2-20.5-14.2h-28.1v11.5h4.8v27.8h-4.8V814h23.6v-11.5h-4.8v-8.9H1244.3z M1237.1,774.7h9.1
		c3.7,0,6.2,1.3,6.2,4.4c0,3-2.2,4.5-6.3,4.5h-9V774.7z"/>
	<polygon class="st0" points="1296.6,774.7 1296.6,763.3 1273,763.3 1273,774.7 1277.8,774.7 1277.8,802.5 1273,802.5 1273,814 
		1296.6,814 1296.6,802.5 1291.8,802.5 1291.8,774.7 	"/>
	<path class="st0" d="M1326.4,814.8c14.1,0,24.4-8.6,26.4-21.5l-14.4-2.2c-1,6.3-5.6,10.5-11.9,10.5c-7.2,0-12.2-5.4-12.2-13.1
		c0-7.6,5-12.8,12.4-12.8c5.8,0,10.3,3.2,11.9,8.3h14v-20.7h-14v14.4h-0.5c-0.9-10.2-5.8-15.3-14.7-15.3
		c-12.7,0-23.7,10.7-23.7,26.1C1299.6,804,1310.6,814.8,1326.4,814.8z"/>
	<path class="st0" d="M1383.6,814h24.8v-11.5h-3.5l-14.6-39.3h-18.1l-14.7,39.3h-3.7V814h23.5v-11.5h-6.4l1.8-5.4h14.9l1.8,5.4h-5.8
		V814z M1376,787.2l3.8-11.6h0.7l3.8,11.6H1376z"/>
	<polygon class="st0" points="1451.9,795.6 1437.1,763.3 1412.4,763.3 1412.4,774.7 1417.1,774.7 1417.1,802.5 1412.4,802.5 
		1412.4,814 1433.4,814 1433.4,802.5 1428.6,802.5 1428.6,780.9 1429.6,780.9 1444.8,814 1464.4,814 1464.4,774.7 1469.2,774.7 
		1469.2,763.3 1448.2,763.3 1448.2,774.7 1452.9,774.7 1452.9,795.6 	"/>
	<polygon class="st0" points="1522,802.5 1513.9,802.5 1513.9,793.5 1525.2,793.5 1525.2,783.5 1513.9,783.5 1513.9,774.7 
		1529.4,774.7 1529.4,783.4 1543.4,783.4 1543.4,763.3 1495.1,763.3 1495.1,774.7 1499.9,774.7 1499.9,802.5 1495.1,802.5 
		1495.1,814 1522,814 	"/>
	<path class="st0" d="M1574.1,814.8c16.2,0,27.3-10.8,27.3-26.4c0-15.4-11.1-26.2-27.3-26.2c-16.2,0-27.3,10.8-27.3,26.2
		C1546.8,804.1,1558,814.8,1574.1,814.8z M1574.1,775.7c7.5,0,12.8,5.2,12.8,12.8c0,7.7-5.2,13-12.8,13s-12.8-5.4-12.8-13
		C1561.4,780.9,1566.6,775.7,1574.1,775.7z"/>
	<polygon class="st0" points="1640.3,774.7 1645,774.7 1645,795.6 1644.1,795.6 1629.2,763.3 1604.5,763.3 1604.5,774.7 
		1609.2,774.7 1609.2,802.5 1604.5,802.5 1604.5,814 1625.5,814 1625.5,802.5 1620.7,802.5 1620.7,780.9 1621.7,780.9 1636.9,814 
		1656.6,814 1656.6,774.7 1661.3,774.7 1661.3,763.3 1640.3,763.3 	"/>
	<polygon class="st0" points="1664.4,784.3 1676.8,784.3 1676.8,774.7 1683,774.7 1683,802.5 1678.3,802.5 1678.3,814 1701.8,814 
		1701.8,802.5 1697,802.5 1697,774.7 1703.2,774.7 1703.2,784.3 1715.7,784.3 1715.7,763.3 1664.4,763.3 	"/>
	<path class="st0" d="M1066.1,848.7h-22.4l-13.4,37.4h-3.4v13.7h24.6v-13.7h-5l1.1-3.7h12l1.1,3.7h-4.2v13.7h26.2v-13.7h-3.1
		L1066.1,848.7z M1051.1,870.7l2.3-7.9h0.3l2.3,7.9H1051.1z"/>
	<path class="st0" d="M1123.2,862.4h5.7v18.9c0,1.9-0.5,3-1.8,3s-1.8-1.1-1.8-3v-2.2h-17.1v2.2c0,12,5.6,19.1,18.9,19.1
		c13.2,0,18.9-7.6,18.9-19.1v-19h3.8v-13.7h-26.5V862.4z"/>
	<path class="st0" d="M1181.2,847.8c-16.6,0-28,10.9-28,26.4c0,15.7,11.5,26.6,28,26.6s28-10.9,28-26.6
		C1209.2,858.6,1197.7,847.8,1181.2,847.8z M1181.2,884.6c-6.1,0-10.3-4.3-10.3-10.5c0-6,4.2-10.2,10.3-10.2s10.3,4.2,10.3,10.2
		C1191.5,880.3,1187.3,884.6,1181.2,884.6z"/>
	<path class="st0" d="M1250.8,873.3c7.2-1.6,10.9-5.4,10.9-11.5c0-8.7-7.4-13.1-19.6-13.1h-30.4v13.7h3.8v23.7h-3.8v13.7h32.6
		c12,0,19.3-5,19.3-14C1263.5,878.6,1259.1,874.8,1250.8,873.3z M1232.5,862.4h7.8c2.8,0,4.2,1.1,4.2,2.9s-1.4,2.8-4.2,2.8h-7.8
		V862.4z M1241.6,886.1h-9.1v-6.2h9.1c3.1,0,4.7,1.1,4.7,3.1C1246.4,884.9,1244.6,886.1,1241.6,886.1z"/>
	<path class="st0" d="M1306.2,873.3c7.2-1.6,10.9-5.4,10.9-11.5c0-8.7-7.4-13.1-19.6-13.1H1267v13.7h3.8v23.7h-3.8v13.7h32.6
		c12,0,19.3-5,19.3-14C1318.9,878.6,1314.4,874.8,1306.2,873.3z M1287.9,862.4h7.8c2.8,0,4.2,1.1,4.2,2.9s-1.4,2.8-4.2,2.8h-7.8
		V862.4z M1297,886.1h-9.1v-6.2h9.1c3.1,0,4.7,1.1,4.7,3.1C1301.7,884.9,1299.9,886.1,1297,886.1z"/>
	<polygon class="st0" points="1322.4,862.4 1326.1,862.4 1326.1,886.1 1322.4,886.1 1322.4,899.8 1347,899.8 1347,886.1 
		1343.2,886.1 1343.2,862.4 1347,862.4 1347,848.7 1322.4,848.7 	"/>
	<polygon class="st0" points="1388.4,862.4 1392.1,862.4 1392.1,877.6 1391.8,877.6 1380.4,848.7 1352.6,848.7 1352.6,862.4 
		1356.2,862.4 1356.2,886.1 1352.6,886.1 1352.6,899.8 1373.6,899.8 1373.6,886.1 1370,886.1 1370,870.7 1370.3,870.7 1381.8,899.8 
		1405.9,899.8 1405.9,862.4 1409.5,862.4 1409.5,848.7 1388.4,848.7 	"/>
	<path class="st0" d="M1437.2,881.5h11.6v0.2c-2.4,2.1-5.8,3.4-9.3,3.4c-6.8,0-10.7-4.4-10.7-10.9c0-6.1,4.2-10.3,10.3-10.3
		c4.4,0,7.9,2.1,9.2,5.4h17.1v-20.5h-17.1v14.1h-0.5c-0.7-10.1-5.2-15-13.4-15c-12,0-23.3,10.9-23.3,26.4
		c0,15.7,11.3,26.6,26.9,26.6c6.7,0,11.9-2.1,15.4-6.4l2.8,5.4h9.5v-18.3h3.6v-10.5h-32.3V881.5z"/>
	<polygon class="st0" points="1495.2,871.5 1510,871.5 1510,862.4 1513,862.4 1513,886.1 1509.3,886.1 1509.3,899.8 1533.7,899.8 
		1533.7,886.1 1530.1,886.1 1530.1,862.4 1533,862.4 1533,871.5 1547.9,871.5 1547.9,848.7 1495.2,848.7 	"/>
	<polygon class="st0" points="1581.4,862.4 1585.7,862.4 1579.8,870 1573.8,862.4 1578.2,862.4 1578.2,848.7 1551,848.7 1551,862.4 
		1553.9,862.4 1569.2,880.6 1569.2,886.1 1565.6,886.1 1565.6,899.8 1590,899.8 1590,886.1 1586.3,886.1 1586.3,880.6 1601.7,862.4 
		1604.6,862.4 1604.6,848.7 1581.4,848.7 	"/>
	<path class="st0" d="M1636.9,848.7h-28.4v13.7h3.8v23.7h-3.8v13.7h24.6v-13.7h-3.8v-6.2h7.3c14,0,21.6-5.8,21.6-15.7
		C1658.3,854.5,1651.1,848.7,1636.9,848.7z M1636.2,868.2h-6.8v-5.8h6.9c2.5,0,4.2,0.9,4.2,2.8S1639,868.2,1636.2,868.2z"/>
	<polygon class="st0" points="1696.8,886.1 1682.3,886.1 1682.3,879.9 1692.4,879.9 1692.4,868.2 1682.3,868.2 1682.3,862.4 
		1696.2,862.4 1696.2,870.3 1713.3,870.3 1713.3,848.7 1661.4,848.7 1661.4,862.4 1665.2,862.4 1665.2,886.1 1661.4,886.1 
		1661.4,899.8 1713.9,899.8 1713.9,878.2 1696.8,878.2 	"/>
</g>
</svg>
