<svg xmlns="http://www.w3.org/2000/svg" viewBox="0 0 1920 1080"><defs><style>.cls-1{fill:#f8f8f8;}.cls-2{fill:#323232;}</style></defs><title>Asset 5</title><g id="Layer_2" data-name="Layer 2"><g id="Layer_1-2" data-name="Layer 1"><rect class="cls-1" x="840" width="1080" height="1080"/><rect class="cls-2" width="840" height="1080"/><path class="cls-1" d="M659.07,618.7a59.81,59.81,0,0,1,.65,10.43c0,88.7-59.35,133-180,133H291.89v-3.91h23.48c24.78,0,37.82-12.39,40.43-39.79-71.74-3.91-120.65-39.78-144.13-101.74-22.18-5.22-28.7-20.22-45.66-20.22-9.78,0-16.95,12.4-18.91,36.53h-3.91L151,515h3.92c4.56,43.7,21.52,84.78,54.78,96.52-9.78-26.74-14.35-58.69-14.35-94.56,0-7.18.65-15,.65-22.83-27.39-11.74-50.87-26.09-50.87-57.39,0-36.52,32-58.7,61.31-58.7a55.56,55.56,0,0,1,24.78,5.87c28-41.74,71.74-66.52,125.22-69.13-1.3-26.74-13.69-39.13-41.08-39.13H291.89v-3.92H510.37c82.18,0,135.65,45,135.65,113.48v.66c20.88,5.87,28.7,19.56,43.05,19.56,6.52,0,12.39-3.91,13.7-16.3h3.91l2,78.91h-3.92c-5.87-40.43-31.3-69.13-58.7-77.61-1.95,50.87-29.34,84.13-84.78,99.13v13.05c56.09,16.3,92,56.09,97.83,111.52,24.13-11.74,43.7-37.82,43-75h2l5.87,13.7C703.42,582.83,686.46,608.26,659.07,618.7Zm-372.4-52.18a53.44,53.44,0,0,1-1.31,11.74c6.53-11.74,7.83-21.52,7.83-31.3,0-94.57-132.39-63.92-132.39-130.44a51.55,51.55,0,0,1,1.3-13c-6.52,7.17-12.39,16.3-12.39,33.26C149.71,500.65,286.67,479.78,286.67,566.52Zm-107.61,28.7c-7.18-5.87-18.92-33.91-25.44-56.09l-3.26,63.26a15.87,15.87,0,0,1,15-9.78C169.93,592.61,175.14,592.61,179.06,595.22ZM154.93,436.74a72.37,72.37,0,0,1,1.3-12.39C164.71,487,280.8,462.83,288,540.44,269.71,481.74,154.93,485.65,154.93,436.74Zm1.3,122.61c3.26,13.7,10.44,26.74,13.7,30-2.61-1.3-5.22-1.3-7.83-1.3a10,10,0,0,0-7.17,3.26Zm9.13-142.83c0,19.57,15.65,30,36.52,38.48a216.94,216.94,0,0,1,26.74-67.83A52.64,52.64,0,0,0,206.45,382C183.62,382,165.36,394.35,165.36,416.52Zm57.39,88.7V517c0,35.87,5.22,69.13,15.66,97.17,23.48-3.91,42.39-21.52,42.39-47.61C280.8,532,253.41,517.61,222.75,505.22Zm133.7,209.35V546.31c-21.52-2.61-37.82-19.57-37.82-43,0-22.17,13.69-39.13,37.82-50.87v-133c-45.65,3.26-82.82,31.31-106.3,75.66,4.56,1.95,8.47,3.91,13,3.91,6.52,0,12.39-3.91,13.7-16.3h3.91l2,78.91h-3.92c-3.91-24.78-15.65-46.3-31.3-61.3a234.11,234.11,0,0,0-20.22,64.56c34.57,13.05,70.44,30.65,70.44,82.18,0,43.69-27.4,66.52-58,71.09C260.58,673.48,301,709.35,356.45,714.57ZM278.19,440l-1.3-42.39c-2.61,4.56-8.48,5.87-12.4,5.87a44.48,44.48,0,0,1-9.78-1.31C260.58,406.74,272.32,422.39,278.19,440Zm-4.56-35.22,1.3,19.57c-2.61-8.48-7.83-15-11.09-17.61a5.91,5.91,0,0,0,3.26.65A11.65,11.65,0,0,0,273.63,404.78ZM387.76,534.57c-2.61,0-5.22.65-7.83.65-25.43.65-39.13-14.35-39.13-41.74,0-13.7,3.91-25.44,11.09-33.92C333,470,323.19,485,323.19,503.26c0,22.83,16.31,39.13,39.13,39.13A45,45,0,0,0,387.76,534.57Zm-22.18,3.26h-3.26c-20.22,0-34.56-14.35-34.56-34.57,0-10.43,3.91-19.56,11.74-29.35a53.58,53.58,0,0,0-3.26,19.57C336.24,518.91,345.37,532.61,365.58,537.83Zm-9.13-77c-7.17,7.83-11.08,18.26-11.08,32.61,0,13,3.26,24.13,11.08,30.65Zm24.13-145.44c51.53,5.22,69.14,35.87,87.4,35.87,7.82,0,12.39-7.83,15.65-26.74h3.91V442.61c6.53,3.91,10.44,11.08,10.44,19.56,0,9.79-7.18,17-18.26,17s-18.26-7.17-18.26-17,7.17-16.95,18.26-16.95a14.37,14.37,0,0,1,5.21.65c-3.26-3.26-7.82-4.57-14.34-4.57-14.35,0-29.35,7.18-39.79,33.92,5.22,7.82,10.44,14.34,14.35,19.56h60.66a172.6,172.6,0,0,0,18.26-1.3c1.95-61.31,45.65-105.66,94.56-109.57C618,321.3,567.76,275.65,499.28,275.65H421C394.28,275.65,381.89,288,380.58,315.43Zm6.53,127.18A81,81,0,0,1,380.58,412c0-20.87,12.4-31.95,28.05-31.95,16.3,0,27.39,10.43,27.39,25.43,0,14.35-10.43,25.44-28,33.92,5.21,9.78,11.74,19.56,18.26,29.34,1.3,1.31,1.95,3.27,3.26,4.57,6.52-22.83,22.83-35.87,41.09-35.87A26.45,26.45,0,0,1,483,440c-9.13-73.05-50.22-114.13-102.4-120.66V443.91C382.54,443.26,384.5,443.26,387.11,442.61Zm-6.53,52.17h32a5,5,0,0,0-1.3-2.61c-9.79-16.3-17.61-31.95-22.83-46.3l-7.83,1.95ZM632.33,624.57h-3.91c-58,0-102.4-50.22-104.35-122.61a186.78,186.78,0,0,0-33.92-3.26H448.41c18.26,21.52,28.7,26.08,37.18,26.08s15-4.56,21.52-20.87l2,.66c-9.13,27.39-18.92,39.78-35.22,39.78-18.92,0-38.48-15.65-54.79-39.78-10.43,18.91-23.48,32.6-38.48,38.47V714.57c32.61-5.22,81.53-30,81.53-103.7,0-30.65-3.92-52.17-26.74-52.17h-17v-3.92H533.85v3.92h-17c-19.56,0-28.69,18.26-28.69,48.91s1.3,53.48,16.3,72.39l-2.61,2c-7.17-10.43-15.65-18.91-25.43-18.91-24.13,0-41.09,48.91-95.22,55.43,1.95,27.4,12.39,39.79,31.95,39.79h92.62c73.69,0,126.52-54.14,126.52-129.14ZM417.76,502a11.45,11.45,0,0,1-2.61-3.26H380.58v31.95C394.28,530,403.41,524.13,417.76,502Zm56.09,37.82c8.48,0,14.35-3.26,20.22-12.39a18,18,0,0,1-8.48,2c-17,0-35.87-17.61-63.27-58.05-15.65-23.48-30.65-48.26-30.65-70.43,0-4.57.65-8.48,2.61-11.74-5.87,4.56-9.13,12.39-9.13,22.82,0,18.27,9.78,43.05,30,77.61C434.06,522.17,455.59,539.78,473.85,539.78ZM419.06,487c-19.56-33.92-26.08-49.57-30-71.74,7.18,23.47,18.26,41.74,29.35,58.69,26.74,39.79,46.31,57.4,65.22,59.35a26.05,26.05,0,0,1-9.78,2C456.89,535.22,436.67,517.61,419.06,487Zm-12.39-50.87c9.78-7.83,15.65-15,15.65-28.7s-5.87-23.48-14.34-23.48c-9.13,0-11.74,11.74-11.74,17C396.24,412,400.15,423.69,406.67,436.09Zm20.22-28.7c0,6.52-1.3,11.74-3.91,16.3,5.87-5.21,8.47-11.08,8.47-18.26,0-7.82-3.26-13.69-9.13-17.61A43.31,43.31,0,0,1,426.89,407.39Zm67.18,54.78c0-7.82-5.87-13-14.35-13s-14.35,5.22-14.35,13,5.87,13.05,14.35,13.05,14.35-5.22,14.35-13.05Zm-23.48,0c0-4.56,3.26-8.48,9.13-8.48s9.13,3.92,9.13,8.48-3.26,8.48-9.13,8.48-9.13-3.91-9.13-8.48Zm84.13,35.22c0-42.39,11.09-76.3,29.35-96.52-32,17.61-53.48,54.13-53.48,96.52,0,52.18,22.17,92.61,56.74,110.87C566.46,586.09,554.72,547,554.72,497.39Zm-17.61,0c0-25.43,7.83-48.91,22.17-66.52-7.17,18.91-11.08,41.09-11.08,66.52,0,30.65,4.56,58.05,12.39,79.57C545.59,556.74,537.11,529.35,537.11,497.39Zm81.52-109.57c-32,5.87-53.48,41.74-56.74,93.92C595.81,464.78,618,430.22,618.63,387.82ZM561.89,515c3.92,62.61,28.7,105.65,67.83,105.65h2.61C629.07,573.7,602.33,535.22,561.89,515Zm92-68.48c25.44,0,39.79,22.17,39.79,50.87,0,27.39-14.35,48.26-39.79,48.26-26.09,0-40.43-20.87-40.43-48.26C613.42,468.69,627.76,446.52,653.85,446.52ZM638.2,537.83c-5.22-7.83-7.83-21.53-7.83-40.44,0-19.56,2.61-34.56,8.48-43-13,7.17-20.87,22.17-20.87,43C618,517,625.81,532,638.2,537.83Zm-9.13-69.13c-2,7.82-2.61,17.6-2.61,28.69,0,10.44.65,19.57,2.61,26.74-4.57-7.17-7.18-16.3-7.18-26.74C621.89,486.3,624.5,476.52,629.07,468.7Zm24.78-18.27c-13,0-18.91,18.92-18.91,47,0,27.39,5.87,44.35,18.91,44.35s18.92-17,18.92-44.35C672.77,469.35,666.9,450.43,653.85,450.43Zm15,4.57c5.87,8.48,8.48,22.83,8.48,42.39,0,18.91-2.61,32-7.83,40.44,12.4-6.52,19.57-20.87,19.57-40.44C689.07,476.52,681.9,461.52,668.85,455Zm12.39,42.39c0-11.09-.65-20.22-2.61-27.39,4.57,6.52,6.53,16.3,6.53,27.39,0,9.78-2,18.91-5.87,25.44A144.66,144.66,0,0,0,681.24,497.39ZM687.11,412c5.87,6.53,10.44,14.35,14.35,22.18L700.81,408A18.19,18.19,0,0,1,689.07,412Zm11.09.66.65,10.43a21.06,21.06,0,0,0-5.21-8.48A7,7,0,0,0,698.2,412.61Z"/><path class="cls-2" d="M1067.78,368.51v16.36h-40.39v-1.53h9.34V336.6h-9.34v-1.52h20.4v1.52h-9.47v46.74h27.81V368.51Z"/><path class="cls-2" d="M1074.6,335.08h20.26v1.52h-9.34v46.74h9.34v1.53H1074.6v-1.53h9.33V336.6h-9.33Z"/><path class="cls-2" d="M1157.62,363.22h-6.42v21.65h-1.13l-.46-16c-3.31,10.06-11.85,16.49-22.51,16.49-14.24,0-24.57-10.53-24.57-25.56,0-14.83,9.87-25.29,25-25.29,11.85,0,19.13,6.42,21.52,15.56h.13v-15h1.59v19.53h-1.59c-2.25-12.05-10.13-18.41-21.65-18.41-14.17,0-23.31,9.67-23.31,23.64s9.67,23.9,22.91,23.9c11.72,0,20.59-8,22.38-20.39v-.13h-18.21v-1.59h26.29Z"/><path class="cls-2" d="M1211.64,336.6v46.74h9.27v1.53h-20.26v-1.53H1210V360.5h-35.35v22.84H1184v1.53h-20.25v-1.53H1173V336.6h-9.33v-1.52H1184v1.52h-9.33V359H1210V336.6h-9.33v-1.52h20.26v1.52Z"/><path class="cls-2" d="M1273.27,349.58h-1.65v-13h-20.33v46.74h9.27v1.53H1240.3v-1.53h9.34V336.6h-20.26v13h-1.66v-14.5h45.55Z"/><path class="cls-2" d="M1359.07,383.34v1.53h-21.32v-1.53h13.91l-6.82-15.95h-26.09l-6.82,15.95h13.91v1.53h-21.19v-1.53h5.63l20.59-48.26h2l20.6,48.26Zm-14.89-17.47-12.25-28.81h-.27l-12.24,28.81Z"/><path class="cls-2" d="M1424.08,335.08v1.52h-9.33v48.27h-2.25l-35-48h-.33v46.47h9.27v1.53h-20.13v-1.53h9.34v-46.8h-9.34v-1.46h11.85l34.7,47.6h.33V336.6H1403.1v-1.52Z"/><path class="cls-2" d="M1480.36,359.84c0,14.76-10.27,25-26.22,25h-24v-1.53h9.34V336.6h-9.34v-1.52h24C1470.09,335.08,1480.36,345.27,1480.36,359.84Zm-1.72,0c0-13.7-9.54-23.24-24.5-23.24h-13v46.74h13C1469.1,383.34,1478.64,373.68,1478.64,359.84Z"/><path class="cls-2" d="M1568.27,383.34v1.53H1547v-1.53h13.9L1554,367.39H1528l-6.82,15.95H1535v1.53h-21.19v-1.53h5.63l20.59-48.26h2l20.59,48.26Zm-14.89-17.47-12.25-28.81h-.27l-12.24,28.81Z"/><path class="cls-2" d="M1575.55,335.08h20.26v1.52h-9.33v46.74h9.33v1.53h-20.26v-1.53h9.34V336.6h-9.34Z"/><path class="cls-2" d="M1652.48,383.34v1.53h-7.21l-6.89-19.8c-1.19-3.44-2.78-4.57-6.09-4.57h-17.55v22.84h9.34v1.53h-20.26v-1.53h9.34V336.6h-9.34v-1.52h27.28c11.25,0,16.88,4.77,16.88,12.05,0,6.88-5.16,11.72-12.25,12.71,2.12.6,3.25,2.05,4,4.3l6.82,19.2ZM1631,359c10,0,15.37-5,15.37-11.72,0-6.49-5.24-10.66-15.3-10.66h-16.29V359Z"/><path class="cls-2" d="M1714.45,335.08v1.52h-6.36l-20.19,25.29v21.45h9.27v1.53h-20.26v-1.53h9.34V361.89L1666,336.6h-6.36v-1.52h20.13v1.52H1668l19,23.7h.26l18.94-23.7h-11.92v-1.52Z"/><path class="cls-2" d="M1077.58,279.52c-2.38,12.05-11.59,20.06-23.9,20.06-14.3,0-24.63-10.53-24.63-25.56,0-14.83,9.73-25.29,24.76-25.29,12.12,0,20.06,6.62,22.51,17h.07V249.26h.79v19.53h-.79c-2.25-12.71-10.66-19.2-22.58-19.2-14.56,0-23.83,10.07-23.83,24.43,0,14.57,9.93,24.7,23.7,24.7,11.85,0,20.79-7.68,23-19.4Z"/><path class="cls-2" d="M1085.45,274c0-14.83,10.27-25.22,25.1-25.22s25.16,10.39,25.16,25.22c0,15-10.27,25.49-25.16,25.49S1085.45,289.05,1085.45,274Zm49.39,0c0-14.36-9.86-24.43-24.29-24.43s-24.3,10.07-24.3,24.43c0,14.57,9.93,24.7,24.3,24.7S1134.84,288.59,1134.84,274Z"/><path class="cls-2" d="M1199.79,249.26v.79h-9.6v49h-1.12l-36.55-48.93h-.2v48.13h9.6v.8h-20.06v-.8h9.67V250h-9.67v-.73h11l36.41,48.8h.2v-48h-10.59v-.79Z"/><path class="cls-2" d="M1249.11,263.43h-.79V250.05h-21.39v48.2h9.6v.8h-20.06v-.8h9.67v-48.2h-21.39v13.38H1204V249.26h45.15Z"/><path class="cls-2" d="M1303.2,298.25v.8h-6.69l-7-20.19c-1.19-3.45-2.84-4.57-6.15-4.57h-18.67v24h9.66v.8h-20.19v-.8h9.66v-48.2h-9.66v-.79h27.41c11.25,0,16.88,4.77,16.88,11.92s-5.69,12-13.24,12.71c3,.4,4.1,1.92,5,4.57l6.89,19.79Zm-21.72-24.69c10.46,0,16.16-5.5,16.16-12.38,0-6.69-5.43-11.13-16.09-11.13h-16.88v23.51Z"/><path class="cls-2" d="M1364.3,298.25v.8h-21.25v-.8h14.57l-7.35-17.08h-26.75l-7.35,17.08h14.57v.8h-21.26v-.8h5.83l21.06-49h1.05l21.12,49Zm-14.36-17.81-13-30.19h-.13l-13,30.19Z"/><path class="cls-2" d="M1407,286.8c0,8.28-5.62,12.91-15.75,12.91-11.26,0-18-5.23-19.47-14.17h-.06v13.51h-.8V284h.8c1.39,9.74,8.21,15,19.46,15,9.67,0,15-4.37,15-12.11,0-7.49-4.56-11.06-17.08-13.11-13.17-2.19-17.94-5.63-17.94-12.85,0-7.94,5.89-12.31,15.56-12.31,10.66,0,16.15,5.29,17.61,14h.07V249.26h.79v15.1h-.79c-1.53-9.94-7.22-15-17.61-15-9.21,0-14.84,4.1-14.84,11.58,0,6.69,4.37,9.87,17.28,12S1407,278.92,1407,286.8Z"/><path class="cls-2" d="M1458.25,263.43h-.8V250.05h-21.38v48.2h9.6v.8h-20.06v-.8h9.66v-48.2h-21.38v13.38h-.8V249.26h45.16Z"/><path class="cls-2" d="M1463.27,249.26h20.2v.79h-9.67v48.2h9.67v.8h-20.2v-.8h9.67v-48.2h-9.67Z"/><path class="cls-2" d="M1547.35,249.26v.79h-9.6v49h-1.12l-36.55-48.93h-.2v48.13h9.6v.8h-20.06v-.8h9.67V250h-9.67v-.73h11l36.42,48.8h.2v-48h-10.6v-.79Z"/><path class="cls-2" d="M1608.19,276.87h-6.29v22.18h-.59l-.2-18.67c-2.58,11.58-11.59,19.2-23.17,19.2-14.24,0-24.57-10.53-24.57-25.56,0-14.83,9.87-25.29,25-25.29,12.25,0,19.8,6.75,22.25,17h.06V249.26h.8v19.53h-.8c-2.25-12.71-10.39-19.2-22.31-19.2-14.7,0-24.1,10.07-24.1,24.43,0,14.57,9.93,24.7,23.7,24.7,12.19,0,21.59-8.68,23.11-21.85H1582v-.8h26.15Z"/><path class="cls-2" d="M1653.08,282.76v16.29h-40.32v-.8h9.66v-48.2h-9.66v-.79H1633v.79h-9.66v48.2h29V282.76Z"/><path class="cls-2" d="M1714.25,249.26v.79h-6.75l-20.86,25.76v22.44h9.6v.8h-20.06v-.8h9.67V275.81l-20.92-25.76h-6.76v-.79h20.2v.79H1666l20.26,25h.06l20.26-25h-12.51v-.79Z"/><path class="cls-2" d="M1075.33,163.77V212.9h9.8v.33h-20v-.33H1075V188.27h-37.48V212.9h9.8v.33h-20v-.33h9.86V163.77h-9.86v-.33h20v.33h-9.8v24.17H1075V163.77h-9.87v-.33h20v.33Z"/><path class="cls-2" d="M1146.89,212.9v.33h-21.25v-.33h15l-7.68-17.74h-27.14l-7.68,17.74h15v.33h-21.25v-.33h5.89l21.39-49.46h.53L1141,212.9Zm-14.1-18.08-13.37-31h-.13l-13.38,31Z"/><path class="cls-2" d="M1153.58,163.44h20.06v.33h-9.87V212.9h9.87v.33h-20.06v-.33h9.86V163.77h-9.86Z"/><path class="cls-2" d="M1229.58,212.9v.33h-6.35l-7.09-20.39c-1.19-3.44-2.85-4.57-6.16-4.57h-19.4V212.9h9.87v.33h-20.06v-.33h9.86V163.77h-9.86v-.33h27.48c11.25,0,16.88,4.77,16.88,11.79,0,7.28-6.09,12.18-13.77,12.78v.06c3.44.27,4.5,1.79,5.49,4.64l7,20.19Zm-5.16-37.67c0-6.82-5.5-11.46-16.55-11.46h-17.29v24.17h17.22C1218.59,187.94,1224.42,182.25,1224.42,175.23Z"/><path class="cls-2" d="M1276.52,197v16.22h-40.26v-.33h9.87V163.77h-9.87v-.33h20.07v.33h-9.87V212.9h29.73V197Z"/><path class="cls-2" d="M1282.41,163.44h20.06v.33h-9.87V212.9h9.87v.33h-20.06v-.33h9.86V163.77h-9.86Z"/><path class="cls-2" d="M1367.28,163.44v.33h-9.8v49.46H1357l-37.4-49.46h-.13V212.9h9.79v.33h-20v-.33h9.86V163.71h-9.86v-.27h10.46l37.41,49.46h.06V163.77h-10.86v-.33Z"/><path class="cls-2" d="M1418.13,200.85v12.38h-45.75v-.33h9.86V163.77h-9.86v-.33h45.15v12.38h-.33v-12h-34.63v24.17H1405v.33h-22.38V212.9h35.23V200.85Z"/><path class="cls-2" d="M1485.78,201.11c0,8.21-5.56,12.78-15.69,12.78-11.45,0-18.27-5.36-19.79-14.43h-.07v13.77h-.33V198.14h.33c1.39,10.06,8.34,15.42,19.86,15.42,9.93,0,15.36-4.43,15.36-12.45,0-7.61-4.7-11.32-17.48-13.44-13.17-2.18-17.87-5.49-17.87-12.64,0-7.95,5.89-12.25,15.56-12.25,10.86,0,16.42,5.43,17.87,14.3h.07V163.44h.33v15.1h-.33c-1.52-10.26-7.28-15.43-17.94-15.43-9.47,0-15.23,4.17-15.23,11.92,0,6.88,4.37,10.13,17.61,12.31C1480.82,189.46,1485.78,193.3,1485.78,201.11Z"/><path class="cls-2" d="M1538.61,200.85v12.38h-45.75v-.33h9.87V163.77h-9.87v-.33H1538v12.38h-.33v-12h-34.63v24.17h22.38v.33h-22.38V212.9h35.22V200.85Z"/><path class="cls-2" d="M1594.62,212.9v.33h-6.35l-7.09-20.39c-1.19-3.44-2.85-4.57-6.16-4.57h-19.4V212.9h9.87v.33h-20.06v-.33h9.86V163.77h-9.86v-.33h27.48c11.25,0,16.88,4.77,16.88,11.79,0,7.28-6.09,12.18-13.77,12.78v.06c3.44.27,4.5,1.79,5.49,4.64l7,20.19Zm-5.16-37.67c0-6.82-5.5-11.46-16.55-11.46h-17.29v24.17h17.22C1583.63,187.94,1589.46,182.25,1589.46,175.23Z"/><path class="cls-2" d="M1601.3,163.44h20.07v.33h-9.87V212.9h9.87v.33H1601.3v-.33h9.87V163.77h-9.87Z"/><path class="cls-2" d="M1671.15,163.44v12.38h-.33v-12h-32.51v24.17h21.25v.33h-21.25V212.9h10.79v.33h-21v-.33H1638V163.77h-9.87v-.33Z"/><path class="cls-2" d="M1713.72,201.11c0,8.21-5.56,12.78-15.69,12.78-11.46,0-18.28-5.36-19.8-14.43h-.07v13.77h-.33V198.14h.33c1.39,10.06,8.35,15.42,19.87,15.42,9.93,0,15.36-4.43,15.36-12.45,0-7.61-4.7-11.32-17.48-13.44-13.18-2.18-17.88-5.49-17.88-12.64,0-7.95,5.89-12.25,15.56-12.25,10.86,0,16.42,5.43,17.88,14.3h.06V163.44h.33v15.1h-.33c-1.52-10.26-7.28-15.43-17.94-15.43-9.47,0-15.23,4.17-15.23,11.92,0,6.88,4.37,10.13,17.61,12.31C1708.75,189.46,1713.72,193.3,1713.72,201.11Z"/><path class="cls-2" d="M1077.78,451.62c-2.39,11.85-11.65,19.66-24,19.66-14.44,0-24.83-10.59-24.83-25.62s10-25.36,24.83-25.36c11.45,0,18.53,6.09,20.65,15.29h.2V420.9h3v19.53h-3c-2.18-11.06-9.93-17.15-20.79-17.15-13,0-21.65,9.2-21.65,22.38,0,13.37,9,22.64,21.59,22.64,10.79,0,18.86-6.88,20.92-17.34Z"/><path class="cls-2" d="M1086.05,445.66c0-14.9,10.39-25.36,25.42-25.36s25.43,10.46,25.43,25.36c0,15.09-10.4,25.62-25.43,25.62S1086.05,460.75,1086.05,445.66Zm47.67,0c0-13.24-9.07-22.38-22.25-22.38s-22.18,9.14-22.18,22.38,9,22.64,22.18,22.64S1133.72,459,1133.72,445.66Z"/><path class="cls-2" d="M1200.39,420.9v2.78h-8.74v47h-4.11L1155,424.14h-.33V467.9h8.74v2.79H1143V467.9h8.81V423.61H1143V420.9h13.38l32,45.68h.46v-42.9h-9.34V420.9Z"/><path class="cls-2" d="M1251.36,436h-3V423.68h-18.54V467.9h8.74v2.79H1218V467.9h8.74V423.68H1208.2V436h-3V420.9h46.14Z"/><path class="cls-2" d="M1303.27,457.18v13.51H1257V467.9h8.8V423.68H1257V420.9h45.68v13.5h-3V423.68h-30.85V444.2h21.25v2.72h-21.25v21h31.45V457.18Z"/><path class="cls-2" d="M1369.27,423.68V467.9h8.81v2.79h-20.86V467.9h9.07V423.68H1366l-20.26,47h-3.31l-20.13-47h-.26V467.9h9v2.79h-20.66V467.9h8.81V423.68h-8.81V420.9h14.1V421l.07-.06,19.67,46,19.72-46,.07.06v-.06h14v2.78Z"/><path class="cls-2" d="M1429.32,433.81c0,6.95-4.51,13.11-17.22,13.11h-15v21h8.74v2.79h-20.59V467.9H1394V423.68h-8.81V420.9h27.08C1423.62,420.9,1429.32,425.73,1429.32,433.81Zm-3.11.13c0-6.69-4.9-10.26-14-10.26h-15.1V444.2h15.17C1421.5,444.2,1426.21,440.49,1426.21,433.94Z"/><path class="cls-2" d="M1437.26,445.66c0-14.9,10.39-25.36,25.42-25.36s25.43,10.46,25.43,25.36c0,15.09-10.4,25.62-25.43,25.62S1437.26,460.75,1437.26,445.66Zm47.67,0c0-13.24-9.07-22.38-22.25-22.38s-22.18,9.14-22.18,22.38,9,22.64,22.18,22.64S1484.93,459,1484.93,445.66Z"/><path class="cls-2" d="M1542.39,467.9v2.79h-8.21l-6.62-19.2c-1.19-3.45-2.78-4.57-6.09-4.57H1506v21h8.74v2.79h-20.59V467.9H1503V423.68h-8.81V420.9h27.08c11.32,0,17,4.83,17,12.38,0,6.55-4.64,11.32-11.39,12.58a6.9,6.9,0,0,1,3.11,3.9l6.69,18.14Zm-21.32-23.7c9.21,0,14.1-4.37,14.1-10.72,0-6.16-4.89-9.8-14-9.8H1506V444.2Z"/><path class="cls-2" d="M1602.5,467.9v2.79h-21.31V467.9H1594l-6-14.1h-25l-5.89,14.1h12.78v2.79h-21.12V467.9h5.3l19.73-47h3.64l19.73,47Zm-15.62-16.81-11.19-26.55h-.33l-11.12,26.55Z"/><path class="cls-2" d="M1656.53,467.9v2.79h-8.21l-6.63-19.2c-1.19-3.45-2.78-4.57-6.09-4.57h-15.42v21h8.74v2.79h-20.59V467.9h8.8V423.68h-8.8V420.9h27.08c11.32,0,17,4.83,17,12.38,0,6.55-4.63,11.32-11.39,12.58a6.9,6.9,0,0,1,3.11,3.9l6.69,18.14Zm-21.32-23.7c9.2,0,14.1-4.37,14.1-10.72,0-6.16-4.9-9.8-14-9.8h-15.09V444.2Z"/><path class="cls-2" d="M1714.12,420.9v2.78h-5.56l-19.27,24.49V467.9h8.81v2.79h-20.59V467.9h8.81V448.17l-19.27-24.49h-5.63V420.9h20.13v2.78h-10.66l16.95,21.65h.33l16.95-21.65h-11.06V420.9Z"/><path class="cls-2" d="M1084.4,506.72v4.5h-8V556.5h-6.69l-29.26-44.42h-.33V552h8v4.5h-20.66V552h8V511.22h-8v-4.5h15.43l28.4,43h.46V511.22h-8.27v-4.5Z"/><path class="cls-2" d="M1089.89,506.72h21v4.5h-8V552h8v4.5h-21V552h8V511.22h-8Z"/><path class="cls-2" d="M1175.82,506.72v4.5h-8V556.5h-6.69l-29.26-44.42h-.33V552h8v4.5h-20.66V552h8V511.22h-8v-4.5h15.43l28.4,43h.47V511.22h-8.28v-4.5Z"/><path class="cls-2" d="M1228,542.2v14.3h-46.68V552h8V511.22h-8v-4.5h46.08V521h-5v-9.8h-28.14v18h20.46v4.37h-20.46V552H1223v-9.8Z"/><path class="cls-2" d="M1309.09,531.48c0,14.76-10.4,25-25.95,25H1258.9V552h8V511.22h-8v-4.5h24.24C1298.69,506.72,1309.09,516.91,1309.09,531.48Zm-5.23,0c0-12-8.28-20.26-20.72-20.26h-11.26V552h11.26C1295.58,552,1303.86,543.59,1303.86,531.48Z"/><path class="cls-2" d="M1315.05,506.72h21v4.5h-8V552h8v4.5h-21V552h8V511.22h-8Z"/><path class="cls-2" d="M1387.54,506.72V521h-5v-9.8H1357v18h18v4.37h-18V552h9.6v4.5H1344V552h8V511.22h-8v-4.5Z"/><path class="cls-2" d="M1437.06,506.72V521h-5v-9.8h-25.55v18h18v4.37h-18V552h9.6v4.5h-22.58V552h8V511.22h-8v-4.5Z"/><path class="cls-2" d="M1489.76,542.2v14.3h-46.68V552h8V511.22h-8v-4.5h46.08V521h-5v-9.8h-28.14v18h20.46v4.37h-20.46V552h28.73v-9.8Z"/><path class="cls-2" d="M1545.17,552v4.5h-9.47l-6.42-18.34c-1.19-3.37-2.65-4.56-6-4.56h-12.64V552h8v4.5h-21V552h8V511.22h-8v-4.5h26.75c11.38,0,17.08,4.83,17.08,12.77,0,6.36-4,11.26-10.53,12.65a7.1,7.1,0,0,1,2.38,3.18l6.36,16.68Zm-21-22.77c8,0,12.32-3.51,12.32-9.41,0-5.69-4.57-8.6-12.25-8.6h-13.57v18Z"/><path class="cls-2" d="M1598.73,542.2v14.3h-46.68V552h8V511.22h-8v-4.5h46.08V521h-5v-9.8H1565v18h20.46v4.37H1565V552h28.73v-9.8Z"/><path class="cls-2" d="M1663.61,506.72v4.5h-8V556.5h-6.69l-29.26-44.42h-.34V552h8v4.5h-20.66V552h8V511.22h-8v-4.5h15.42l28.41,43h.46V511.22h-8.27v-4.5Z"/><path class="cls-2" d="M1715.77,522.67h-5V511.22h-16V552h7.94v4.5h-20.92V552h8V511.22h-16.09v11.45h-5V506.72h47Z"/><path class="cls-2" d="M1028.52,617.23c0-15.1,10.66-25.62,26-25.62s26,10.52,26,25.62c0,15.29-10.59,25.89-26,25.89S1028.52,632.52,1028.52,617.23Zm44,0c0-10.79-7.28-18.14-17.94-18.14s-17.88,7.35-17.88,18.14,7.29,18.41,17.88,18.41S1072.48,628.09,1072.48,617.23Z"/><path class="cls-2" d="M1128.69,606.17c0,6.23-3.25,14.24-17.94,14.24h-11.59V635.5h6.95v6.82h-21.58V635.5h7V599.22h-7V592.4h26.61C1122.8,592.4,1128.69,597.5,1128.69,606.17Zm-7.88.53c0-5.23-3.91-7.48-9.93-7.48h-11.72v14.7H1111C1117.37,613.92,1120.81,611.54,1120.81,606.7Z"/><path class="cls-2" d="M1181.85,609.62h-7.48v-10.4h-12.78V635.5h7v6.82H1147V635.5h7V599.22h-12.84v10.4h-7.49V592.4h48.27Z"/><path class="cls-2" d="M1186.41,592.4H1208v6.82h-7V635.5h7v6.82h-21.59V635.5h6.95V599.22h-6.95Z"/><path class="cls-2" d="M1220,617.23c0,10.86,7.09,18.41,17.22,18.41,8.61,0,15-5.3,16.68-13.51l7.88,1.59c-2.38,11.72-11.78,19.4-24.56,19.4-14.83,0-25.36-10.8-25.36-25.89s10.46-25.56,24.83-25.56c10,0,15.76,5.23,17.15,14.5h.33V592.4h7.68v19.67h-7.68c-1.92-7.82-8.28-12.92-16.89-12.92C1227.13,599.15,1220,606.5,1220,617.23Z"/><path class="cls-2" d="M1316,635.5v6.82h-21.78V635.5h9.2l-3.38-8.67H1279.3l-3.38,8.67h9.33v6.82h-21.18V635.5h4.23l17.22-43.1h9.07l17.21,43.1Zm-18.47-15.09L1290,601.14h-.53l-7.62,19.27Z"/><path class="cls-2" d="M1361.72,624.91v17.41h-41.64V635.5h7V599.22h-7V592.4H1342v6.82h-7.28V635.5H1354V624.91Z"/><path class="cls-2" d="M1464.87,592.4v6.82h-4.11l-14.23,43.1H1437l-11-33.83h-.33l-11.25,33.83H1405l-14.44-43.1h-4V592.4h20.65v6.82h-8.21l11,34.23h.27l11.65-34.23h-7.28V592.4h23v6.82h-6.95l11.45,34.23h.33l11.12-34.23h-8.74V592.4Z"/><path class="cls-2" d="M1516.3,626.7v15.62h-47.47V635.5h7V599.22h-7V592.4h46.88V608H1508v-8.81h-24.57v14.7h18.87v6.49h-18.87V635.5h25.16v-8.8Z"/><path class="cls-2" d="M1523.12,592.4h21.58v6.82h-7V635.5h7v6.82h-21.58V635.5h7V599.22h-7Z"/><path class="cls-2" d="M1605.68,623.92h-6.89v18.4H1594l-2.51-7.15c-4.17,5-10.4,7.88-17.88,7.88-14.56,0-25-10.86-25-25.82s10.46-25.56,24.82-25.56c9.94,0,15.76,5.17,17.15,14.44h.27V592.4h7.68v19.67h-7.68c-1.86-7.88-8.28-12.92-16.82-12.92-10.2,0-17.28,7.35-17.28,18.08s7.08,18.41,17.35,18.41c8.21,0,14.5-4.64,16.94-11.72h-12.77v-6.56h27.41Z"/><path class="cls-2" d="M1656.39,599.22V635.5h6.95v6.82h-21.58V635.5h7V620.41h-25.82V635.5h6.95v6.82h-21.59V635.5h7V599.22h-7V592.4h21.59v6.82h-6.95v14.7h25.82v-14.7h-7V592.4h21.58v6.82Z"/><path class="cls-2" d="M1716.17,609.62h-7.48v-10.4h-12.78V635.5h6.95v6.82h-21.58V635.5h7V599.22h-12.84v10.4h-7.49V592.4h48.27Z"/><path class="cls-2" d="M1074.14,714.3c0,8.81-6.29,13.84-16.69,13.84h-30v-9.07h6V686.89h-6v-9.07h27.81c10.59,0,17,4.44,17,13,0,6.09-3.17,9.73-9.33,11.39C1070.23,703.58,1074.14,707.29,1074.14,714.3Zm-30-15.62h9.94c5.16,0,7.15-2.78,7.15-6.09,0-3.78-2.85-5.7-7.42-5.7h-9.67Zm18.94,14.23c0-3.51-2.45-6-8.54-6h-10.4v12.18h10.6C1059.84,719.07,1063.08,716.89,1063.08,712.91Z"/><path class="cls-2" d="M1126.17,719.07v9.07h-13.5l-5.37-17.74c-.86-2.59-1.92-3.45-4.37-3.45h-8.47v12.12h5.89v9.07h-22.57v-9.07h6V686.89h-6v-9.07h27.4c12.58,0,18.94,5.1,18.94,13.71,0,6-3.18,10.19-8.61,12.11v.2a7.33,7.33,0,0,1,1.2,2.06l4.89,13.17Zm-21.32-20.26c5.37,0,8.28-2,8.28-6.16s-3.24-5.76-8.21-5.76h-10.46v11.92Z"/><path class="cls-2" d="M1181.58,677.82v9.07h-5.69v21.32c0,12.52-8.08,20.66-21.25,20.66s-21.19-8.14-21.19-20.66V686.89h-5.69v-9.07h22.71v9.07h-6.29v21.39c0,6.62,4,10.92,11,10.92s11.12-4.3,11.12-10.92V686.89H1160v-9.07Z"/><path class="cls-2" d="M1234.15,708.54c-2.18,12.32-12,20.46-25.42,20.46-15.3,0-26.09-10.86-26.09-26.15s10.73-25.82,24.3-25.82c9.47,0,14.83,5.16,16,14.89h.33v-14.1H1234V698h-10.73c-1.72-6.56-7.21-10.73-14.5-10.73-8.8,0-14.89,6.36-14.89,15.56,0,9.4,6.09,15.89,14.83,15.89,7.48,0,13-4.77,14.43-12Z"/><path class="cls-2" d="M1287.38,710.6v17.54h-49.13v-9.07h6V686.89h-6v-9.07h48.53v17.61h-10.72v-8.54h-21.12v11.85h16v8.15h-16v12.18h21.71V710.6Z"/><path class="cls-2" d="M1366,719.07v9.07h-23.31v-9.07h7.61l-2.51-7h-18.14l-2.52,7H1335v9.07h-22.31v-9.07h4l16-41.25h13.44l16,41.25Zm-21.19-15.16-5.63-15.63h-.92l-5.63,15.63Z"/><path class="cls-2" d="M1425.81,677.82v9.07h-5.89v41.25h-14.84l-19.92-37.34h-.93v28.27h5.83v9.07h-20.93v-9.07h5.9V686.89h-5.9v-9.07h21.39l19.2,36.09h1.06v-27h-5.89v-9.07Z"/><path class="cls-2" d="M1480.56,702.85c0,14.9-10.8,25.29-26.68,25.29h-25v-9.07h5.95V686.89h-5.95v-9.07h25C1469.76,677.89,1480.56,688.15,1480.56,702.85Zm-11.19,0c0-9.47-6.23-16-15.69-16h-8.08v32.18h8.08C1463.14,719.14,1469.37,712.45,1469.37,702.85Z"/><path class="cls-2" d="M1549.21,713.84c0,9.53-6,15-16.55,15-8.55,0-13.58-3.57-14.44-10.39h-.39v9.73H1507.1V712.52h10.73c1,5.23,5.69,8.54,12,8.54,5.36,0,8.34-2.19,8.34-6.23s-3-6-10.86-7c-13.7-1.52-20.46-7.08-20.46-16.82,0-8.67,5.83-14,15.89-14,8.28,0,13,3.58,13.84,10.53h.33v-9.8h10.73v15.5h-10.73c-.86-5.17-5.36-8.55-11.39-8.55-4.7,0-7.61,2-7.61,5.3,0,3.51,3,5.63,10.93,6.89C1543,698.68,1549.21,703.84,1549.21,713.84Z"/><path class="cls-2" d="M1554.3,702.85c0-15.23,10.93-25.82,26.68-25.82s26.69,10.59,26.69,25.82c0,15.43-10.93,26.15-26.69,26.15S1554.3,718.28,1554.3,702.85Zm42.18,0c0-9.2-6.36-15.56-15.5-15.56s-15.42,6.36-15.42,15.56,6.29,15.82,15.42,15.82S1596.48,712.18,1596.48,702.85Z"/><path class="cls-2" d="M1666.92,677.82v9.07H1661v41.25h-14.84l-19.92-37.34h-.93v28.27h5.83v9.07h-20.93v-9.07h5.9V686.89h-5.9v-9.07h21.39l19.2,36.09h1.06v-27H1646v-9.07Z"/><path class="cls-2" d="M1713.39,713.84c0,9.53-6,15-16.55,15-8.54,0-13.57-3.57-14.43-10.39h-.4v9.73h-10.73V712.52H1682c1,5.23,5.69,8.54,12,8.54,5.37,0,8.34-2.19,8.34-6.23s-3-6-10.85-7c-13.71-1.52-20.46-7.08-20.46-16.82,0-8.67,5.82-14,15.89-14,8.27,0,13,3.58,13.84,10.53h.33v-9.8h10.72v15.5h-10.72c-.86-5.17-5.37-8.55-11.39-8.55-4.7,0-7.61,2-7.61,5.3,0,3.51,3,5.63,10.92,6.89C1707.17,698.68,1713.39,703.84,1713.39,713.84Z"/><path class="cls-2" d="M1081.35,802.5V814h-24.82V802.5h5.82l-1.79-5.36h-14.89l-1.79,5.36h6.36V814h-23.51V802.5h3.71l14.7-39.26h18.07l14.63,39.26Zm-24-15.35-3.84-11.59h-.73l-3.84,11.59Z"/><path class="cls-2" d="M1150.93,774.7v27.8h4.7V814H1132.2V802.5h4.7V774.7h-.6L1126.1,814h-12.38l-10.13-39.26H1103v27.8h4.63V814h-22.31V802.5h4.7V774.7h-4.7V763.24h29.33l-.13.2,1.59-.2,5.43,26.29,6.29-26.29h27.8V774.7Z"/><path class="cls-2" d="M1212.57,794.23V814h-50.85V802.5h4.77V774.7h-4.77V763.24H1212v19.67h-14V774.7h-17.41v8.74h13v10h-13v9.07h18v-8.27Z"/><path class="cls-2" d="M1268,802.5V814h-15.83l-4.83-17.88c-.53-1.92-1.26-2.51-3-2.51h-7.22v8.93H1242V814h-23.64V802.5h4.77V774.7h-4.77V763.24h28.14c13.57,0,20.46,5.3,20.46,14.17,0,5.89-3.05,9.47-7.75,11.52v.4a6.27,6.27,0,0,1,.93,1.72l3.9,11.45Zm-21.85-18.93c4.1,0,6.29-1.52,6.29-4.5s-2.52-4.37-6.23-4.37h-9.07v8.87Z"/><path class="cls-2" d="M1273,763.24h23.63V774.7h-4.83v27.8h4.83V814H1273V802.5h4.76V774.7H1273Z"/><path class="cls-2" d="M1352.78,793.3c-2,12.91-12.25,21.52-26.35,21.52-15.82,0-26.81-10.86-26.81-26.35s11-26.09,23.7-26.09q13.31,0,14.7,15.3h.46V763.24h14V784h-14c-1.59-5.1-6.09-8.28-11.92-8.28-7.34,0-12.38,5.17-12.38,12.78s5,13.11,12.25,13.11c6.29,0,10.93-4.17,11.92-10.46Z"/><path class="cls-2" d="M1408.46,802.5V814h-24.83V802.5h5.83l-1.79-5.36h-14.9L1371,802.5h6.35V814h-23.5V802.5h3.71l14.69-39.26h18.08L1405,802.5Zm-24-15.35-3.84-11.59h-.73L1376,787.15Z"/><path class="cls-2" d="M1469.23,763.24V774.7h-4.76V814H1444.8l-15.16-33h-1V802.5h4.77V814h-21V802.5h4.7V774.7h-4.7V763.24h24.69L1452,795.55h1V774.7h-4.77V763.24Z"/><path class="cls-2" d="M1543.45,763.24v20.13h-14V774.7h-15.49v8.74h11.25v10h-11.25v9.07H1522V814h-26.88V802.5h4.76V774.7h-4.76V763.24Z"/><path class="cls-2" d="M1546.82,788.47c0-15.36,11.19-26.15,27.34-26.15s27.35,10.79,27.35,26.15c0,15.56-11.13,26.35-27.35,26.35S1546.82,804,1546.82,788.47Zm40.12,0c0-7.55-5.23-12.78-12.78-12.78s-12.78,5.23-12.78,12.78,5.24,13,12.78,13S1586.94,796.15,1586.94,788.47Z"/><path class="cls-2" d="M1661.35,763.24V774.7h-4.76V814h-19.67l-15.16-33h-1V802.5h4.77V814h-21V802.5h4.7V774.7h-4.7V763.24h24.69l14.83,32.31h1V774.7h-4.77V763.24Z"/><path class="cls-2" d="M1715.71,784.23h-12.45V774.7H1697v27.8h4.76V814h-23.5V802.5h4.7V774.7h-6.16v9.53H1664.4v-21h51.31Z"/><path class="cls-2" d="M1082.68,886.07v13.71h-26.22V886.07h4.17l-1.06-3.7h-12l-1.06,3.7h5v13.71h-24.63V886.07h3.45l13.44-37.4h22.38l13.44,37.4Zm-26.62-15.42-2.31-7.95h-.34l-2.31,7.95Z"/><path class="cls-2" d="M1108.29,881.31v-2.19h17.09v2.19c0,1.92.53,3,1.78,3s1.79-1.12,1.79-3V862.37h-5.69v-13.7h26.55v13.7H1146v19c0,11.46-5.62,19.07-18.87,19.07S1108.29,893.29,1108.29,881.31Z"/><path class="cls-2" d="M1153.18,874.09c0-15.49,11.45-26.35,28-26.35s28,10.86,28,26.35c0,15.69-11.45,26.61-28,26.61S1153.18,889.78,1153.18,874.09Zm38.33,0c0-6-4.23-10.2-10.33-10.2s-10.32,4.17-10.32,10.2,4.23,10.46,10.32,10.46S1191.51,880.25,1191.51,874.09Z"/><path class="cls-2" d="M1263.54,885.81c0,9-7.28,14-19.26,14H1211.7V886.07h3.78v-23.7h-3.78v-13.7h30.39c12.18,0,19.6,4.43,19.6,13.1,0,6.16-3.71,9.94-10.86,11.52C1259.11,874.75,1263.54,878.59,1263.54,885.81Zm-31-17.68h7.81c2.78,0,4.17-1,4.17-2.85s-1.39-2.91-4.17-2.91h-7.81ZM1246.39,883c0-2-1.58-3.11-4.7-3.11h-9.13v6.22h9.07C1244.61,886.07,1246.39,884.88,1246.39,883Z"/><path class="cls-2" d="M1318.89,885.81c0,9-7.28,14-19.27,14h-32.57V886.07h3.77v-23.7h-3.77v-13.7h30.39c12.18,0,19.59,4.43,19.59,13.1,0,6.16-3.7,9.94-10.85,11.52C1314.45,874.75,1318.89,878.59,1318.89,885.81Zm-31-17.68h7.82c2.78,0,4.17-1,4.17-2.85s-1.39-2.91-4.17-2.91h-7.82ZM1301.74,883c0-2-1.59-3.11-4.7-3.11h-9.14v6.22H1297C1300,886.07,1301.74,884.88,1301.74,883Z"/><path class="cls-2" d="M1322.39,848.67H1347v13.7h-3.77v23.7H1347v13.71h-24.63V886.07h3.78v-23.7h-3.78Z"/><path class="cls-2" d="M1409.52,848.67v13.7h-3.64v37.41h-24.1l-11.46-29.13H1370v15.42h3.64v13.71h-21.05V886.07h3.64v-23.7h-3.64v-13.7h27.81l11.39,28.86h.33V862.37h-3.64v-13.7Z"/><path class="cls-2" d="M1469.57,881.44h-3.65v18.34h-9.53l-2.78-5.43c-3.58,4.3-8.74,6.35-15.43,6.35-15.69,0-26.94-10.92-26.94-26.61,0-15.49,11.25-26.35,23.3-26.35,8.21,0,12.71,4.9,13.38,15h.53v-14.1h17.08v20.52h-17.08c-1.33-3.31-4.84-5.36-9.21-5.36-6.16,0-10.33,4.17-10.33,10.26,0,6.49,3.91,10.92,10.66,10.92a14.26,14.26,0,0,0,9.27-3.37v-.2h-11.58V870.91h32.31Z"/><path class="cls-2" d="M1547.88,871.44h-14.83v-9.07h-3v23.7h3.64v13.71h-24.36V886.07H1513v-23.7h-3v9.07h-14.83V848.67h52.7Z"/><path class="cls-2" d="M1604.62,848.67v13.7h-2.91l-15.36,18.21v5.49H1590v13.71h-24.37V886.07h3.64v-5.49l-15.36-18.21H1551v-13.7h27.21v13.7h-4.37l6,7.61,6-7.61h-4.37v-13.7Z"/><path class="cls-2" d="M1658.31,864.22c0,9.87-7.61,15.7-21.58,15.7h-7.35v6.15h3.77v13.71h-24.63V886.07h3.78v-23.7h-3.78v-13.7h28.41C1651.16,848.67,1658.31,854.49,1658.31,864.22Zm-17.81,1c0-2-1.72-2.85-4.24-2.85h-6.88v5.83h6.82C1639,868.2,1640.5,867.2,1640.5,865.22Z"/><path class="cls-2" d="M1713.92,878.13v21.65h-52.5V886.07h3.77v-23.7h-3.77v-13.7h51.9v21.65h-17.08v-8h-14v5.83h10.13v11.72h-10.13v6.15h14.57v-7.94Z"/></g></g></svg>